<?xml version="1.0" encoding="UTF-8" standalone="no"?><svg xmlns="http://www.w3.org/2000/svg" xmlns:xlink="http://www.w3.org/1999/xlink" contentScriptType="application/ecmascript" contentStyleType="text/css" height="740px" preserveAspectRatio="none" style="width:1363px;height:740px;" version="1.1" viewBox="0 0 1363 740" width="1363px" zoomAndPan="magnify"><defs><filter height="300%" id="f09hibm" width="300%" x="-1" y="-1"><feGaussianBlur result="blurOut" stdDeviation="2.0"/><feColorMatrix in="blurOut" result="blurOut2" type="matrix" values="0 0 0 0 0 0 0 0 0 0 0 0 0 0 0 0 0 0 .4 0"/><feOffset dx="4.0" dy="4.0" in="blurOut2" result="blurOut3"/><feBlend in="SourceGraphic" in2="blurOut3" mode="normal"/></filter></defs><g><text fill="#000000" font-family="sans-serif" font-size="18" lengthAdjust="spacingAndGlyphs" textLength="245" x="576.5" y="16.708">ATF - Components Diagram</text><!--cluster user_layer--><polygon fill="#FFFFFF" filter="url(#f09hibm)" points="676,73.9531,686,63.9531,849,63.9531,849,161.9531,839,171.9531,676,171.9531,676,73.9531" style="stroke: #000000; stroke-width: 2.0;"/><line style="stroke: #000000; stroke-width: 2.0;" x1="839" x2="848" y1="73.9531" y2="64.9531"/><line style="stroke: #000000; stroke-width: 2.0;" x1="676" x2="839" y1="73.9531" y2="73.9531"/><line style="stroke: #000000; stroke-width: 2.0;" x1="839" x2="839" y1="73.9531" y2="171.9531"/><text fill="#000000" font-family="sans-serif" font-size="14" font-weight="bold" lengthAdjust="spacingAndGlyphs" textLength="97" x="710" y="89.9482">User Scripts</text><!--cluster app_layer--><polygon fill="#FFFFFF" filter="url(#f09hibm)" points="538,251.9531,675,251.9531,682,274.25,815,274.25,815,354.9531,538,354.9531,538,251.9531" style="stroke: #000000; stroke-width: 2.0;"/><line style="stroke: #000000; stroke-width: 2.0;" x1="538" x2="682" y1="274.25" y2="274.25"/><text fill="#000000" font-family="sans-serif" font-size="14" font-weight="bold" lengthAdjust="spacingAndGlyphs" textLength="131" x="542" y="266.9482">Application layer</text><!--cluster buis_layer--><polygon fill="#FFFFFF" filter="url(#f09hibm)" points="635,507.4531,756,507.4531,763,529.75,939,529.75,939,610.4531,635,610.4531,635,507.4531" style="stroke: #000000; stroke-width: 2.0;"/><line style="stroke: #000000; stroke-width: 2.0;" x1="635" x2="763" y1="529.75" y2="529.75"/><text fill="#000000" font-family="sans-serif" font-size="14" font-weight="bold" lengthAdjust="spacingAndGlyphs" textLength="115" x="639" y="522.4482">Business layer</text><!--cluster ph_layer--><polygon fill="#FFFFFF" filter="url(#f09hibm)" points="371,498.9531,487,498.9531,494,521.25,595,521.25,595,618.9531,371,618.9531,371,498.9531" style="stroke: #000000; stroke-width: 2.0;"/><line style="stroke: #000000; stroke-width: 2.0;" x1="371" x2="494" y1="521.25" y2="521.25"/><text fill="#000000" font-family="sans-serif" font-size="14" font-weight="bold" lengthAdjust="spacingAndGlyphs" textLength="110" x="375" y="513.9482">Protocol layer</text><!--cluster tm_layer--><polygon fill="#FFFFFF" filter="url(#f09hibm)" points="30,498.9531,158,498.9531,165,521.25,331,521.25,331,618.9531,30,618.9531,30,498.9531" style="stroke: #000000; stroke-width: 2.0;"/><line style="stroke: #000000; stroke-width: 2.0;" x1="30" x2="165" y1="521.25" y2="521.25"/><text fill="#000000" font-family="sans-serif" font-size="14" font-weight="bold" lengthAdjust="spacingAndGlyphs" textLength="122" x="34" y="513.9482">Transport layer</text><!--cluster utils_layer--><polygon fill="#FFFFFF" filter="url(#f09hibm)" points="979,507.4531,1124,507.4531,1131,529.75,1356,529.75,1356,733.9531,979,733.9531,979,507.4531" style="stroke: #000000; stroke-width: 2.0;"/><line style="stroke: #000000; stroke-width: 2.0;" x1="979" x2="1131" y1="529.75" y2="529.75"/><text fill="#000000" font-family="sans-serif" font-size="14" font-weight="bold" lengthAdjust="spacingAndGlyphs" textLength="139" x="983" y="522.4482">Data assess layer</text><!--entity Sample--><rect fill="#FEFECE" filter="url(#f09hibm)" height="36.2969" style="stroke: #A80036; stroke-width: 1.5;" width="95" x="708.5" y="111.9531"/><rect fill="#FEFECE" height="5" style="stroke: #A80036; stroke-width: 1.5;" width="10" x="703.5" y="116.9531"/><rect fill="#FEFECE" height="5" style="stroke: #A80036; stroke-width: 1.5;" width="10" x="703.5" y="138.25"/><text fill="#000000" font-family="sans-serif" font-size="14" lengthAdjust="spacingAndGlyphs" textLength="75" x="718.5" y="134.9482">User Script</text><!--entity Launch--><rect fill="#FEFECE" filter="url(#f09hibm)" height="36.2969" style="stroke: #A80036; stroke-width: 1.5;" width="70" x="721" y="294.9531"/><rect fill="#FEFECE" height="5" style="stroke: #A80036; stroke-width: 1.5;" width="10" x="716" y="299.9531"/><rect fill="#FEFECE" height="5" style="stroke: #A80036; stroke-width: 1.5;" width="10" x="716" y="321.25"/><text fill="#000000" font-family="sans-serif" font-size="14" lengthAdjust="spacingAndGlyphs" textLength="50" x="731" y="317.9482">Launch</text><!--entity Connection--><rect fill="#FEFECE" filter="url(#f09hibm)" height="36.2969" style="stroke: #A80036; stroke-width: 1.5;" width="135" x="570.5" y="294.9531"/><rect fill="#FEFECE" height="5" style="stroke: #A80036; stroke-width: 1.5;" width="10" x="565.5" y="299.9531"/><rect fill="#FEFECE" height="5" style="stroke: #A80036; stroke-width: 1.5;" width="10" x="565.5" y="321.25"/><text fill="#000000" font-family="sans-serif" font-size="14" lengthAdjust="spacingAndGlyphs" textLength="115" x="580.5" y="317.9482">Connection Test</text><!--entity SDL--><rect fill="#FEFECE" filter="url(#f09hibm)" height="36.2969" style="stroke: #A80036; stroke-width: 1.5;" width="47" x="667.5" y="550.4531"/><rect fill="#FEFECE" height="5" style="stroke: #A80036; stroke-width: 1.5;" width="10" x="662.5" y="555.4531"/><rect fill="#FEFECE" height="5" style="stroke: #A80036; stroke-width: 1.5;" width="10" x="662.5" y="576.75"/><text fill="#000000" font-family="sans-serif" font-size="14" lengthAdjust="spacingAndGlyphs" textLength="27" x="677.5" y="573.4482">SDL</text><!--entity TestBase--><rect fill="#FEFECE" filter="url(#f09hibm)" height="36.2969" style="stroke: #A80036; stroke-width: 1.5;" width="90" x="730" y="550.4531"/><rect fill="#FEFECE" height="5" style="stroke: #A80036; stroke-width: 1.5;" width="10" x="725" y="555.4531"/><rect fill="#FEFECE" height="5" style="stroke: #A80036; stroke-width: 1.5;" width="10" x="725" y="576.75"/><text fill="#000000" font-family="sans-serif" font-size="14" lengthAdjust="spacingAndGlyphs" textLength="70" x="740" y="573.4482">Test Base</text><!--entity Validator--><rect fill="#FEFECE" filter="url(#f09hibm)" height="36.2969" style="stroke: #A80036; stroke-width: 1.5;" width="79" x="835.5" y="550.4531"/><rect fill="#FEFECE" height="5" style="stroke: #A80036; stroke-width: 1.5;" width="10" x="830.5" y="555.4531"/><rect fill="#FEFECE" height="5" style="stroke: #A80036; stroke-width: 1.5;" width="10" x="830.5" y="576.75"/><text fill="#000000" font-family="sans-serif" font-size="14" lengthAdjust="spacingAndGlyphs" textLength="59" x="845.5" y="573.4482">Validator</text><!--entity MobSession--><rect fill="#FEFECE" filter="url(#f09hibm)" height="52.5938" style="stroke: #A80036; stroke-width: 1.5;" width="75" x="495.5" y="541.9531"/><rect fill="#FEFECE" height="5" style="stroke: #A80036; stroke-width: 1.5;" width="10" x="490.5" y="546.9531"/><rect fill="#FEFECE" height="5" style="stroke: #A80036; stroke-width: 1.5;" width="10" x="490.5" y="584.5469"/><text fill="#000000" font-family="sans-serif" font-size="14" lengthAdjust="spacingAndGlyphs" textLength="45" x="510.5" y="564.9482">Mobile</text><text fill="#000000" font-family="sans-serif" font-size="14" lengthAdjust="spacingAndGlyphs" textLength="55" x="505.5" y="581.2451">Session</text><!--entity Protocol--><rect fill="#FEFECE" filter="url(#f09hibm)" height="52.5938" style="stroke: #A80036; stroke-width: 1.5;" width="77" x="403.5" y="541.9531"/><rect fill="#FEFECE" height="5" style="stroke: #A80036; stroke-width: 1.5;" width="10" x="398.5" y="546.9531"/><rect fill="#FEFECE" height="5" style="stroke: #A80036; stroke-width: 1.5;" width="10" x="398.5" y="584.5469"/><text fill="#000000" font-family="sans-serif" font-size="14" lengthAdjust="spacingAndGlyphs" textLength="57" x="413.5" y="564.9482">Protocol</text><text fill="#000000" font-family="sans-serif" font-size="14" lengthAdjust="spacingAndGlyphs" textLength="53" x="415.5" y="581.2451">Handler</text><!--entity HMIConnection--><rect fill="#FEFECE" filter="url(#f09hibm)" height="36.2969" style="stroke: #A80036; stroke-width: 1.5;" width="129" x="62.5" y="550.4531"/><rect fill="#FEFECE" height="5" style="stroke: #A80036; stroke-width: 1.5;" width="10" x="57.5" y="555.4531"/><rect fill="#FEFECE" height="5" style="stroke: #A80036; stroke-width: 1.5;" width="10" x="57.5" y="576.75"/><text fill="#000000" font-family="sans-serif" font-size="14" lengthAdjust="spacingAndGlyphs" textLength="109" x="72.5" y="573.4482">HMI Connection</text><!--entity MobConnection--><rect fill="#FEFECE" filter="url(#f09hibm)" height="52.5938" style="stroke: #A80036; stroke-width: 1.5;" width="100" x="207" y="541.9531"/><rect fill="#FEFECE" height="5" style="stroke: #A80036; stroke-width: 1.5;" width="10" x="202" y="546.9531"/><rect fill="#FEFECE" height="5" style="stroke: #A80036; stroke-width: 1.5;" width="10" x="202" y="584.5469"/><text fill="#000000" font-family="sans-serif" font-size="14" lengthAdjust="spacingAndGlyphs" textLength="45" x="234.5" y="564.9482">Mobile</text><text fill="#000000" font-family="sans-serif" font-size="14" lengthAdjust="spacingAndGlyphs" textLength="80" x="217" y="581.2451">Connection</text><!--entity Utils--><rect fill="#FEFECE" filter="url(#f09hibm)" height="36.2969" style="stroke: #A80036; stroke-width: 1.5;" width="49" x="1282.5" y="550.4531"/><rect fill="#FEFECE" height="5" style="stroke: #A80036; stroke-width: 1.5;" width="10" x="1277.5" y="555.4531"/><rect fill="#FEFECE" height="5" style="stroke: #A80036; stroke-width: 1.5;" width="10" x="1277.5" y="576.75"/><text fill="#000000" font-family="sans-serif" font-size="14" lengthAdjust="spacingAndGlyphs" textLength="29" x="1292.5" y="573.4482">Utils</text><!--entity CppUtils--><rect fill="#FEFECE" filter="url(#f09hibm)" height="36.2969" style="stroke: #A80036; stroke-width: 1.5;" width="91" x="1240.5" y="673.9531"/><rect fill="#FEFECE" height="5" style="stroke: #A80036; stroke-width: 1.5;" width="10" x="1235.5" y="678.9531"/><rect fill="#FEFECE" height="5" style="stroke: #A80036; stroke-width: 1.5;" width="10" x="1235.5" y="700.25"/><text fill="#000000" font-family="sans-serif" font-size="14" lengthAdjust="spacingAndGlyphs" textLength="71" x="1250.5" y="696.9482">C++ Core</text><!--entity ATFLogger--><rect fill="#FEFECE" filter="url(#f09hibm)" height="36.2969" style="stroke: #A80036; stroke-width: 1.5;" width="94" x="1173" y="550.4531"/><rect fill="#FEFECE" height="5" style="stroke: #A80036; stroke-width: 1.5;" width="10" x="1168" y="555.4531"/><rect fill="#FEFECE" height="5" style="stroke: #A80036; stroke-width: 1.5;" width="10" x="1168" y="576.75"/><text fill="#000000" font-family="sans-serif" font-size="14" lengthAdjust="spacingAndGlyphs" textLength="74" x="1183" y="573.4482">ATF logger</text><!--entity Events--><rect fill="#FEFECE" filter="url(#f09hibm)" height="36.2969" style="stroke: #A80036; stroke-width: 1.5;" width="67" x="1090.5" y="550.4531"/><rect fill="#FEFECE" height="5" style="stroke: #A80036; stroke-width: 1.5;" width="10" x="1085.5" y="555.4531"/><rect fill="#FEFECE" height="5" style="stroke: #A80036; stroke-width: 1.5;" width="10" x="1085.5" y="576.75"/><text fill="#000000" font-family="sans-serif" font-size="14" lengthAdjust="spacingAndGlyphs" textLength="47" x="1100.5" y="573.4482">Events</text><!--entity Config--><rect fill="#FEFECE" filter="url(#f09hibm)" height="36.2969" style="stroke: #A80036; stroke-width: 1.5;" width="64" x="1011" y="550.4531"/><rect fill="#FEFECE" height="5" style="stroke: #A80036; stroke-width: 1.5;" width="10" x="1006" y="555.4531"/><rect fill="#FEFECE" height="5" style="stroke: #A80036; stroke-width: 1.5;" width="10" x="1006" y="576.75"/><text fill="#000000" font-family="sans-serif" font-size="14" lengthAdjust="spacingAndGlyphs" textLength="44" x="1021" y="573.4482">Config</text><!--entity ITest--><ellipse cx="636" cy="121.9531" fill="#FEFECE" filter="url(#f09hibm)" rx="8" ry="8" style="stroke: #A80036; stroke-width: 2.0;"/><text fill="#000000" font-family="sans-serif" font-size="14" lengthAdjust="spacingAndGlyphs" textLength="31" x="620.5" y="143.9482">Test</text><!--entity ISDL--><ellipse cx="691" cy="418.9531" fill="#FEFECE" filter="url(#f09hibm)" rx="8" ry="8" style="stroke: #A80036; stroke-width: 2.0;"/><text fill="#000000" font-family="sans-serif" font-size="14" lengthAdjust="spacingAndGlyphs" textLength="27" x="677.5" y="440.9482">SDL</text><!--entity ITestBase--><ellipse cx="755" cy="418.9531" fill="#FEFECE" filter="url(#f09hibm)" rx="8" ry="8" style="stroke: #A80036; stroke-width: 2.0;"/><text fill="#000000" font-family="sans-serif" font-size="14" lengthAdjust="spacingAndGlyphs" textLength="70" x="720" y="440.9482">Test Base</text><!--entity IValidator--><ellipse cx="835" cy="418.9531" fill="#FEFECE" filter="url(#f09hibm)" rx="8" ry="8" style="stroke: #A80036; stroke-width: 2.0;"/><text fill="#000000" font-family="sans-serif" font-size="14" lengthAdjust="spacingAndGlyphs" textLength="59" x="805.5" y="440.9482">Validator</text><!--entity IProtocol--><ellipse cx="409" cy="418.9531" fill="#FEFECE" filter="url(#f09hibm)" rx="8" ry="8" style="stroke: #A80036; stroke-width: 2.0;"/><text fill="#000000" font-family="sans-serif" font-size="14" lengthAdjust="spacingAndGlyphs" textLength="114" x="352" y="440.9482">Protocol Handler</text><!--entity IMobSession--><ellipse cx="591" cy="418.9531" fill="#FEFECE" filter="url(#f09hibm)" rx="8" ry="8" style="stroke: #A80036; stroke-width: 2.0;"/><text fill="#000000" font-family="sans-serif" font-size="14" lengthAdjust="spacingAndGlyphs" textLength="104" x="539" y="440.9482">Mobile Session</text><!--entity IHMIConnection--><ellipse cx="134" cy="418.9531" fill="#FEFECE" filter="url(#f09hibm)" rx="8" ry="8" style="stroke: #A80036; stroke-width: 2.0;"/><text fill="#000000" font-family="sans-serif" font-size="14" lengthAdjust="spacingAndGlyphs" textLength="109" x="79.5" y="440.9482">HMI Connection</text><!--entity IMobConnection--><ellipse cx="271" cy="418.9531" fill="#FEFECE" filter="url(#f09hibm)" rx="8" ry="8" style="stroke: #A80036; stroke-width: 2.0;"/><text fill="#000000" font-family="sans-serif" font-size="14" lengthAdjust="spacingAndGlyphs" textLength="129" x="206.5" y="440.9482">Mobile Connection</text><!--entity IUtils--><ellipse cx="1307" cy="418.9531" fill="#FEFECE" filter="url(#f09hibm)" rx="8" ry="8" style="stroke: #A80036; stroke-width: 2.0;"/><text fill="#000000" font-family="sans-serif" font-size="14" lengthAdjust="spacingAndGlyphs" textLength="29" x="1292.5" y="440.9482">Utils</text><!--entity IConfig--><ellipse cx="1043" cy="418.9531" fill="#FEFECE" filter="url(#f09hibm)" rx="8" ry="8" style="stroke: #A80036; stroke-width: 2.0;"/><text fill="#000000" font-family="sans-serif" font-size="14" lengthAdjust="spacingAndGlyphs" textLength="44" x="1021" y="440.9482">Config</text><!--entity IEvents--><ellipse cx="1124" cy="418.9531" fill="#FEFECE" filter="url(#f09hibm)" rx="8" ry="8" style="stroke: #A80036; stroke-width: 2.0;"/><text fill="#000000" font-family="sans-serif" font-size="14" lengthAdjust="spacingAndGlyphs" textLength="47" x="1100.5" y="440.9482">Events</text><!--entity IATFLogger--><ellipse cx="1220" cy="418.9531" fill="#FEFECE" filter="url(#f09hibm)" rx="8" ry="8" style="stroke: #A80036; stroke-width: 2.0;"/><text fill="#000000" font-family="sans-serif" font-size="14" lengthAdjust="spacingAndGlyphs" textLength="74" x="1183" y="440.9482">ATF logger</text><polygon fill="#FBFB77" filter="url(#f09hibm)" points="1043.5,292.9531,1043.5,333.2188,1204.5,333.2188,1204.5,302.9531,1194.5,292.9531,1043.5,292.9531" style="stroke: #A80036; stroke-width: 1.0;"/><polygon fill="#FBFB77" points="1043.5,292.9531,1043.5,333.2188,1120,333.2188,1124,409.8511,1128,333.2188,1204.5,333.2188,1204.5,302.9531,1194.5,292.9531,1043.5,292.9531" style="stroke: #A80036; stroke-width: 1.0;"/><line style="stroke: #A80036; stroke-width: 1.0;" x1="1194.5" x2="1194.5" y1="292.9531" y2="302.9531"/><line style="stroke: #A80036; stroke-width: 1.0;" x1="1204.5" x2="1194.5" y1="302.9531" y2="302.9531"/><text fill="#000000" font-family="sans-serif" font-size="13" lengthAdjust="spacingAndGlyphs" textLength="128" x="1049.5" y="310.02">Global interfaces for</text><text fill="#000000" font-family="sans-serif" font-size="13" lengthAdjust="spacingAndGlyphs" textLength="136" x="1049.5" y="325.1528">all other components</text><path d="M636.177,147.0161 C636.553,181.0171 637.426,259.9981 637.811,294.8751 " fill="none" style="stroke: #A80036; stroke-width: 1.0;"/><path d="M757.294,443.9551 C761.091,470.4351 768.647,523.1381 772.546,550.3341 " fill="none" style="stroke: #A80036; stroke-width: 1.0;"/><path d="M691,443.9551 C691,470.4351 691,523.1381 691,550.3341 " fill="none" style="stroke: #A80036; stroke-width: 1.0;"/><path d="M839.589,443.9551 C847.181,470.4351 862.293,523.1381 870.091,550.3341 " fill="none" style="stroke: #A80036; stroke-width: 1.0;"/><path d="M705.95,452.7811 C722.868,480.8771 749.979,525.9001 764.692,550.3341 " fill="none" style="stroke: #A80036; stroke-width: 1.0;"/><path d="M694.9787,450.9547 A9,9 0 0 0 709.469 442.2296" fill="none" style="stroke: #A80036; stroke-width: 1.5;"/><path d="M584.347,443.9551 C574.408,467.8591 555.586,513.1301 543.699,541.7191 " fill="none" style="stroke: #A80036; stroke-width: 1.0;"/><path d="M412.786,443.9551 C418.44,467.8591 429.149,513.1301 435.912,541.7191 " fill="none" style="stroke: #A80036; stroke-width: 1.0;"/><path d="M269.394,443.9551 C266.995,467.8591 262.452,513.1301 259.583,541.7191 " fill="none" style="stroke: #A80036; stroke-width: 1.0;"/><path d="M133.197,443.9551 C131.868,470.4351 129.224,523.1381 127.859,550.3341 " fill="none" style="stroke: #A80036; stroke-width: 1.0;"/><path d="M1307,443.9551 C1307,470.4351 1307,523.1381 1307,550.3341 " fill="none" style="stroke: #A80036; stroke-width: 1.0;"/><path d="M1304.04,586.6031 C1300.03,609.7601 1292.94,650.7791 1288.95,673.8901 " fill="none" style="stroke: #A80036; stroke-width: 1.0;"/><path d="M1220,443.9551 C1220,470.4351 1220,523.1381 1220,550.3341 " fill="none" style="stroke: #A80036; stroke-width: 1.0;"/><path d="M1124,443.9551 C1124,470.4351 1124,523.1381 1124,550.3341 " fill="none" style="stroke: #A80036; stroke-width: 1.0;"/><path d="M1043,443.9551 C1043,470.4351 1043,523.1381 1043,550.3341 " fill="none" style="stroke: #A80036; stroke-width: 1.0;"/><path d="M751.057,111.8101 C740.916,78.1161 715.717,11.1881 680.5,32.9531 C656.309,47.9041 645.129,79.7981 640.055,102.9421 " fill="none" style="stroke: #A80036; stroke-width: 1.0;"/><path d="M647.0169,111.4582 A9,9 0 0 0 630.4125 108.2345" fill="none" style="stroke: #A80036; stroke-width: 1.5;"/><path d="M756,153.1091 C756,189.6761 756,261.8891 756,294.8381 " fill="none" style="stroke: #A80036; stroke-width: 1.0; stroke-dasharray: 7.0,7.0;"/><polygon fill="#A80036" points="756,147.9811,752,156.9811,756,152.9811,760,156.9811,756,147.9811" style="stroke: #A80036; stroke-width: 1.0;"/><text fill="#000000" font-family="sans-serif" font-size="13" lengthAdjust="spacingAndGlyphs" textLength="37" x="780.5" y="209.02">starts</text><text fill="#000000" font-family="sans-serif" font-size="13" lengthAdjust="spacingAndGlyphs" textLength="84" x="761" y="224.1528">user script(s)</text><path d="M646.05,330.9631 C654.839,349.5371 669.004,379.4701 679.082,400.7681 " fill="none" style="stroke: #A80036; stroke-width: 1.0;"/><path d="M689.7184,403.4739 A9,9 0 0 0 674.4299 410.7098" fill="none" style="stroke: #A80036; stroke-width: 1.5;"/><path d="M655.77,330.9631 C675.784,350.1231 708.426,381.3691 730.768,402.7571 " fill="none" style="stroke: #A80036; stroke-width: 1.0;"/><path d="M741.8278,401.6359 A9,9 0 0 0 730.1326 413.8556" fill="none" style="stroke: #A80036; stroke-width: 1.5;"/><path d="M657.809,330.9881 C672.443,343.0681 693.182,359.1621 713,370.9531 C727.774,379.7431 766.235,396.7491 796.06,409.5351 " fill="none" style="stroke: #A80036; stroke-width: 1.0;"/><path d="M805.8892,404.5365 A9,9 0 0 0 799.247 420.0922" fill="none" style="stroke: #A80036; stroke-width: 1.5;"/><path d="M630.862,330.9631 C623.103,349.4531 610.619,379.2011 601.69,400.4801 " fill="none" style="stroke: #A80036; stroke-width: 1.0;"/><path d="M606.7365,410.3085 A9,9 0 0 0 591.1399 403.763" fill="none" style="stroke: #A80036; stroke-width: 1.5;"/><path d="M621.307,331.2031 C607.669,344.2241 587.237,361.4241 566,370.9531 C477.547,410.6421 444.427,391.8731 345.913,409.6871 " fill="none" style="stroke: #A80036; stroke-width: 1.0;"/><path d="M340.4465,419.3293 A9,9 0 0 0 337.3005 402.7099" fill="none" style="stroke: #A80036; stroke-width: 1.5;"/><path d="M622.032,331.0641 C608.495,344.3741 587.844,362.0311 566,370.9531 C490.074,401.9641 279.782,395.7861 199,409.9531 C198.785,409.9911 198.57,410.0291 198.355,410.0671 " fill="none" style="stroke: #A80036; stroke-width: 1.0;"/><path d="M193.1265,419.6901 A9,9 0 0 0 189.9223 403.0819" fill="none" style="stroke: #A80036; stroke-width: 1.5;"/><path d="M384.01,450.8881 C356.802,475.8591 313.392,515.6991 285.04,541.7191 " fill="none" style="stroke: #A80036; stroke-width: 1.0;"/><path d="M383.578,439.8049 A9,9 0 0 0 395.0139 452.2677" fill="none" style="stroke: #A80036; stroke-width: 1.5;"/></g></svg>