<?xml version="1.0" encoding="UTF-8" standalone="no"?><svg xmlns="http://www.w3.org/2000/svg" xmlns:xlink="http://www.w3.org/1999/xlink" contentScriptType="application/ecmascript" contentStyleType="text/css" height="625px" preserveAspectRatio="none" style="width:842px;height:625px;" version="1.1" viewBox="0 0 842 625" width="842px" zoomAndPan="magnify"><defs><filter height="300%" id="f13q4ei" width="300%" x="-1" y="-1"><feGaussianBlur result="blurOut" stdDeviation="2.0"/><feColorMatrix in="blurOut" result="blurOut2" type="matrix" values="0 0 0 0 0 0 0 0 0 0 0 0 0 0 0 0 0 0 .4 0"/><feOffset dx="4.0" dy="4.0" in="blurOut2" result="blurOut3"/><feBlend in="SourceGraphic" in2="blurOut3" mode="normal"/></filter></defs><g><!--cluster ATF machine--><polygon fill="#FFFFFF" filter="url(#f13q4ei)" points="22,79,32,69,517,69,517,610,507,620,22,620,22,79" style="stroke: #000000; stroke-width: 2.0;"/><line style="stroke: #000000; stroke-width: 2.0;" x1="507" x2="516" y1="79" y2="70"/><line style="stroke: #000000; stroke-width: 2.0;" x1="22" x2="507" y1="79" y2="79"/><line style="stroke: #000000; stroke-width: 2.0;" x1="507" x2="507" y1="79" y2="620"/><text fill="#000000" font-family="sans-serif" font-size="14" font-weight="bold" lengthAdjust="spacingAndGlyphs" textLength="101" x="215" y="94.9951">ATF machine</text><!--cluster atf_dir--><polygon fill="#FFFFFF" filter="url(#f13q4ei)" points="261,117,375,117,382,139.2969,493,139.2969,493,596,261,596,261,117" style="stroke: #000000; stroke-width: 2.0;"/><line style="stroke: #000000; stroke-width: 2.0;" x1="261" x2="382" y1="139.2969" y2="139.2969"/><text fill="#000000" font-family="sans-serif" font-size="14" font-weight="bold" lengthAdjust="spacingAndGlyphs" textLength="108" x="265" y="131.9951">ATF Directory</text><!--cluster user_scripts_dir--><polygon fill="#FFFFFF" filter="url(#f13q4ei)" points="46,117,227,117,234,139.2969,237,139.2969,237,538.5,46,538.5,46,117" style="stroke: #000000; stroke-width: 2.0;"/><line style="stroke: #000000; stroke-width: 2.0;" x1="46" x2="234" y1="139.2969" y2="139.2969"/><text fill="#000000" font-family="sans-serif" font-size="14" font-weight="bold" lengthAdjust="spacingAndGlyphs" textLength="175" x="50" y="131.9951">User Scripts Directory</text><!--cluster SDL machine--><polygon fill="#FFFFFF" filter="url(#f13q4ei)" points="541,34,551,24,837,24,837,393,827,403,541,403,541,34" style="stroke: #000000; stroke-width: 2.0;"/><line style="stroke: #000000; stroke-width: 2.0;" x1="827" x2="836" y1="34" y2="25"/><line style="stroke: #000000; stroke-width: 2.0;" x1="541" x2="827" y1="34" y2="34"/><line style="stroke: #000000; stroke-width: 2.0;" x1="827" x2="827" y1="34" y2="403"/><text fill="#000000" font-family="sans-serif" font-size="14" font-weight="bold" lengthAdjust="spacingAndGlyphs" textLength="101" x="634.5" y="49.9951">SDL machine</text><!--cluster sdl_core_dir--><polygon fill="#FFFFFF" filter="url(#f13q4ei)" points="565,72,722,72,729,94.2969,813,94.2969,813,379,565,379,565,72" style="stroke: #000000; stroke-width: 2.0;"/><line style="stroke: #000000; stroke-width: 2.0;" x1="565" x2="729" y1="94.2969" y2="94.2969"/><text fill="#000000" font-family="sans-serif" font-size="14" font-weight="bold" lengthAdjust="spacingAndGlyphs" textLength="151" x="569" y="86.9951">SDL Core Directory</text><!--entity ATF--><rect fill="#FEFECE" filter="url(#f13q4ei)" height="160.7813" style="stroke: #000000; stroke-width: 1.5;" width="193" x="280.5" y="419"/><polygon fill="#FEFECE" points="456.5,424,456.5,438,468.5,438,468.5,430,462.5,424,456.5,424" style="stroke: #000000; stroke-width: 1.5;"/><line style="stroke: #000000; stroke-width: 1.5;" x1="462.5" x2="462.5" y1="424" y2="430"/><line style="stroke: #000000; stroke-width: 1.5;" x1="468.5" x2="462.5" y1="430" y2="430"/><text fill="#000000" font-family="sans-serif" font-size="14" font-weight="bold" lengthAdjust="spacingAndGlyphs" textLength="30" x="357" y="444.9951">ATF</text><line style="stroke: #000000; stroke-width: 1.0;" x1="281.5" x2="472.5" y1="448.2969" y2="448.2969"/><line style="stroke: #000000; stroke-width: 1.0;" x1="281.5" x2="472.5" y1="450.2969" y2="450.2969"/><text fill="#000000" font-family="sans-serif" font-size="14" lengthAdjust="spacingAndGlyphs" textLength="104" x="320" y="465.292">ATF Start script</text><line style="stroke: #000000; stroke-width: 1.0; stroke-dasharray: 1.0,2.0;" x1="281.5" x2="472.5" y1="472.5938" y2="472.5938"/><text fill="#000000" font-family="sans-serif" font-size="14" lengthAdjust="spacingAndGlyphs" textLength="101" x="321.5" y="489.5889">ATF C++ Core</text><line style="stroke: #000000; stroke-width: 1.0; stroke-dasharray: 1.0,2.0;" x1="281.5" x2="472.5" y1="496.8906" y2="496.8906"/><text fill="#000000" font-family="sans-serif" font-size="14" lengthAdjust="spacingAndGlyphs" textLength="117" x="313.5" y="513.8857">ATF Lua Modules</text><line style="stroke: #000000; stroke-width: 1.0; stroke-dasharray: 1.0,2.0;" x1="281.5" x2="472.5" y1="521.1875" y2="521.1875"/><text fill="#000000" font-family="sans-serif" font-size="14" lengthAdjust="spacingAndGlyphs" textLength="133" x="305.5" y="538.1826">ATF Lua 3rd-parties</text><line style="stroke: #000000; stroke-width: 1.0; stroke-dasharray: 1.0,2.0;" x1="281.5" x2="472.5" y1="545.4844" y2="545.4844"/><text fill="#000000" font-family="sans-serif" font-size="14" lengthAdjust="spacingAndGlyphs" textLength="151" x="296.5" y="562.4795">ATF Binary 3rd-parties</text><!--entity atf_conf--><rect fill="#FEFECE" filter="url(#f13q4ei)" height="46.2969" style="stroke: #A80036; stroke-width: 1.5;" width="137" x="308.5" y="284"/><rect fill="#FEFECE" height="10" style="stroke: #A80036; stroke-width: 1.5;" width="15" x="425.5" y="289"/><rect fill="#FEFECE" height="2" style="stroke: #A80036; stroke-width: 1.5;" width="4" x="423.5" y="291"/><rect fill="#FEFECE" height="2" style="stroke: #A80036; stroke-width: 1.5;" width="4" x="423.5" y="295"/><text fill="#000000" font-family="sans-serif" font-size="14" lengthAdjust="spacingAndGlyphs" textLength="97" x="323.5" y="316.9951">ATF Config file</text><!--entity sdl_api--><rect fill="#FEFECE" filter="url(#f13q4ei)" height="46.2969" style="stroke: #A80036; stroke-width: 1.5;" width="200" x="277" y="152"/><rect fill="#FEFECE" height="10" style="stroke: #A80036; stroke-width: 1.5;" width="15" x="457" y="157"/><rect fill="#FEFECE" height="2" style="stroke: #A80036; stroke-width: 1.5;" width="4" x="455" y="159"/><rect fill="#FEFECE" height="2" style="stroke: #A80036; stroke-width: 1.5;" width="4" x="455" y="163"/><text fill="#000000" font-family="sans-serif" font-size="14" lengthAdjust="spacingAndGlyphs" textLength="160" x="292" y="184.9951">SDL Mobile and HMI API</text><!--entity user_script--><rect fill="#FEFECE" filter="url(#f13q4ei)" height="46.2969" style="stroke: #A80036; stroke-width: 1.5;" width="115" x="83.5" y="152"/><rect fill="#FEFECE" height="10" style="stroke: #A80036; stroke-width: 1.5;" width="15" x="178.5" y="157"/><rect fill="#FEFECE" height="2" style="stroke: #A80036; stroke-width: 1.5;" width="4" x="176.5" y="159"/><rect fill="#FEFECE" height="2" style="stroke: #A80036; stroke-width: 1.5;" width="4" x="176.5" y="163"/><text fill="#000000" font-family="sans-serif" font-size="14" lengthAdjust="spacingAndGlyphs" textLength="75" x="98.5" y="184.9951">User Script</text><!--entity user_common_script--><rect fill="#FEFECE" filter="url(#f13q4ei)" height="62.5938" style="stroke: #A80036; stroke-width: 1.5;" width="139" x="71.5" y="275.5"/><rect fill="#FEFECE" height="10" style="stroke: #A80036; stroke-width: 1.5;" width="15" x="190.5" y="280.5"/><rect fill="#FEFECE" height="2" style="stroke: #A80036; stroke-width: 1.5;" width="4" x="188.5" y="282.5"/><rect fill="#FEFECE" height="2" style="stroke: #A80036; stroke-width: 1.5;" width="4" x="188.5" y="286.5"/><text fill="#000000" font-family="sans-serif" font-size="14" lengthAdjust="spacingAndGlyphs" textLength="99" x="86.5" y="308.4951">User Common</text><text fill="#000000" font-family="sans-serif" font-size="14" lengthAdjust="spacingAndGlyphs" textLength="64" x="104" y="324.792">functions</text><!--entity media_data--><rect fill="#FEFECE" filter="url(#f13q4ei)" height="46.2969" style="stroke: #A80036; stroke-width: 1.5;" width="117" x="82.5" y="476.5"/><rect fill="#FEFECE" height="10" style="stroke: #A80036; stroke-width: 1.5;" width="15" x="179.5" y="481.5"/><rect fill="#FEFECE" height="2" style="stroke: #A80036; stroke-width: 1.5;" width="4" x="177.5" y="483.5"/><rect fill="#FEFECE" height="2" style="stroke: #A80036; stroke-width: 1.5;" width="4" x="177.5" y="487.5"/><text fill="#000000" font-family="sans-serif" font-size="14" lengthAdjust="spacingAndGlyphs" textLength="77" x="97.5" y="509.4951">Media Data</text><!--entity sdl_core--><rect fill="#FEFECE" filter="url(#f13q4ei)" height="136.4844" style="stroke: #000000; stroke-width: 1.5;" width="216" x="581" y="107"/><polygon fill="#FEFECE" points="780,112,780,126,792,126,792,118,786,112,780,112" style="stroke: #000000; stroke-width: 1.5;"/><line style="stroke: #000000; stroke-width: 1.5;" x1="786" x2="786" y1="112" y2="118"/><line style="stroke: #000000; stroke-width: 1.5;" x1="792" x2="786" y1="118" y2="118"/><text fill="#000000" font-family="sans-serif" font-size="14" font-weight="bold" lengthAdjust="spacingAndGlyphs" textLength="73" x="647.5" y="132.9951">SDL Core</text><line style="stroke: #000000; stroke-width: 1.0;" x1="582" x2="796" y1="136.2969" y2="136.2969"/><line style="stroke: #000000; stroke-width: 1.0;" x1="582" x2="796" y1="138.2969" y2="138.2969"/><text fill="#000000" font-family="sans-serif" font-size="14" lengthAdjust="spacingAndGlyphs" textLength="109" x="629.5" y="153.292">SDL Core binary</text><line style="stroke: #000000; stroke-width: 1.0; stroke-dasharray: 1.0,2.0;" x1="582" x2="796" y1="160.5938" y2="160.5938"/><text fill="#000000" font-family="sans-serif" font-size="14" lengthAdjust="spacingAndGlyphs" textLength="151" x="608.5" y="177.5889">SDL Core Policy library</text><line style="stroke: #000000; stroke-width: 1.0; stroke-dasharray: 1.0,2.0;" x1="582" x2="796" y1="184.8906" y2="184.8906"/><text fill="#000000" font-family="sans-serif" font-size="14" lengthAdjust="spacingAndGlyphs" textLength="174" x="597" y="201.8857">SDL Core Utilities libraries</text><line style="stroke: #000000; stroke-width: 1.0; stroke-dasharray: 1.0,2.0;" x1="582" x2="796" y1="209.1875" y2="209.1875"/><text fill="#000000" font-family="sans-serif" font-size="14" lengthAdjust="spacingAndGlyphs" textLength="143" x="612.5" y="226.1826">SDL Core 3rd-parties</text><!--entity sdl_configs--><rect fill="#FEFECE" filter="url(#f13q4ei)" height="112.1875" style="stroke: #000000; stroke-width: 1.5;" width="186" x="596" y="251"/><polygon fill="#FEFECE" points="765,256,765,270,777,270,777,262,771,256,765,256" style="stroke: #000000; stroke-width: 1.5;"/><line style="stroke: #000000; stroke-width: 1.5;" x1="771" x2="771" y1="256" y2="262"/><line style="stroke: #000000; stroke-width: 1.5;" x1="777" x2="771" y1="262" y2="262"/><text fill="#000000" font-family="sans-serif" font-size="14" font-weight="bold" lengthAdjust="spacingAndGlyphs" textLength="140" x="614" y="276.9951">SDL configuration</text><line style="stroke: #000000; stroke-width: 1.0;" x1="597" x2="781" y1="280.2969" y2="280.2969"/><line style="stroke: #000000; stroke-width: 1.0;" x1="597" x2="781" y1="282.2969" y2="282.2969"/><text fill="#000000" font-family="sans-serif" font-size="14" lengthAdjust="spacingAndGlyphs" textLength="132" x="618" y="297.292">smartDeviceLink.ini</text><line style="stroke: #000000; stroke-width: 1.0; stroke-dasharray: 1.0,2.0;" x1="597" x2="781" y1="304.5938" y2="304.5938"/><text fill="#000000" font-family="sans-serif" font-size="14" lengthAdjust="spacingAndGlyphs" textLength="144" x="612" y="321.5889">Policy preloaded files</text><line style="stroke: #000000; stroke-width: 1.0; stroke-dasharray: 1.0,2.0;" x1="597" x2="781" y1="328.8906" y2="328.8906"/><text fill="#000000" font-family="sans-serif" font-size="14" font-style="italic" lengthAdjust="spacingAndGlyphs" textLength="37" x="667.5" y="345.8857">other</text></g></svg>