<?xml version="1.0" encoding="UTF-8" standalone="no"?><svg xmlns="http://www.w3.org/2000/svg" xmlns:xlink="http://www.w3.org/1999/xlink" contentScriptType="application/ecmascript" contentStyleType="text/css" height="417px" preserveAspectRatio="none" style="width:614px;height:417px;" version="1.1" viewBox="0 0 614 417" width="614px" zoomAndPan="magnify"><defs/><g><text fill="#000000" font-family="sans-serif" font-size="18" lengthAdjust="spacingAndGlyphs" textLength="85" x="285" y="16.708">Data flow</text><!--cluster mob_data--><rect fill="#FFFFFF" height="207" style="stroke: #000000; stroke-width: 2.0;" width="583" x="30" y="209.9531"/><text fill="#000000" font-family="sans-serif" font-size="14" font-weight="bold" lengthAdjust="spacingAndGlyphs" textLength="90" x="276.5" y="224.9482">Mobile flow</text><!--cluster hmi_data--><rect fill="#FFFFFF" height="117" style="stroke: #000000; stroke-width: 2.0;" width="432" x="30" y="52.9531"/><text fill="#000000" font-family="sans-serif" font-size="14" font-weight="bold" lengthAdjust="spacingAndGlyphs" textLength="67" x="212.5" y="67.9482">HMI flow</text><ellipse cx="104.9299" cy="368.1112" fill="#FFFFFF" rx="42.4299" ry="25.1581" style="stroke: #000000; stroke-width: 1.5;"/><text fill="#000000" font-family="sans-serif" font-size="14" lengthAdjust="spacingAndGlyphs" textLength="48" x="80.9299" y="363.3274">Socket</text><text fill="#000000" font-family="sans-serif" font-size="14" lengthAdjust="spacingAndGlyphs" textLength="58" x="75.9299" y="379.6243">raw data</text><ellipse cx="190.1001" cy="267.8732" fill="#FFFFFF" rx="62.6001" ry="14.92" style="stroke: #000000; stroke-width: 1.5;"/><text fill="#000000" font-family="sans-serif" font-size="14" lengthAdjust="spacingAndGlyphs" textLength="87" x="146.6001" y="272.5216">Cached data</text><ellipse cx="244.8494" cy="367.9794" fill="#FFFFFF" rx="62.3494" ry="24.0263" style="stroke: #000000; stroke-width: 1.5;"/><text fill="#000000" font-family="sans-serif" font-size="14" lengthAdjust="spacingAndGlyphs" textLength="92" x="198.8494" y="367.4903">Ford protocol</text><text fill="#000000" font-family="sans-serif" font-size="14" lengthAdjust="spacingAndGlyphs" textLength="47" x="221.3494" y="383.7872">packet</text><ellipse cx="390.0477" cy="367.9768" fill="#FFFFFF" rx="47.5477" ry="14.5236" style="stroke: #000000; stroke-width: 1.5;"/><text fill="#000000" font-family="sans-serif" font-size="14" lengthAdjust="spacingAndGlyphs" textLength="63" x="358.5477" y="372.6252">Json data</text><ellipse cx="531.1543" cy="367.9768" fill="#FFFFFF" rx="58.1543" ry="14.5236" style="stroke: #000000; stroke-width: 1.5;"/><text fill="#000000" font-family="sans-serif" font-size="14" lengthAdjust="spacingAndGlyphs" textLength="78" x="492.1543" y="372.6252">Mobile RPC</text><ellipse cx="129.2409" cy="120.7129" fill="#FFFFFF" rx="55.7409" ry="24.7598" style="stroke: #000000; stroke-width: 1.5;"/><text fill="#000000" font-family="sans-serif" font-size="14" lengthAdjust="spacingAndGlyphs" textLength="79" x="89.7409" y="119.091">WebSocket</text><text fill="#000000" font-family="sans-serif" font-size="14" lengthAdjust="spacingAndGlyphs" textLength="58" x="100.2409" y="135.3879">raw data</text><ellipse cx="267.0477" cy="120.9768" fill="#FFFFFF" rx="47.5477" ry="14.5236" style="stroke: #000000; stroke-width: 1.5;"/><text fill="#000000" font-family="sans-serif" font-size="14" lengthAdjust="spacingAndGlyphs" textLength="63" x="235.5477" y="125.6252">Json data</text><ellipse cx="394.0122" cy="120.9768" fill="#FFFFFF" rx="44.0122" ry="14.5236" style="stroke: #000000; stroke-width: 1.5;"/><text fill="#000000" font-family="sans-serif" font-size="14" lengthAdjust="spacingAndGlyphs" textLength="58" x="365.0122" y="125.6252">HMI RPC</text><path d="M147.656,367.9531 C157.478,367.9531 167.3,367.9531 177.123,367.9531 " fill="none" style="stroke: #0000FF; stroke-width: 1.0;"/><polygon fill="#0000FF" points="182.259,367.9531,173.259,363.9531,177.259,367.9531,173.259,371.9531,182.259,367.9531" style="stroke: #0000FF; stroke-width: 1.0;"/><path d="M200.548,287.7481 C209.585,303.8511 222.628,327.0901 232.249,344.2332 " fill="none" style="stroke: #0000FF; stroke-width: 1.0;"/><polygon fill="#0000FF" points="197.88,282.9941,198.7969,292.8002,200.3272,287.3543,205.7732,288.8846,197.88,282.9941" style="stroke: #0000FF; stroke-width: 1.0;"/><path d="M177.822,282.9941 C164.677,298.1491 143.458,322.6131 127.308,341.2338 " fill="none" style="stroke: #0000FF; stroke-width: 1.0;"/><polygon fill="#0000FF" points="123.736,345.3518,132.6547,341.1737,127.0121,341.5746,126.6111,335.932,123.736,345.3518" style="stroke: #0000FF; stroke-width: 1.0;"/><path d="M312.749,367.9531 C320.921,367.9531 329.094,367.9531 337.267,367.9531 " fill="none" style="stroke: #0000FF; stroke-width: 1.0;"/><polygon fill="#0000FF" points="342.355,367.9531,333.355,363.9531,337.355,367.9531,333.355,371.9531,342.355,367.9531" style="stroke: #0000FF; stroke-width: 1.0;"/><polygon fill="#0000FF" points="307.588,367.9531,316.588,371.9531,312.588,367.9531,316.588,363.9531,307.588,367.9531" style="stroke: #0000FF; stroke-width: 1.0;"/><path d="M442.839,367.9531 C451.069,367.9531 459.298,367.9531 467.528,367.9531 " fill="none" style="stroke: #0000FF; stroke-width: 1.0;"/><polygon fill="#0000FF" points="472.652,367.9531,463.652,363.9531,467.652,367.9531,463.652,371.9531,472.652,367.9531" style="stroke: #0000FF; stroke-width: 1.0;"/><polygon fill="#0000FF" points="437.643,367.9531,446.643,371.9531,442.643,367.9531,446.643,363.9531,437.643,367.9531" style="stroke: #0000FF; stroke-width: 1.0;"/><path d="M189.688,120.9531 C197.867,120.9531 206.046,120.9531 214.226,120.9531 " fill="none" style="stroke: #0000FF; stroke-width: 1.0;"/><polygon fill="#0000FF" points="219.318,120.9531,210.318,116.9531,214.318,120.9531,210.318,124.9531,219.318,120.9531" style="stroke: #0000FF; stroke-width: 1.0;"/><polygon fill="#0000FF" points="184.523,120.9531,193.523,124.9531,189.523,120.9531,193.523,116.9531,184.523,120.9531" style="stroke: #0000FF; stroke-width: 1.0;"/><path d="M319.872,120.9531 C328.181,120.9531 336.489,120.9531 344.798,120.9531 " fill="none" style="stroke: #0000FF; stroke-width: 1.0;"/><polygon fill="#0000FF" points="349.972,120.9531,340.972,116.9531,344.972,120.9531,340.972,124.9531,349.972,120.9531" style="stroke: #0000FF; stroke-width: 1.0;"/><polygon fill="#0000FF" points="314.625,120.9531,323.625,124.9531,319.625,120.9531,323.625,116.9531,314.625,120.9531" style="stroke: #0000FF; stroke-width: 1.0;"/></g></svg>