<?xml version="1.0" encoding="UTF-8" standalone="no"?><svg xmlns="http://www.w3.org/2000/svg" xmlns:xlink="http://www.w3.org/1999/xlink" contentScriptType="application/ecmascript" contentStyleType="text/css" height="1028px" preserveAspectRatio="none" style="width:892px;height:1028px;" version="1.1" viewBox="0 0 892 1028" width="892px" zoomAndPan="magnify"><defs><filter height="300%" id="ficpgjk" width="300%" x="-1" y="-1"><feGaussianBlur result="blurOut" stdDeviation="2.0"/><feColorMatrix in="blurOut" result="blurOut2" type="matrix" values="0 0 0 0 0 0 0 0 0 0 0 0 0 0 0 0 0 0 .4 0"/><feOffset dx="4.0" dy="4.0" in="blurOut2" result="blurOut3"/><feBlend in="SourceGraphic" in2="blurOut3" mode="normal"/></filter></defs><g><text fill="#000000" font-family="sans-serif" font-size="16" font-weight="bold" lengthAdjust="spacingAndGlyphs" textLength="284" x="304.25" y="24.8516">User Scripts Execution with ATF</text><rect fill="#FFFFFF" filter="url(#ficpgjk)" height="453" style="stroke: #000000; stroke-width: 2.0;" width="601.5" x="216" y="254.9141"/><rect fill="#FFFFFF" filter="url(#ficpgjk)" height="123.125" style="stroke: #000000; stroke-width: 2.0;" width="304.5" x="503" y="383.0391"/><rect fill="#FFFFFF" height="180.75" style="stroke: none; stroke-width: 1.0;" width="601.5" x="216" y="527.1641"/><rect fill="#FFFFFF" filter="url(#ficpgjk)" height="123.125" style="stroke: #000000; stroke-width: 2.0;" width="591.5" x="216" y="767.5391"/><line style="stroke: #000000; stroke-width: 1.0; stroke-dasharray: 5.0,5.0;" x1="30" x2="30" y1="122.4141" y2="940.2891"/><line style="stroke: #000000; stroke-width: 1.0; stroke-dasharray: 5.0,5.0;" x1="277" x2="277" y1="122.4141" y2="940.2891"/><line style="stroke: #000000; stroke-width: 1.0; stroke-dasharray: 5.0,5.0;" x1="552" x2="552" y1="122.4141" y2="940.2891"/><line style="stroke: #000000; stroke-width: 1.0; stroke-dasharray: 5.0,5.0;" x1="742.5" x2="742.5" y1="122.4141" y2="940.2891"/><text fill="#0000FF" font-family="Blue" font-size="17" lengthAdjust="spacingAndGlyphs" textLength="38" x="8" y="118.4048">User</text><ellipse cx="30" cy="45.625" fill="#FFFFFF" filter="url(#ficpgjk)" rx="8" ry="8" style="stroke: #000000; stroke-width: 2.0;"/><path d="M30,53.625 L30,80.625 M17,61.625 L43,61.625 M30,80.625 L17,95.625 M30,80.625 L43,95.625 " fill="#FFFFFF" filter="url(#ficpgjk)" style="stroke: #000000; stroke-width: 2.0;"/><text fill="#0000FF" font-family="Blue" font-size="17" lengthAdjust="spacingAndGlyphs" textLength="38" x="8" y="955.0688">User</text><ellipse cx="30" cy="969.0781" fill="#FFFFFF" filter="url(#ficpgjk)" rx="8" ry="8" style="stroke: #000000; stroke-width: 2.0;"/><path d="M30,977.0781 L30,1004.0781 M17,985.0781 L43,985.0781 M30,1004.0781 L17,1019.0781 M30,1004.0781 L43,1019.0781 " fill="#FFFFFF" filter="url(#ficpgjk)" style="stroke: #000000; stroke-width: 2.0;"/><rect fill="#FFFFFF" filter="url(#ficpgjk)" height="33.7891" style="stroke: #000000; stroke-width: 1.5;" width="98" x="226" y="83.625"/><text fill="#000000" font-family="sans-serif" font-size="17" lengthAdjust="spacingAndGlyphs" textLength="84" x="233" y="106.4048">C++ Core</text><rect fill="#FFFFFF" filter="url(#ficpgjk)" height="33.7891" style="stroke: #000000; stroke-width: 1.5;" width="98" x="226" y="939.2891"/><text fill="#000000" font-family="sans-serif" font-size="17" lengthAdjust="spacingAndGlyphs" textLength="84" x="233" y="962.0688">C++ Core</text><rect fill="#FFFFFF" filter="url(#ficpgjk)" height="33.7891" style="stroke: #000000; stroke-width: 1.5;" width="74" x="513" y="83.625"/><text fill="#000000" font-family="sans-serif" font-size="17" lengthAdjust="spacingAndGlyphs" textLength="60" x="520" y="106.4048">Launch</text><rect fill="#FFFFFF" filter="url(#ficpgjk)" height="33.7891" style="stroke: #000000; stroke-width: 1.5;" width="74" x="513" y="939.2891"/><text fill="#000000" font-family="sans-serif" font-size="17" lengthAdjust="spacingAndGlyphs" textLength="60" x="520" y="962.0688">Launch</text><rect fill="#FFFFFF" filter="url(#ficpgjk)" height="33.7891" style="stroke: #000000; stroke-width: 1.5;" width="105" x="688.5" y="83.625"/><text fill="#000000" font-family="sans-serif" font-size="17" lengthAdjust="spacingAndGlyphs" textLength="91" x="695.5" y="106.4048">User Script</text><rect fill="#FFFFFF" filter="url(#ficpgjk)" height="33.7891" style="stroke: #000000; stroke-width: 1.5;" width="105" x="688.5" y="939.2891"/><text fill="#000000" font-family="sans-serif" font-size="17" lengthAdjust="spacingAndGlyphs" textLength="91" x="695.5" y="962.0688">User Script</text><polygon fill="#0000FF" points="265,171.4141,275,175.4141,265,179.4141,269,175.4141" style="stroke: #0000FF; stroke-width: 1.0;"/><line style="stroke: #0000FF; stroke-width: 1.0;" x1="30" x2="271" y1="175.4141" y2="175.4141"/><text fill="#2027E8" font-family="sans-serif" font-size="16" font-weight="bold" lengthAdjust="spacingAndGlyphs" textLength="161" x="37" y="151.2656">Start with a list of</text><text fill="#2027E8" font-family="sans-serif" font-size="16" font-weight="bold" lengthAdjust="spacingAndGlyphs" textLength="223" x="37" y="169.8906">command line arguments</text><line style="stroke: #0000FF; stroke-width: 1.0;" x1="277" x2="319" y1="226.9141" y2="226.9141"/><line style="stroke: #0000FF; stroke-width: 1.0;" x1="319" x2="319" y1="226.9141" y2="239.9141"/><line style="stroke: #0000FF; stroke-width: 1.0;" x1="278" x2="319" y1="239.9141" y2="239.9141"/><polygon fill="#0000FF" points="288,235.9141,278,239.9141,288,243.9141,284,239.9141" style="stroke: #0000FF; stroke-width: 1.0;"/><text fill="#2027E8" font-family="sans-serif" font-size="16" font-weight="bold" lengthAdjust="spacingAndGlyphs" textLength="114" x="284" y="202.5156">Execute first</text><text fill="#2027E8" font-family="sans-serif" font-size="16" font-weight="bold" lengthAdjust="spacingAndGlyphs" textLength="185" x="284" y="221.1406">argument as a script</text><rect fill="none" height="453" style="stroke: #000000; stroke-width: 2.0;" width="601.5" x="216" y="254.9141"/><polygon fill="#EEEEEE" points="216,254.9141,283,254.9141,283,264.9141,273,274.9141,216,274.9141,216,254.9141" style="stroke: #000000; stroke-width: 2.0;"/><text fill="#000000" font-family="sans-serif" font-size="16" font-weight="bold" lengthAdjust="spacingAndGlyphs" textLength="22" x="231" y="270.7656">alt</text><text fill="#000000" font-family="sans-serif" font-size="16" font-weight="bold" lengthAdjust="spacingAndGlyphs" textLength="235" x="298" y="271.7656">[First argument is Launch]</text><polygon fill="#0000FF" points="540,299.1641,550,303.1641,540,307.1641,544,303.1641" style="stroke: #0000FF; stroke-width: 1.0;"/><line style="stroke: #0000FF; stroke-width: 1.0;" x1="277" x2="546" y1="303.1641" y2="303.1641"/><text fill="#2027E8" font-family="sans-serif" font-size="16" font-weight="bold" lengthAdjust="spacingAndGlyphs" textLength="198" x="284" y="298.0156">Execute Launch Script</text><line style="stroke: #0000FF; stroke-width: 1.0;" x1="552" x2="594" y1="355.0391" y2="355.0391"/><line style="stroke: #0000FF; stroke-width: 1.0;" x1="594" x2="594" y1="355.0391" y2="368.0391"/><line style="stroke: #0000FF; stroke-width: 1.0;" x1="553" x2="594" y1="368.0391" y2="368.0391"/><polygon fill="#0000FF" points="563,364.0391,553,368.0391,563,372.0391,559,368.0391" style="stroke: #0000FF; stroke-width: 1.0;"/><text fill="#2027E8" font-family="sans-serif" font-size="16" font-weight="bold" lengthAdjust="spacingAndGlyphs" textLength="142" x="559" y="330.6406">Parse command</text><text fill="#2027E8" font-family="sans-serif" font-size="16" font-weight="bold" lengthAdjust="spacingAndGlyphs" textLength="132" x="559" y="349.2656">line arguments</text><rect fill="none" height="123.125" style="stroke: #000000; stroke-width: 2.0;" width="304.5" x="503" y="383.0391"/><polygon fill="#EEEEEE" points="503,383.0391,585,383.0391,585,393.0391,575,403.0391,503,403.0391,503,383.0391" style="stroke: #000000; stroke-width: 2.0;"/><text fill="#000000" font-family="sans-serif" font-size="16" font-weight="bold" lengthAdjust="spacingAndGlyphs" textLength="37" x="518" y="398.8906">loop</text><text fill="#000000" font-family="sans-serif" font-size="16" font-weight="bold" lengthAdjust="spacingAndGlyphs" textLength="195" x="600" y="399.8906">[For each User script]</text><polygon fill="#0000FF" points="731,427.2891,741,431.2891,731,435.2891,735,431.2891" style="stroke: #0000FF; stroke-width: 1.0;"/><line style="stroke: #0000FF; stroke-width: 1.0;" x1="552" x2="737" y1="431.2891" y2="431.2891"/><text fill="#2027E8" font-family="sans-serif" font-size="16" font-weight="bold" lengthAdjust="spacingAndGlyphs" textLength="167" x="559" y="426.1406">User Script loading</text><rect fill="#FFFFFF" filter="url(#ficpgjk)" height="47.25" style="stroke: #000000; stroke-width: 2.0;" width="155" x="685.5" y="439.9141"/><polygon fill="#EEEEEE" points="685.5,439.9141,756.5,439.9141,756.5,449.9141,746.5,459.9141,685.5,459.9141,685.5,439.9141" style="stroke: #000000; stroke-width: 2.0;"/><text fill="#000000" font-family="sans-serif" font-size="16" font-weight="bold" lengthAdjust="spacingAndGlyphs" textLength="26" x="698.5" y="456.7656">ref</text><text fill="#000000" font-family="sans-serif" font-size="16" lengthAdjust="spacingAndGlyphs" textLength="147" x="691.5" y="478.7656">User Script loading</text><polygon fill="#0000FF" points="563,494.1641,553,498.1641,563,502.1641,559,498.1641" style="stroke: #0000FF; stroke-width: 1.0;"/><line style="stroke: #0000FF; stroke-width: 1.0;" x1="557" x2="742" y1="498.1641" y2="498.1641"/><polygon fill="#0000FF" points="288,515.1641,278,519.1641,288,523.1641,284,519.1641" style="stroke: #0000FF; stroke-width: 1.0;"/><line style="stroke: #0000FF; stroke-width: 1.0;" x1="282" x2="551" y1="519.1641" y2="519.1641"/><line style="stroke: #000000; stroke-width: 1.0; stroke-dasharray: 2.0,2.0;" x1="216" x2="817.5" y1="528.1641" y2="528.1641"/><text fill="#000000" font-family="sans-serif" font-size="16" font-weight="bold" lengthAdjust="spacingAndGlyphs" textLength="265" x="221" y="543.0156">[First argument is UserScript]</text><polygon fill="#EEEEEE" filter="url(#ficpgjk)" points="226,552.7891,226,599.7891,792,599.7891,792,562.7891,782,552.7891,226,552.7891" style="stroke: #000000; stroke-width: 1.0;"/><line style="stroke: #000000; stroke-width: 1.0;" x1="782" x2="782" y1="552.7891" y2="562.7891"/><line style="stroke: #000000; stroke-width: 1.0;" x1="792" x2="782" y1="562.7891" y2="562.7891"/><text fill="#000000" font-family="sans-serif" font-size="16" lengthAdjust="spacingAndGlyphs" textLength="244" x="372.25" y="572.6406">Legacy scenario due to parsing</text><text fill="#000000" font-family="sans-serif" font-size="16" lengthAdjust="spacingAndGlyphs" textLength="261" x="372.25" y="591.2656">command line arguments absent.</text><polygon fill="#0000FF" points="731,629.0391,741,633.0391,731,637.0391,735,633.0391" style="stroke: #0000FF; stroke-width: 1.0;"/><line style="stroke: #0000FF; stroke-width: 1.0;" x1="277" x2="737" y1="633.0391" y2="633.0391"/><text fill="#2027E8" font-family="sans-serif" font-size="16" font-weight="bold" lengthAdjust="spacingAndGlyphs" textLength="167" x="284" y="627.8906">User Script loading</text><rect fill="#FFFFFF" filter="url(#ficpgjk)" height="47.25" style="stroke: #000000; stroke-width: 2.0;" width="155" x="685.5" y="641.6641"/><polygon fill="#EEEEEE" points="685.5,641.6641,756.5,641.6641,756.5,651.6641,746.5,661.6641,685.5,661.6641,685.5,641.6641" style="stroke: #000000; stroke-width: 2.0;"/><text fill="#000000" font-family="sans-serif" font-size="16" font-weight="bold" lengthAdjust="spacingAndGlyphs" textLength="26" x="698.5" y="658.5156">ref</text><text fill="#000000" font-family="sans-serif" font-size="16" lengthAdjust="spacingAndGlyphs" textLength="147" x="691.5" y="680.5156">User Script loading</text><polygon fill="#0000FF" points="563,695.9141,553,699.9141,563,703.9141,559,699.9141" style="stroke: #0000FF; stroke-width: 1.0;"/><line style="stroke: #0000FF; stroke-width: 1.0;" x1="557" x2="742" y1="699.9141" y2="699.9141"/><line style="stroke: #0000FF; stroke-width: 1.0;" x1="277" x2="319" y1="739.5391" y2="739.5391"/><line style="stroke: #0000FF; stroke-width: 1.0;" x1="319" x2="319" y1="739.5391" y2="752.5391"/><line style="stroke: #0000FF; stroke-width: 1.0;" x1="278" x2="319" y1="752.5391" y2="752.5391"/><polygon fill="#0000FF" points="288,748.5391,278,752.5391,288,756.5391,284,752.5391" style="stroke: #0000FF; stroke-width: 1.0;"/><text fill="#2027E8" font-family="sans-serif" font-size="16" font-weight="bold" lengthAdjust="spacingAndGlyphs" textLength="261" x="284" y="733.7656">Start Qt Meta-Object System</text><rect fill="none" height="123.125" style="stroke: #000000; stroke-width: 2.0;" width="591.5" x="216" y="767.5391"/><polygon fill="#EEEEEE" points="216,767.5391,298,767.5391,298,777.5391,288,787.5391,216,787.5391,216,767.5391" style="stroke: #000000; stroke-width: 2.0;"/><text fill="#000000" font-family="sans-serif" font-size="16" font-weight="bold" lengthAdjust="spacingAndGlyphs" textLength="37" x="231" y="783.3906">loop</text><text fill="#000000" font-family="sans-serif" font-size="16" font-weight="bold" lengthAdjust="spacingAndGlyphs" textLength="187" x="313" y="784.3906">[For each Registered</text><text fill="#000000" font-family="sans-serif" font-size="16" font-style="italic" font-weight="bold" lengthAdjust="spacingAndGlyphs" textLength="40" x="506" y="784.3906">Test</text><text fill="#000000" font-family="sans-serif" font-size="16" font-weight="bold" lengthAdjust="spacingAndGlyphs" textLength="7" x="546" y="784.3906">]</text><polygon fill="#0000FF" points="731,811.7891,741,815.7891,731,819.7891,735,815.7891" style="stroke: #0000FF; stroke-width: 1.0;"/><line style="stroke: #0000FF; stroke-width: 1.0;" x1="277" x2="737" y1="815.7891" y2="815.7891"/><text fill="#2027E8" font-family="sans-serif" font-size="16" font-weight="bold" lengthAdjust="spacingAndGlyphs" textLength="175" x="284" y="810.6406">Execute User script</text><text fill="#2027E8" font-family="sans-serif" font-size="16" font-style="italic" font-weight="bold" lengthAdjust="spacingAndGlyphs" textLength="76" x="465" y="810.6406">Function</text><rect fill="#FFFFFF" filter="url(#ficpgjk)" height="47.25" style="stroke: #000000; stroke-width: 2.0;" width="198" x="685.5" y="824.4141"/><polygon fill="#EEEEEE" points="685.5,824.4141,756.5,824.4141,756.5,834.4141,746.5,844.4141,685.5,844.4141,685.5,824.4141" style="stroke: #000000; stroke-width: 2.0;"/><text fill="#000000" font-family="sans-serif" font-size="16" font-weight="bold" lengthAdjust="spacingAndGlyphs" textLength="26" x="698.5" y="841.2656">ref</text><text fill="#000000" font-family="sans-serif" font-size="16" lengthAdjust="spacingAndGlyphs" textLength="37" x="691.5" y="863.2656">User</text><text fill="#000000" font-family="sans-serif" font-size="16" font-style="italic" lengthAdjust="spacingAndGlyphs" textLength="67" x="733.5" y="863.2656">Function</text><text fill="#000000" font-family="sans-serif" font-size="16" lengthAdjust="spacingAndGlyphs" textLength="76" x="805.5" y="863.2656">execution</text><polygon fill="#0000FF" points="288,878.6641,278,882.6641,288,886.6641,284,882.6641" style="stroke: #0000FF; stroke-width: 1.0;"/><line style="stroke: #0000FF; stroke-width: 1.0;" x1="282" x2="742" y1="882.6641" y2="882.6641"/><polygon fill="#0000FF" points="41,917.6641,31,921.6641,41,925.6641,37,921.6641" style="stroke: #0000FF; stroke-width: 1.0;"/><line style="stroke: #0000FF; stroke-width: 1.0;" x1="35" x2="276" y1="921.6641" y2="921.6641"/><text fill="#2027E8" font-family="sans-serif" font-size="16" font-weight="bold" lengthAdjust="spacingAndGlyphs" textLength="32" x="47" y="916.5156">Exit</text></g></svg>