<?xml version="1.0" encoding="UTF-8" standalone="no"?><svg xmlns="http://www.w3.org/2000/svg" xmlns:xlink="http://www.w3.org/1999/xlink" contentScriptType="application/ecmascript" contentStyleType="text/css" height="1084px" preserveAspectRatio="none" style="width:978px;height:1084px;" version="1.1" viewBox="0 0 978 1084" width="978px" zoomAndPan="magnify"><defs><filter height="300%" id="f30gh1x" width="300%" x="-1" y="-1"><feGaussianBlur result="blurOut" stdDeviation="2.0"/><feColorMatrix in="blurOut" result="blurOut2" type="matrix" values="0 0 0 0 0 0 0 0 0 0 0 0 0 0 0 0 0 0 .4 0"/><feOffset dx="4.0" dy="4.0" in="blurOut2" result="blurOut3"/><feBlend in="SourceGraphic" in2="blurOut3" mode="normal"/></filter></defs><g><text fill="#000000" font-family="sans-serif" font-size="16" font-weight="bold" lengthAdjust="spacingAndGlyphs" textLength="322" x="327" y="24.8516">Events and expectations processing</text><rect fill="#FFFFFF" filter="url(#f30gh1x)" height="70.875" style="stroke: #000000; stroke-width: 2.0;" width="453" x="91.5" y="217.2891"/><rect fill="#FFFFFF" filter="url(#f30gh1x)" height="70.875" style="stroke: #000000; stroke-width: 2.0;" width="453" x="91.5" y="302.1641"/><rect fill="#FFFFFF" filter="url(#f30gh1x)" height="70.875" style="stroke: #000000; stroke-width: 2.0;" width="453" x="91.5" y="387.0391"/><rect fill="#FFFFFF" filter="url(#f30gh1x)" height="70.875" style="stroke: #000000; stroke-width: 2.0;" width="453" x="91.5" y="471.9141"/><rect fill="#FFFFFF" filter="url(#f30gh1x)" height="123.125" style="stroke: #000000; stroke-width: 2.0;" width="441.5" x="449.5" y="732.9141"/><rect fill="#FFFFFF" filter="url(#f30gh1x)" height="123.125" style="stroke: #000000; stroke-width: 2.0;" width="441.5" x="449.5" y="870.0391"/><line style="stroke: #000000; stroke-width: 1.0; stroke-dasharray: 5.0,5.0;" x1="177.5" x2="177.5" y1="74.4141" y2="1042.7891"/><line style="stroke: #000000; stroke-width: 1.0; stroke-dasharray: 5.0,5.0;" x1="496.5" x2="496.5" y1="74.4141" y2="1042.7891"/><line style="stroke: #000000; stroke-width: 1.0; stroke-dasharray: 5.0,5.0;" x1="713" x2="713" y1="74.4141" y2="1042.7891"/><line style="stroke: #000000; stroke-width: 1.0; stroke-dasharray: 5.0,5.0;" x1="826" x2="826" y1="74.4141" y2="1042.7891"/><rect fill="#FFFFFF" filter="url(#f30gh1x)" height="33.7891" style="stroke: #000000; stroke-width: 1.5;" width="149" x="101.5" y="35.625"/><text fill="#000000" font-family="sans-serif" font-size="17" lengthAdjust="spacingAndGlyphs" textLength="135" x="108.5" y="58.4048">Connection Test</text><rect fill="#FFFFFF" filter="url(#f30gh1x)" height="33.7891" style="stroke: #000000; stroke-width: 1.5;" width="149" x="101.5" y="1041.7891"/><text fill="#000000" font-family="sans-serif" font-size="17" lengthAdjust="spacingAndGlyphs" textLength="135" x="108.5" y="1064.5688">Connection Test</text><rect fill="#FFFFFF" filter="url(#f30gh1x)" height="33.7891" style="stroke: #000000; stroke-width: 1.5;" width="71" x="459.5" y="35.625"/><text fill="#000000" font-family="sans-serif" font-size="17" lengthAdjust="spacingAndGlyphs" textLength="57" x="466.5" y="58.4048">Events</text><rect fill="#FFFFFF" filter="url(#f30gh1x)" height="33.7891" style="stroke: #000000; stroke-width: 1.5;" width="71" x="459.5" y="1041.7891"/><text fill="#000000" font-family="sans-serif" font-size="17" lengthAdjust="spacingAndGlyphs" textLength="57" x="466.5" y="1064.5688">Events</text><rect fill="#FFFFFF" filter="url(#f30gh1x)" height="33.7891" style="stroke: #000000; stroke-width: 1.5;" width="94" x="664" y="35.625"/><text fill="#000000" font-family="sans-serif" font-size="17" lengthAdjust="spacingAndGlyphs" textLength="80" x="671" y="58.4048">Test Base</text><rect fill="#FFFFFF" filter="url(#f30gh1x)" height="33.7891" style="stroke: #000000; stroke-width: 1.5;" width="94" x="664" y="1041.7891"/><text fill="#000000" font-family="sans-serif" font-size="17" lengthAdjust="spacingAndGlyphs" textLength="80" x="671" y="1064.5688">Test Base</text><rect fill="#FFFFFF" filter="url(#f30gh1x)" height="33.7891" style="stroke: #000000; stroke-width: 1.5;" width="105" x="772" y="35.625"/><text fill="#000000" font-family="sans-serif" font-size="17" lengthAdjust="spacingAndGlyphs" textLength="91" x="779" y="58.4048">User Script</text><rect fill="#FFFFFF" filter="url(#f30gh1x)" height="33.7891" style="stroke: #000000; stroke-width: 1.5;" width="105" x="772" y="1041.7891"/><text fill="#000000" font-family="sans-serif" font-size="17" lengthAdjust="spacingAndGlyphs" textLength="91" x="779" y="1064.5688">User Script</text><rect fill="#FEFECE" filter="url(#f30gh1x)" height="3" style="stroke: #FEFECE; stroke-width: 1.0;" width="970" x="3" y="106.7266"/><line style="stroke: #000000; stroke-width: 1.0;" x1="3" x2="973" y1="106.7266" y2="106.7266"/><line style="stroke: #000000; stroke-width: 1.0;" x1="3" x2="973" y1="109.7266" y2="109.7266"/><rect fill="#FEFECE" filter="url(#f30gh1x)" height="26.625" style="stroke: #000000; stroke-width: 2.0;" width="223" x="376.5" y="94.4141"/><text fill="#000000" font-family="sans-serif" font-size="16" font-weight="bold" lengthAdjust="spacingAndGlyphs" textLength="203" x="382.5" y="113.2656">Setting up expectation</text><polygon fill="#0000FF" points="166,151.0391,176,155.0391,166,159.0391,170,155.0391" style="stroke: #0000FF; stroke-width: 1.0;"/><line style="stroke: #0000FF; stroke-width: 1.0;" x1="3" x2="172" y1="155.0391" y2="155.0391"/><text fill="#2027E8" font-family="sans-serif" font-size="16" font-weight="bold" lengthAdjust="spacingAndGlyphs" textLength="151" x="10" y="149.8906">Set expectations</text><polygon fill="#0000FF" points="485,183.6641,495,187.6641,485,191.6641,489,187.6641" style="stroke: #0000FF; stroke-width: 1.0;"/><line style="stroke: #0000FF; stroke-width: 1.0;" x1="178" x2="491" y1="187.6641" y2="187.6641"/><text fill="#2027E8" font-family="sans-serif" font-size="16" font-weight="bold" lengthAdjust="spacingAndGlyphs" textLength="245" x="185" y="182.5156">Add Event with expectation</text><polygon fill="#0000FF" points="189,198.2891,179,202.2891,189,206.2891,185,202.2891" style="stroke: #0000FF; stroke-width: 1.0;"/><line style="stroke: #0000FF; stroke-width: 1.0;" x1="183" x2="496" y1="202.2891" y2="202.2891"/><rect fill="none" height="70.875" style="stroke: #000000; stroke-width: 2.0;" width="453" x="91.5" y="217.2891"/><polygon fill="#EEEEEE" points="91.5,217.2891,166.5,217.2891,166.5,227.2891,156.5,237.2891,91.5,237.2891,91.5,217.2891" style="stroke: #000000; stroke-width: 2.0;"/><text fill="#000000" font-family="sans-serif" font-size="16" font-weight="bold" lengthAdjust="spacingAndGlyphs" textLength="30" x="106.5" y="233.1406">opt</text><text fill="#000000" font-family="sans-serif" font-size="16" font-weight="bold" lengthAdjust="spacingAndGlyphs" textLength="210" x="181.5" y="234.1406">[Required event action]</text><polygon fill="#0000FF" points="485,261.5391,495,265.5391,485,269.5391,489,265.5391" style="stroke: #0000FF; stroke-width: 1.0;"/><line style="stroke: #0000FF; stroke-width: 1.0;" x1="178" x2="491" y1="265.5391" y2="265.5391"/><text fill="#2027E8" font-family="sans-serif" font-size="16" font-weight="bold" lengthAdjust="spacingAndGlyphs" textLength="34" x="185" y="260.3906">Add</text><text fill="#2027E8" font-family="sans-serif" font-size="16" font-style="italic" font-weight="bold" lengthAdjust="spacingAndGlyphs" textLength="76" x="225" y="260.3906">Function</text><text fill="#2027E8" font-family="sans-serif" font-size="16" font-weight="bold" lengthAdjust="spacingAndGlyphs" textLength="137" x="307" y="260.3906">for expectation</text><polygon fill="#0000FF" points="189,276.1641,179,280.1641,189,284.1641,185,280.1641" style="stroke: #0000FF; stroke-width: 1.0;"/><line style="stroke: #0000FF; stroke-width: 1.0;" x1="183" x2="496" y1="280.1641" y2="280.1641"/><rect fill="none" height="70.875" style="stroke: #000000; stroke-width: 2.0;" width="453" x="91.5" y="302.1641"/><polygon fill="#EEEEEE" points="91.5,302.1641,166.5,302.1641,166.5,312.1641,156.5,322.1641,91.5,322.1641,91.5,302.1641" style="stroke: #000000; stroke-width: 2.0;"/><text fill="#000000" font-family="sans-serif" font-size="16" font-weight="bold" lengthAdjust="spacingAndGlyphs" textLength="30" x="106.5" y="318.0156">opt</text><text fill="#000000" font-family="sans-serif" font-size="16" font-weight="bold" lengthAdjust="spacingAndGlyphs" textLength="299" x="181.5" y="319.0156">[Required to occur several times]</text><polygon fill="#0000FF" points="485,346.4141,495,350.4141,485,354.4141,489,350.4141" style="stroke: #0000FF; stroke-width: 1.0;"/><line style="stroke: #0000FF; stroke-width: 1.0;" x1="178" x2="491" y1="350.4141" y2="350.4141"/><text fill="#2027E8" font-family="sans-serif" font-size="16" font-weight="bold" lengthAdjust="spacingAndGlyphs" textLength="30" x="185" y="345.2656">Set</text><text fill="#2027E8" font-family="sans-serif" font-size="16" font-style="italic" font-weight="bold" lengthAdjust="spacingAndGlyphs" textLength="54" x="221" y="345.2656">Times</text><polygon fill="#0000FF" points="189,361.0391,179,365.0391,189,369.0391,185,365.0391" style="stroke: #0000FF; stroke-width: 1.0;"/><line style="stroke: #0000FF; stroke-width: 1.0;" x1="183" x2="496" y1="365.0391" y2="365.0391"/><rect fill="none" height="70.875" style="stroke: #000000; stroke-width: 2.0;" width="453" x="91.5" y="387.0391"/><polygon fill="#EEEEEE" points="91.5,387.0391,166.5,387.0391,166.5,397.0391,156.5,407.0391,91.5,407.0391,91.5,387.0391" style="stroke: #000000; stroke-width: 2.0;"/><text fill="#000000" font-family="sans-serif" font-size="16" font-weight="bold" lengthAdjust="spacingAndGlyphs" textLength="30" x="106.5" y="402.8906">opt</text><text fill="#000000" font-family="sans-serif" font-size="16" font-weight="bold" lengthAdjust="spacingAndGlyphs" textLength="240" x="181.5" y="403.8906">[Required custom timeout]</text><polygon fill="#0000FF" points="485,431.2891,495,435.2891,485,439.2891,489,435.2891" style="stroke: #0000FF; stroke-width: 1.0;"/><line style="stroke: #0000FF; stroke-width: 1.0;" x1="178" x2="491" y1="435.2891" y2="435.2891"/><text fill="#2027E8" font-family="sans-serif" font-size="16" font-weight="bold" lengthAdjust="spacingAndGlyphs" textLength="181" x="185" y="430.1406">Add custom timeout</text><polygon fill="#0000FF" points="189,445.9141,179,449.9141,189,453.9141,185,449.9141" style="stroke: #0000FF; stroke-width: 1.0;"/><line style="stroke: #0000FF; stroke-width: 1.0;" x1="183" x2="496" y1="449.9141" y2="449.9141"/><rect fill="none" height="70.875" style="stroke: #000000; stroke-width: 2.0;" width="453" x="91.5" y="471.9141"/><polygon fill="#EEEEEE" points="91.5,471.9141,166.5,471.9141,166.5,481.9141,156.5,491.9141,91.5,491.9141,91.5,471.9141" style="stroke: #000000; stroke-width: 2.0;"/><text fill="#000000" font-family="sans-serif" font-size="16" font-weight="bold" lengthAdjust="spacingAndGlyphs" textLength="30" x="106.5" y="487.7656">opt</text><text fill="#000000" font-family="sans-serif" font-size="16" font-weight="bold" lengthAdjust="spacingAndGlyphs" textLength="274" x="181.5" y="488.7656">[Required Additional validation]</text><polygon fill="#0000FF" points="485,516.1641,495,520.1641,485,524.1641,489,520.1641" style="stroke: #0000FF; stroke-width: 1.0;"/><line style="stroke: #0000FF; stroke-width: 1.0;" x1="178" x2="491" y1="520.1641" y2="520.1641"/><text fill="#2027E8" font-family="sans-serif" font-size="16" font-weight="bold" lengthAdjust="spacingAndGlyphs" textLength="213" x="185" y="515.0156">Add additional validation</text><text fill="#2027E8" font-family="sans-serif" font-size="16" font-style="italic" font-weight="bold" lengthAdjust="spacingAndGlyphs" textLength="76" x="404" y="515.0156">Function</text><polygon fill="#0000FF" points="189,530.7891,179,534.7891,189,538.7891,185,534.7891" style="stroke: #0000FF; stroke-width: 1.0;"/><line style="stroke: #0000FF; stroke-width: 1.0;" x1="183" x2="496" y1="534.7891" y2="534.7891"/><polygon fill="#0000FF" points="14,569.7891,4,573.7891,14,577.7891,10,573.7891" style="stroke: #0000FF; stroke-width: 1.0;"/><line style="stroke: #0000FF; stroke-width: 1.0;" x1="8" x2="177" y1="573.7891" y2="573.7891"/><text fill="#2027E8" font-family="sans-serif" font-size="16" font-weight="bold" lengthAdjust="spacingAndGlyphs" textLength="126" x="20" y="568.6406">return control</text><rect fill="#FEFECE" filter="url(#f30gh1x)" height="3" style="stroke: #FEFECE; stroke-width: 1.0;" width="970" x="3" y="604.7266"/><line style="stroke: #000000; stroke-width: 1.0;" x1="3" x2="973" y1="604.7266" y2="604.7266"/><line style="stroke: #000000; stroke-width: 1.0;" x1="3" x2="973" y1="607.7266" y2="607.7266"/><rect fill="#FEFECE" filter="url(#f30gh1x)" height="26.625" style="stroke: #000000; stroke-width: 2.0;" width="184" x="396" y="592.4141"/><text fill="#000000" font-family="sans-serif" font-size="16" font-weight="bold" lengthAdjust="spacingAndGlyphs" textLength="164" x="402" y="611.2656">Events Processing</text><polygon fill="#0000FF" points="485,649.0391,495,653.0391,485,657.0391,489,653.0391" style="stroke: #0000FF; stroke-width: 1.0;"/><line style="stroke: #0000FF; stroke-width: 1.0;" x1="3" x2="491" y1="653.0391" y2="653.0391"/><text fill="#2027E8" font-family="sans-serif" font-size="16" font-weight="bold" lengthAdjust="spacingAndGlyphs" textLength="104" x="10" y="647.8906">Raise event</text><line style="stroke: #0000FF; stroke-width: 1.0;" x1="497" x2="539" y1="704.9141" y2="704.9141"/><line style="stroke: #0000FF; stroke-width: 1.0;" x1="539" x2="539" y1="704.9141" y2="717.9141"/><line style="stroke: #0000FF; stroke-width: 1.0;" x1="498" x2="539" y1="717.9141" y2="717.9141"/><polygon fill="#0000FF" points="508,713.9141,498,717.9141,508,721.9141,504,717.9141" style="stroke: #0000FF; stroke-width: 1.0;"/><text fill="#2027E8" font-family="sans-serif" font-size="16" font-weight="bold" lengthAdjust="spacingAndGlyphs" textLength="171" x="504" y="680.5156">Validate Event data</text><text fill="#2027E8" font-family="sans-serif" font-size="16" font-weight="bold" lengthAdjust="spacingAndGlyphs" textLength="196" x="510" y="699.1406">and occurrence count</text><rect fill="none" height="123.125" style="stroke: #000000; stroke-width: 2.0;" width="441.5" x="449.5" y="732.9141"/><polygon fill="#EEEEEE" points="449.5,732.9141,524.5,732.9141,524.5,742.9141,514.5,752.9141,449.5,752.9141,449.5,732.9141" style="stroke: #000000; stroke-width: 2.0;"/><text fill="#000000" font-family="sans-serif" font-size="16" font-weight="bold" lengthAdjust="spacingAndGlyphs" textLength="30" x="464.5" y="748.7656">opt</text><text fill="#000000" font-family="sans-serif" font-size="16" font-weight="bold" lengthAdjust="spacingAndGlyphs" textLength="274" x="539.5" y="749.7656">[Required Additional validation]</text><polygon fill="#0000FF" points="814.5,777.1641,824.5,781.1641,814.5,785.1641,818.5,781.1641" style="stroke: #0000FF; stroke-width: 1.0;"/><line style="stroke: #0000FF; stroke-width: 1.0;" x1="497" x2="820.5" y1="781.1641" y2="781.1641"/><text fill="#2027E8" font-family="sans-serif" font-size="16" font-weight="bold" lengthAdjust="spacingAndGlyphs" textLength="213" x="504" y="776.0156">Run additional validation</text><rect fill="#FFFFFF" filter="url(#f30gh1x)" height="47.25" style="stroke: #000000; stroke-width: 2.0;" width="198" x="769" y="789.7891"/><polygon fill="#EEEEEE" points="769,789.7891,840,789.7891,840,799.7891,830,809.7891,769,809.7891,769,789.7891" style="stroke: #000000; stroke-width: 2.0;"/><text fill="#000000" font-family="sans-serif" font-size="16" font-weight="bold" lengthAdjust="spacingAndGlyphs" textLength="26" x="782" y="806.6406">ref</text><text fill="#000000" font-family="sans-serif" font-size="16" lengthAdjust="spacingAndGlyphs" textLength="37" x="775" y="828.6406">User</text><text fill="#000000" font-family="sans-serif" font-size="16" font-style="italic" lengthAdjust="spacingAndGlyphs" textLength="67" x="817" y="828.6406">Function</text><text fill="#000000" font-family="sans-serif" font-size="16" lengthAdjust="spacingAndGlyphs" textLength="76" x="889" y="828.6406">execution</text><polygon fill="#0000FF" points="508,844.0391,498,848.0391,508,852.0391,504,848.0391" style="stroke: #0000FF; stroke-width: 1.0;"/><line style="stroke: #0000FF; stroke-width: 1.0;" x1="502" x2="825.5" y1="848.0391" y2="848.0391"/><rect fill="none" height="123.125" style="stroke: #000000; stroke-width: 2.0;" width="441.5" x="449.5" y="870.0391"/><polygon fill="#EEEEEE" points="449.5,870.0391,524.5,870.0391,524.5,880.0391,514.5,890.0391,449.5,890.0391,449.5,870.0391" style="stroke: #000000; stroke-width: 2.0;"/><text fill="#000000" font-family="sans-serif" font-size="16" font-weight="bold" lengthAdjust="spacingAndGlyphs" textLength="30" x="464.5" y="885.8906">opt</text><text fill="#000000" font-family="sans-serif" font-size="16" font-weight="bold" lengthAdjust="spacingAndGlyphs" textLength="129" x="539.5" y="886.8906">[Event is valid]</text><polygon fill="#0000FF" points="814.5,914.2891,824.5,918.2891,814.5,922.2891,818.5,918.2891" style="stroke: #0000FF; stroke-width: 1.0;"/><line style="stroke: #0000FF; stroke-width: 1.0;" x1="497" x2="820.5" y1="918.2891" y2="918.2891"/><text fill="#2027E8" font-family="sans-serif" font-size="16" font-weight="bold" lengthAdjust="spacingAndGlyphs" textLength="145" x="504" y="913.1406">Run expectation</text><text fill="#2027E8" font-family="sans-serif" font-size="16" font-style="italic" font-weight="bold" lengthAdjust="spacingAndGlyphs" textLength="76" x="655" y="913.1406">Function</text><rect fill="#FFFFFF" filter="url(#f30gh1x)" height="47.25" style="stroke: #000000; stroke-width: 2.0;" width="198" x="769" y="926.9141"/><polygon fill="#EEEEEE" points="769,926.9141,840,926.9141,840,936.9141,830,946.9141,769,946.9141,769,926.9141" style="stroke: #000000; stroke-width: 2.0;"/><text fill="#000000" font-family="sans-serif" font-size="16" font-weight="bold" lengthAdjust="spacingAndGlyphs" textLength="26" x="782" y="943.7656">ref</text><text fill="#000000" font-family="sans-serif" font-size="16" lengthAdjust="spacingAndGlyphs" textLength="37" x="775" y="965.7656">User</text><text fill="#000000" font-family="sans-serif" font-size="16" font-style="italic" lengthAdjust="spacingAndGlyphs" textLength="67" x="817" y="965.7656">Function</text><text fill="#000000" font-family="sans-serif" font-size="16" lengthAdjust="spacingAndGlyphs" textLength="76" x="889" y="965.7656">execution</text><polygon fill="#0000FF" points="508,981.1641,498,985.1641,508,989.1641,504,985.1641" style="stroke: #0000FF; stroke-width: 1.0;"/><line style="stroke: #0000FF; stroke-width: 1.0;" x1="502" x2="825.5" y1="985.1641" y2="985.1641"/><polygon fill="#0000FF" points="14,1020.1641,4,1024.1641,14,1028.1641,10,1024.1641" style="stroke: #0000FF; stroke-width: 1.0;"/><line style="stroke: #0000FF; stroke-width: 1.0;" x1="8" x2="496" y1="1024.1641" y2="1024.1641"/><text fill="#2027E8" font-family="sans-serif" font-size="16" font-weight="bold" lengthAdjust="spacingAndGlyphs" textLength="126" x="20" y="1019.0156">return control</text></g></svg>