<?xml version="1.0" encoding="UTF-8" standalone="no"?><svg xmlns="http://www.w3.org/2000/svg" xmlns:xlink="http://www.w3.org/1999/xlink" contentScriptType="application/ecmascript" contentStyleType="text/css" height="755px" preserveAspectRatio="none" style="width:1244px;height:755px;" version="1.1" viewBox="0 0 1244 755" width="1244px" zoomAndPan="magnify"><defs><filter height="300%" id="fepmhw7" width="300%" x="-1" y="-1"><feGaussianBlur result="blurOut" stdDeviation="2.0"/><feColorMatrix in="blurOut" result="blurOut2" type="matrix" values="0 0 0 0 0 0 0 0 0 0 0 0 0 0 0 0 0 0 .4 0"/><feOffset dx="4.0" dy="4.0" in="blurOut2" result="blurOut3"/><feBlend in="SourceGraphic" in2="blurOut3" mode="normal"/></filter></defs><g><text fill="#000000" font-family="sans-serif" font-size="16" font-weight="bold" lengthAdjust="spacingAndGlyphs" textLength="173" x="537" y="24.8516">User Script Loading</text><rect fill="#FFFFFF" filter="url(#fepmhw7)" height="154.75" style="stroke: #000000; stroke-width: 2.0;" width="420" x="13" y="527.5391"/><rect fill="#FFFFFF" filter="url(#fepmhw7)" height="70.875" style="stroke: #000000; stroke-width: 2.0;" width="400" x="23" y="604.4141"/><line style="stroke: #000000; stroke-width: 1.0; stroke-dasharray: 5.0,5.0;" x1="87" x2="87" y1="74.4141" y2="713.2891"/><line style="stroke: #000000; stroke-width: 1.0; stroke-dasharray: 5.0,5.0;" x1="228" x2="228" y1="74.4141" y2="713.2891"/><line style="stroke: #000000; stroke-width: 1.0; stroke-dasharray: 5.0,5.0;" x1="364" x2="364" y1="74.4141" y2="713.2891"/><line style="stroke: #000000; stroke-width: 1.0; stroke-dasharray: 5.0,5.0;" x1="509" x2="509" y1="74.4141" y2="713.2891"/><line style="stroke: #000000; stroke-width: 1.0; stroke-dasharray: 5.0,5.0;" x1="676" x2="676" y1="74.4141" y2="713.2891"/><line style="stroke: #000000; stroke-width: 1.0; stroke-dasharray: 5.0,5.0;" x1="803" x2="803" y1="74.4141" y2="713.2891"/><line style="stroke: #000000; stroke-width: 1.0; stroke-dasharray: 5.0,5.0;" x1="938" x2="938" y1="74.4141" y2="713.2891"/><line style="stroke: #000000; stroke-width: 1.0; stroke-dasharray: 5.0,5.0;" x1="1102" x2="1102" y1="74.4141" y2="713.2891"/><line style="stroke: #000000; stroke-width: 1.0; stroke-dasharray: 5.0,5.0;" x1="1213" x2="1213" y1="74.4141" y2="713.2891"/><rect fill="#FFFFFF" filter="url(#fepmhw7)" height="33.7891" style="stroke: #000000; stroke-width: 1.5;" width="105" x="33" y="35.625"/><text fill="#000000" font-family="sans-serif" font-size="17" lengthAdjust="spacingAndGlyphs" textLength="91" x="40" y="58.4048">User Script</text><rect fill="#FFFFFF" filter="url(#fepmhw7)" height="33.7891" style="stroke: #000000; stroke-width: 1.5;" width="105" x="33" y="712.2891"/><text fill="#000000" font-family="sans-serif" font-size="17" lengthAdjust="spacingAndGlyphs" textLength="91" x="40" y="735.0688">User Script</text><rect fill="#FFFFFF" filter="url(#fepmhw7)" height="33.7891" style="stroke: #000000; stroke-width: 1.5;" width="149" x="152" y="35.625"/><text fill="#000000" font-family="sans-serif" font-size="17" lengthAdjust="spacingAndGlyphs" textLength="135" x="159" y="58.4048">Connection Test</text><rect fill="#FFFFFF" filter="url(#fepmhw7)" height="33.7891" style="stroke: #000000; stroke-width: 1.5;" width="149" x="152" y="712.2891"/><text fill="#000000" font-family="sans-serif" font-size="17" lengthAdjust="spacingAndGlyphs" textLength="135" x="159" y="735.0688">Connection Test</text><rect fill="#FFFFFF" filter="url(#fepmhw7)" height="33.7891" style="stroke: #000000; stroke-width: 1.5;" width="94" x="315" y="35.625"/><text fill="#000000" font-family="sans-serif" font-size="17" lengthAdjust="spacingAndGlyphs" textLength="80" x="322" y="58.4048">Test Base</text><rect fill="#FFFFFF" filter="url(#fepmhw7)" height="33.7891" style="stroke: #000000; stroke-width: 1.5;" width="94" x="315" y="712.2891"/><text fill="#000000" font-family="sans-serif" font-size="17" lengthAdjust="spacingAndGlyphs" textLength="80" x="322" y="735.0688">Test Base</text><rect fill="#FFFFFF" filter="url(#fepmhw7)" height="33.7891" style="stroke: #000000; stroke-width: 1.5;" width="169" x="423" y="35.625"/><text fill="#000000" font-family="sans-serif" font-size="17" lengthAdjust="spacingAndGlyphs" textLength="155" x="430" y="58.4048">Mobile Connection</text><rect fill="#FFFFFF" filter="url(#fepmhw7)" height="33.7891" style="stroke: #000000; stroke-width: 1.5;" width="169" x="423" y="712.2891"/><text fill="#000000" font-family="sans-serif" font-size="17" lengthAdjust="spacingAndGlyphs" textLength="155" x="430" y="735.0688">Mobile Connection</text><rect fill="#FFFFFF" filter="url(#fepmhw7)" height="33.7891" style="stroke: #000000; stroke-width: 1.5;" width="137" x="606" y="35.625"/><text fill="#000000" font-family="sans-serif" font-size="17" lengthAdjust="spacingAndGlyphs" textLength="123" x="613" y="58.4048">Mobile Session</text><rect fill="#FFFFFF" filter="url(#fepmhw7)" height="33.7891" style="stroke: #000000; stroke-width: 1.5;" width="137" x="606" y="712.2891"/><text fill="#000000" font-family="sans-serif" font-size="17" lengthAdjust="spacingAndGlyphs" textLength="123" x="613" y="735.0688">Mobile Session</text><rect fill="#FFFFFF" filter="url(#fepmhw7)" height="33.7891" style="stroke: #000000; stroke-width: 1.5;" width="89" x="757" y="35.625"/><text fill="#000000" font-family="sans-serif" font-size="17" lengthAdjust="spacingAndGlyphs" textLength="75" x="764" y="58.4048">Validator</text><rect fill="#FFFFFF" filter="url(#fepmhw7)" height="33.7891" style="stroke: #000000; stroke-width: 1.5;" width="89" x="757" y="712.2891"/><text fill="#000000" font-family="sans-serif" font-size="17" lengthAdjust="spacingAndGlyphs" textLength="75" x="764" y="735.0688">Validator</text><rect fill="#FFFFFF" filter="url(#fepmhw7)" height="33.7891" style="stroke: #000000; stroke-width: 1.5;" width="152" x="860" y="35.625"/><text fill="#000000" font-family="sans-serif" font-size="17" lengthAdjust="spacingAndGlyphs" textLength="138" x="867" y="58.4048">Protocol Handler</text><rect fill="#FFFFFF" filter="url(#fepmhw7)" height="33.7891" style="stroke: #000000; stroke-width: 1.5;" width="152" x="860" y="712.2891"/><text fill="#000000" font-family="sans-serif" font-size="17" lengthAdjust="spacingAndGlyphs" textLength="138" x="867" y="735.0688">Protocol Handler</text><rect fill="#FFFFFF" filter="url(#fepmhw7)" height="33.7891" style="stroke: #000000; stroke-width: 1.5;" width="148" x="1026" y="35.625"/><text fill="#000000" font-family="sans-serif" font-size="17" lengthAdjust="spacingAndGlyphs" textLength="134" x="1033" y="58.4048">HMI Connection</text><rect fill="#FFFFFF" filter="url(#fepmhw7)" height="33.7891" style="stroke: #000000; stroke-width: 1.5;" width="148" x="1026" y="712.2891"/><text fill="#000000" font-family="sans-serif" font-size="17" lengthAdjust="spacingAndGlyphs" textLength="134" x="1033" y="735.0688">HMI Connection</text><rect fill="#FFFFFF" filter="url(#fepmhw7)" height="33.7891" style="stroke: #000000; stroke-width: 1.5;" width="47" x="1188" y="35.625"/><text fill="#000000" font-family="sans-serif" font-size="17" lengthAdjust="spacingAndGlyphs" textLength="33" x="1195" y="58.4048">SDL</text><rect fill="#FFFFFF" filter="url(#fepmhw7)" height="33.7891" style="stroke: #000000; stroke-width: 1.5;" width="47" x="1188" y="712.2891"/><text fill="#000000" font-family="sans-serif" font-size="17" lengthAdjust="spacingAndGlyphs" textLength="33" x="1195" y="735.0688">SDL</text><polygon fill="#0000FF" points="75.5,104.4141,85.5,108.4141,75.5,112.4141,79.5,108.4141" style="stroke: #0000FF; stroke-width: 1.0;"/><line style="stroke: #0000FF; stroke-width: 1.0;" x1="3" x2="81.5" y1="108.4141" y2="108.4141"/><text fill="#2027E8" font-family="sans-serif" font-size="16" font-weight="bold" lengthAdjust="spacingAndGlyphs" textLength="42" x="10" y="103.2656">Load</text><polygon fill="#0000FF" points="216.5,137.0391,226.5,141.0391,216.5,145.0391,220.5,141.0391" style="stroke: #0000FF; stroke-width: 1.0;"/><line style="stroke: #0000FF; stroke-width: 1.0;" x1="87.5" x2="222.5" y1="141.0391" y2="141.0391"/><text fill="#2027E8" font-family="sans-serif" font-size="16" font-weight="bold" lengthAdjust="spacingAndGlyphs" textLength="42" x="94.5" y="135.8906">Load</text><polygon fill="#0000FF" points="352,169.6641,362,173.6641,352,177.6641,356,173.6641" style="stroke: #0000FF; stroke-width: 1.0;"/><line style="stroke: #0000FF; stroke-width: 1.0;" x1="228.5" x2="358" y1="173.6641" y2="173.6641"/><text fill="#2027E8" font-family="sans-serif" font-size="16" font-weight="bold" lengthAdjust="spacingAndGlyphs" textLength="42" x="235.5" y="168.5156">Load</text><line style="stroke: #0000FF; stroke-width: 1.0;" x1="364" x2="406" y1="225.5391" y2="225.5391"/><line style="stroke: #0000FF; stroke-width: 1.0;" x1="406" x2="406" y1="225.5391" y2="238.5391"/><line style="stroke: #0000FF; stroke-width: 1.0;" x1="365" x2="406" y1="238.5391" y2="238.5391"/><polygon fill="#0000FF" points="375,234.5391,365,238.5391,375,242.5391,371,238.5391" style="stroke: #0000FF; stroke-width: 1.0;"/><text fill="#2027E8" font-family="sans-serif" font-size="16" font-weight="bold" lengthAdjust="spacingAndGlyphs" textLength="71" x="371" y="201.1406">Initialize</text><text fill="#2027E8" font-family="sans-serif" font-size="16" font-style="italic" font-weight="bold" lengthAdjust="spacingAndGlyphs" textLength="40" x="371" y="219.7656">Test</text><text fill="#2027E8" font-family="sans-serif" font-size="16" font-weight="bold" lengthAdjust="spacingAndGlyphs" textLength="85" x="417" y="219.7656">detection</text><polygon fill="#0000FF" points="497.5,266.5391,507.5,270.5391,497.5,274.5391,501.5,270.5391" style="stroke: #0000FF; stroke-width: 1.0;"/><line style="stroke: #0000FF; stroke-width: 1.0;" x1="228.5" x2="503.5" y1="270.5391" y2="270.5391"/><text fill="#2027E8" font-family="sans-serif" font-size="16" font-weight="bold" lengthAdjust="spacingAndGlyphs" textLength="42" x="235.5" y="265.3906">Load</text><polygon fill="#0000FF" points="664.5,299.1641,674.5,303.1641,664.5,307.1641,668.5,303.1641" style="stroke: #0000FF; stroke-width: 1.0;"/><line style="stroke: #0000FF; stroke-width: 1.0;" x1="228.5" x2="670.5" y1="303.1641" y2="303.1641"/><text fill="#2027E8" font-family="sans-serif" font-size="16" font-weight="bold" lengthAdjust="spacingAndGlyphs" textLength="42" x="235.5" y="298.0156">Load</text><polygon fill="#0000FF" points="791.5,331.7891,801.5,335.7891,791.5,339.7891,795.5,335.7891" style="stroke: #0000FF; stroke-width: 1.0;"/><line style="stroke: #0000FF; stroke-width: 1.0;" x1="228.5" x2="797.5" y1="335.7891" y2="335.7891"/><text fill="#2027E8" font-family="sans-serif" font-size="16" font-weight="bold" lengthAdjust="spacingAndGlyphs" textLength="42" x="235.5" y="330.6406">Load</text><polygon fill="#0000FF" points="926,364.4141,936,368.4141,926,372.4141,930,368.4141" style="stroke: #0000FF; stroke-width: 1.0;"/><line style="stroke: #0000FF; stroke-width: 1.0;" x1="228.5" x2="932" y1="368.4141" y2="368.4141"/><text fill="#2027E8" font-family="sans-serif" font-size="16" font-weight="bold" lengthAdjust="spacingAndGlyphs" textLength="42" x="235.5" y="363.2656">Load</text><polygon fill="#0000FF" points="1090,397.0391,1100,401.0391,1090,405.0391,1094,401.0391" style="stroke: #0000FF; stroke-width: 1.0;"/><line style="stroke: #0000FF; stroke-width: 1.0;" x1="228.5" x2="1096" y1="401.0391" y2="401.0391"/><text fill="#2027E8" font-family="sans-serif" font-size="16" font-weight="bold" lengthAdjust="spacingAndGlyphs" textLength="42" x="235.5" y="395.8906">Load</text><polygon fill="#0000FF" points="1201.5,429.6641,1211.5,433.6641,1201.5,437.6641,1205.5,433.6641" style="stroke: #0000FF; stroke-width: 1.0;"/><line style="stroke: #0000FF; stroke-width: 1.0;" x1="228.5" x2="1207.5" y1="433.6641" y2="433.6641"/><text fill="#2027E8" font-family="sans-serif" font-size="16" font-weight="bold" lengthAdjust="spacingAndGlyphs" textLength="42" x="235.5" y="428.5156">Load</text><line style="stroke: #0000FF; stroke-width: 1.0;" x1="228.5" x2="270.5" y1="485.5391" y2="485.5391"/><line style="stroke: #0000FF; stroke-width: 1.0;" x1="270.5" x2="270.5" y1="485.5391" y2="498.5391"/><line style="stroke: #0000FF; stroke-width: 1.0;" x1="229.5" x2="270.5" y1="498.5391" y2="498.5391"/><polygon fill="#0000FF" points="239.5,494.5391,229.5,498.5391,239.5,502.5391,235.5,498.5391" style="stroke: #0000FF; stroke-width: 1.0;"/><text fill="#2027E8" font-family="sans-serif" font-size="16" font-weight="bold" lengthAdjust="spacingAndGlyphs" textLength="74" x="235.5" y="461.1406">Connect</text><text fill="#2027E8" font-family="sans-serif" font-size="16" font-weight="bold" lengthAdjust="spacingAndGlyphs" textLength="110" x="235.5" y="479.7656">components</text><polygon fill="#0000FF" points="98.5,508.5391,88.5,512.5391,98.5,516.5391,94.5,512.5391" style="stroke: #0000FF; stroke-width: 1.0;"/><line style="stroke: #0000FF; stroke-width: 1.0;" x1="92.5" x2="227.5" y1="512.5391" y2="512.5391"/><rect fill="none" height="154.75" style="stroke: #000000; stroke-width: 2.0;" width="420" x="13" y="527.5391"/><polygon fill="#EEEEEE" points="13,527.5391,95,527.5391,95,537.5391,85,547.5391,13,547.5391,13,527.5391" style="stroke: #000000; stroke-width: 2.0;"/><text fill="#000000" font-family="sans-serif" font-size="16" font-weight="bold" lengthAdjust="spacingAndGlyphs" textLength="37" x="28" y="543.3906">loop</text><text fill="#000000" font-family="sans-serif" font-size="16" font-weight="bold" lengthAdjust="spacingAndGlyphs" textLength="189" x="110" y="544.3906">[For each User Script</text><text fill="#000000" font-family="sans-serif" font-size="16" font-style="italic" font-weight="bold" lengthAdjust="spacingAndGlyphs" textLength="76" x="305" y="544.3906">Function</text><text fill="#000000" font-family="sans-serif" font-size="16" font-weight="bold" lengthAdjust="spacingAndGlyphs" textLength="7" x="381" y="544.3906">]</text><line style="stroke: #0000FF; stroke-width: 1.0;" x1="87.5" x2="129.5" y1="576.4141" y2="576.4141"/><line style="stroke: #0000FF; stroke-width: 1.0;" x1="129.5" x2="129.5" y1="576.4141" y2="589.4141"/><line style="stroke: #0000FF; stroke-width: 1.0;" x1="88.5" x2="129.5" y1="589.4141" y2="589.4141"/><polygon fill="#0000FF" points="98.5,585.4141,88.5,589.4141,98.5,593.4141,94.5,589.4141" style="stroke: #0000FF; stroke-width: 1.0;"/><text fill="#2027E8" font-family="sans-serif" font-size="16" font-weight="bold" lengthAdjust="spacingAndGlyphs" textLength="42" x="94.5" y="570.6406">Load</text><text fill="#2027E8" font-family="sans-serif" font-size="16" font-style="italic" font-weight="bold" lengthAdjust="spacingAndGlyphs" textLength="76" x="142.5" y="570.6406">Function</text><rect fill="none" height="70.875" style="stroke: #000000; stroke-width: 2.0;" width="400" x="23" y="604.4141"/><polygon fill="#EEEEEE" points="23,604.4141,98,604.4141,98,614.4141,88,624.4141,23,624.4141,23,604.4141" style="stroke: #000000; stroke-width: 2.0;"/><text fill="#000000" font-family="sans-serif" font-size="16" font-weight="bold" lengthAdjust="spacingAndGlyphs" textLength="30" x="38" y="620.2656">opt</text><text fill="#000000" font-family="sans-serif" font-size="16" font-weight="bold" lengthAdjust="spacingAndGlyphs" textLength="7" x="113" y="621.2656">[</text><text fill="#000000" font-family="sans-serif" font-size="16" font-style="italic" font-weight="bold" lengthAdjust="spacingAndGlyphs" textLength="76" x="120" y="621.2656">Function</text><text fill="#000000" font-family="sans-serif" font-size="16" font-weight="bold" lengthAdjust="spacingAndGlyphs" textLength="30" x="202" y="621.2656">is a</text><text fill="#000000" font-family="sans-serif" font-size="16" font-style="italic" font-weight="bold" lengthAdjust="spacingAndGlyphs" textLength="40" x="238" y="621.2656">Test</text><text fill="#000000" font-family="sans-serif" font-size="16" font-weight="bold" lengthAdjust="spacingAndGlyphs" textLength="7" x="278" y="621.2656">]</text><polygon fill="#0000FF" points="352,648.6641,362,652.6641,352,656.6641,356,652.6641" style="stroke: #0000FF; stroke-width: 1.0;"/><line style="stroke: #0000FF; stroke-width: 1.0;" x1="87.5" x2="358" y1="652.6641" y2="652.6641"/><text fill="#2027E8" font-family="sans-serif" font-size="16" font-weight="bold" lengthAdjust="spacingAndGlyphs" textLength="34" x="94.5" y="647.5156">Add</text><text fill="#2027E8" font-family="sans-serif" font-size="16" font-style="italic" font-weight="bold" lengthAdjust="spacingAndGlyphs" textLength="40" x="134.5" y="647.5156">Test</text><text fill="#2027E8" font-family="sans-serif" font-size="16" font-weight="bold" lengthAdjust="spacingAndGlyphs" textLength="119" x="180.5" y="647.5156">for execution</text><polygon fill="#0000FF" points="98.5,663.2891,88.5,667.2891,98.5,671.2891,94.5,667.2891" style="stroke: #0000FF; stroke-width: 1.0;"/><line style="stroke: #0000FF; stroke-width: 1.0;" x1="92.5" x2="363" y1="667.2891" y2="667.2891"/><polygon fill="#0000FF" points="14,691.2891,4,695.2891,14,699.2891,10,695.2891" style="stroke: #0000FF; stroke-width: 1.0;"/><line style="stroke: #0000FF; stroke-width: 1.0;" x1="8" x2="86.5" y1="695.2891" y2="695.2891"/></g></svg>