<?xml version="1.0" encoding="UTF-8" standalone="no"?><svg xmlns="http://www.w3.org/2000/svg" xmlns:xlink="http://www.w3.org/1999/xlink" contentScriptType="application/ecmascript" contentStyleType="text/css" height="1133px" preserveAspectRatio="none" style="width:1464px;height:1133px;" version="1.1" viewBox="0 0 1464 1133" width="1464px" zoomAndPan="magnify"><defs><filter height="300%" id="flcwaq7" width="300%" x="-1" y="-1"><feGaussianBlur result="blurOut" stdDeviation="2.0"/><feColorMatrix in="blurOut" result="blurOut2" type="matrix" values="0 0 0 0 0 0 0 0 0 0 0 0 0 0 0 0 0 0 .4 0"/><feOffset dx="4.0" dy="4.0" in="blurOut2" result="blurOut3"/><feBlend in="SourceGraphic" in2="blurOut3" mode="normal"/></filter></defs><g><text fill="#000000" font-family="sans-serif" font-size="16" font-weight="bold" lengthAdjust="spacingAndGlyphs" textLength="216" x="626.25" y="24.8516">User Function execution</text><rect fill="#FFFFFF" filter="url(#flcwaq7)" height="70.875" style="stroke: #000000; stroke-width: 2.0;" width="543" x="169.5" y="124.0391"/><rect fill="#FFFFFF" filter="url(#flcwaq7)" height="193" style="stroke: #000000; stroke-width: 2.0;" width="1130" x="169.5" y="208.9141"/><rect fill="#FFFFFF" filter="url(#flcwaq7)" height="89.5" style="stroke: #000000; stroke-width: 2.0;" width="811" x="478.5" y="305.4141"/><rect fill="#FFFFFF" filter="url(#flcwaq7)" height="89.5" style="stroke: #000000; stroke-width: 2.0;" width="807" x="169.5" y="415.9141"/><rect fill="#FFFFFF" filter="url(#flcwaq7)" height="108.125" style="stroke: #000000; stroke-width: 2.0;" width="958" x="169.5" y="519.4141"/><rect fill="#FFFFFF" filter="url(#flcwaq7)" height="89.5" style="stroke: #000000; stroke-width: 2.0;" width="1120" x="169.5" y="641.5391"/><rect fill="#FFFFFF" filter="url(#flcwaq7)" height="122.125" style="stroke: #000000; stroke-width: 2.0;" width="1286" x="169.5" y="745.0391"/><rect fill="#FFFFFF" filter="url(#flcwaq7)" height="109.125" style="stroke: #000000; stroke-width: 2.0;" width="482" x="169.5" y="881.1641"/><line style="stroke: #000000; stroke-width: 1.0; stroke-dasharray: 5.0,5.0;" x1="57" x2="57" y1="74.4141" y2="1092.1641"/><line style="stroke: #000000; stroke-width: 1.0; stroke-dasharray: 5.0,5.0;" x1="233.5" x2="233.5" y1="74.4141" y2="1092.1641"/><line style="stroke: #000000; stroke-width: 1.0; stroke-dasharray: 5.0,5.0;" x1="564.5" x2="564.5" y1="74.4141" y2="1092.1641"/><line style="stroke: #000000; stroke-width: 1.0; stroke-dasharray: 5.0,5.0;" x1="676.5" x2="676.5" y1="74.4141" y2="1092.1641"/><line style="stroke: #000000; stroke-width: 1.0; stroke-dasharray: 5.0,5.0;" x1="879.5" x2="879.5" y1="74.4141" y2="1092.1641"/><line style="stroke: #000000; stroke-width: 1.0; stroke-dasharray: 5.0,5.0;" x1="1046.5" x2="1046.5" y1="74.4141" y2="1092.1641"/><line style="stroke: #000000; stroke-width: 1.0; stroke-dasharray: 5.0,5.0;" x1="1203.5" x2="1203.5" y1="74.4141" y2="1092.1641"/><line style="stroke: #000000; stroke-width: 1.0; stroke-dasharray: 5.0,5.0;" x1="1367.5" x2="1367.5" y1="74.4141" y2="1092.1641"/><rect fill="#FFFFFF" filter="url(#flcwaq7)" height="33.7891" style="stroke: #000000; stroke-width: 1.5;" width="94" x="8" y="35.625"/><text fill="#000000" font-family="sans-serif" font-size="17" lengthAdjust="spacingAndGlyphs" textLength="80" x="15" y="58.4048">Test Base</text><rect fill="#FFFFFF" filter="url(#flcwaq7)" height="33.7891" style="stroke: #000000; stroke-width: 1.5;" width="94" x="8" y="1091.1641"/><text fill="#000000" font-family="sans-serif" font-size="17" lengthAdjust="spacingAndGlyphs" textLength="80" x="15" y="1113.9438">Test Base</text><rect fill="#FFFFFF" filter="url(#flcwaq7)" height="33.7891" style="stroke: #000000; stroke-width: 1.5;" width="105" x="179.5" y="35.625"/><text fill="#000000" font-family="sans-serif" font-size="17" lengthAdjust="spacingAndGlyphs" textLength="91" x="186.5" y="58.4048">User Script</text><rect fill="#FFFFFF" filter="url(#flcwaq7)" height="33.7891" style="stroke: #000000; stroke-width: 1.5;" width="105" x="179.5" y="1091.1641"/><text fill="#000000" font-family="sans-serif" font-size="17" lengthAdjust="spacingAndGlyphs" textLength="91" x="186.5" y="1113.9438">User Script</text><rect fill="#FFFFFF" filter="url(#flcwaq7)" height="33.7891" style="stroke: #000000; stroke-width: 1.5;" width="149" x="488.5" y="35.625"/><text fill="#000000" font-family="sans-serif" font-size="17" lengthAdjust="spacingAndGlyphs" textLength="135" x="495.5" y="58.4048">Connection Test</text><rect fill="#FFFFFF" filter="url(#flcwaq7)" height="33.7891" style="stroke: #000000; stroke-width: 1.5;" width="149" x="488.5" y="1091.1641"/><text fill="#000000" font-family="sans-serif" font-size="17" lengthAdjust="spacingAndGlyphs" textLength="135" x="495.5" y="1113.9438">Connection Test</text><rect fill="#FFFFFF" filter="url(#flcwaq7)" height="33.7891" style="stroke: #000000; stroke-width: 1.5;" width="47" x="651.5" y="35.625"/><text fill="#000000" font-family="sans-serif" font-size="17" lengthAdjust="spacingAndGlyphs" textLength="33" x="658.5" y="58.4048">SDL</text><rect fill="#FFFFFF" filter="url(#flcwaq7)" height="33.7891" style="stroke: #000000; stroke-width: 1.5;" width="47" x="651.5" y="1091.1641"/><text fill="#000000" font-family="sans-serif" font-size="17" lengthAdjust="spacingAndGlyphs" textLength="33" x="658.5" y="1113.9438">SDL</text><rect fill="#FFFFFF" filter="url(#flcwaq7)" height="33.7891" style="stroke: #000000; stroke-width: 1.5;" width="169" x="793.5" y="35.625"/><text fill="#000000" font-family="sans-serif" font-size="17" lengthAdjust="spacingAndGlyphs" textLength="155" x="800.5" y="58.4048">Mobile Connection</text><rect fill="#FFFFFF" filter="url(#flcwaq7)" height="33.7891" style="stroke: #000000; stroke-width: 1.5;" width="169" x="793.5" y="1091.1641"/><text fill="#000000" font-family="sans-serif" font-size="17" lengthAdjust="spacingAndGlyphs" textLength="155" x="800.5" y="1113.9438">Mobile Connection</text><rect fill="#FFFFFF" filter="url(#flcwaq7)" height="33.7891" style="stroke: #000000; stroke-width: 1.5;" width="137" x="976.5" y="35.625"/><text fill="#000000" font-family="sans-serif" font-size="17" lengthAdjust="spacingAndGlyphs" textLength="123" x="983.5" y="58.4048">Mobile Session</text><rect fill="#FFFFFF" filter="url(#flcwaq7)" height="33.7891" style="stroke: #000000; stroke-width: 1.5;" width="137" x="976.5" y="1091.1641"/><text fill="#000000" font-family="sans-serif" font-size="17" lengthAdjust="spacingAndGlyphs" textLength="123" x="983.5" y="1113.9438">Mobile Session</text><rect fill="#FFFFFF" filter="url(#flcwaq7)" height="33.7891" style="stroke: #000000; stroke-width: 1.5;" width="148" x="1127.5" y="35.625"/><text fill="#000000" font-family="sans-serif" font-size="17" lengthAdjust="spacingAndGlyphs" textLength="134" x="1134.5" y="58.4048">HMI Connection</text><rect fill="#FFFFFF" filter="url(#flcwaq7)" height="33.7891" style="stroke: #000000; stroke-width: 1.5;" width="148" x="1127.5" y="1091.1641"/><text fill="#000000" font-family="sans-serif" font-size="17" lengthAdjust="spacingAndGlyphs" textLength="134" x="1134.5" y="1113.9438">HMI Connection</text><rect fill="#FFFFFF" filter="url(#flcwaq7)" height="33.7891" style="stroke: #000000; stroke-width: 1.5;" width="152" x="1289.5" y="35.625"/><text fill="#000000" font-family="sans-serif" font-size="17" lengthAdjust="spacingAndGlyphs" textLength="138" x="1296.5" y="58.4048">Protocol Handler</text><rect fill="#FFFFFF" filter="url(#flcwaq7)" height="33.7891" style="stroke: #000000; stroke-width: 1.5;" width="152" x="1289.5" y="1091.1641"/><text fill="#000000" font-family="sans-serif" font-size="17" lengthAdjust="spacingAndGlyphs" textLength="138" x="1296.5" y="1113.9438">Protocol Handler</text><polygon fill="#0000FF" points="222,104.4141,232,108.4141,222,112.4141,226,108.4141" style="stroke: #0000FF; stroke-width: 1.0;"/><line style="stroke: #0000FF; stroke-width: 1.0;" x1="57" x2="228" y1="108.4141" y2="108.4141"/><text fill="#2027E8" font-family="sans-serif" font-size="16" font-weight="bold" lengthAdjust="spacingAndGlyphs" textLength="71" x="64" y="103.2656">Execute</text><text fill="#2027E8" font-family="sans-serif" font-size="16" font-style="italic" font-weight="bold" lengthAdjust="spacingAndGlyphs" textLength="76" x="141" y="103.2656">Function</text><rect fill="none" height="70.875" style="stroke: #000000; stroke-width: 2.0;" width="543" x="169.5" y="124.0391"/><polygon fill="#EEEEEE" points="169.5,124.0391,244.5,124.0391,244.5,134.0391,234.5,144.0391,169.5,144.0391,169.5,124.0391" style="stroke: #000000; stroke-width: 2.0;"/><text fill="#000000" font-family="sans-serif" font-size="16" font-weight="bold" lengthAdjust="spacingAndGlyphs" textLength="30" x="184.5" y="139.8906">opt</text><text fill="#000000" font-family="sans-serif" font-size="16" font-weight="bold" lengthAdjust="spacingAndGlyphs" textLength="254" x="259.5" y="140.8906">[Required SDL start or stop]</text><polygon fill="#0000FF" points="553,168.2891,563,172.2891,553,176.2891,557,172.2891" style="stroke: #0000FF; stroke-width: 1.0;"/><line style="stroke: #0000FF; stroke-width: 1.0;" x1="234" x2="559" y1="172.2891" y2="172.2891"/><text fill="#2027E8" font-family="sans-serif" font-size="16" font-weight="bold" lengthAdjust="spacingAndGlyphs" textLength="132" x="241" y="167.1406">Start/Stop SDL</text><polygon fill="#0000FF" points="665,182.9141,675,186.9141,665,190.9141,669,186.9141" style="stroke: #0000FF; stroke-width: 1.0;"/><line style="stroke: #0000FF; stroke-width: 1.0;" x1="565" x2="671" y1="186.9141" y2="186.9141"/><rect fill="none" height="193" style="stroke: #000000; stroke-width: 2.0;" width="1130" x="169.5" y="208.9141"/><polygon fill="#EEEEEE" points="169.5,208.9141,244.5,208.9141,244.5,218.9141,234.5,228.9141,169.5,228.9141,169.5,208.9141" style="stroke: #000000; stroke-width: 2.0;"/><text fill="#000000" font-family="sans-serif" font-size="16" font-weight="bold" lengthAdjust="spacingAndGlyphs" textLength="30" x="184.5" y="224.7656">opt</text><text fill="#000000" font-family="sans-serif" font-size="16" font-weight="bold" lengthAdjust="spacingAndGlyphs" textLength="270" x="259.5" y="225.7656">[Required HMI (re)connection]</text><polygon fill="#0000FF" points="553,253.1641,563,257.1641,553,261.1641,557,257.1641" style="stroke: #0000FF; stroke-width: 1.0;"/><line style="stroke: #0000FF; stroke-width: 1.0;" x1="234" x2="559" y1="257.1641" y2="257.1641"/><text fill="#2027E8" font-family="sans-serif" font-size="16" font-weight="bold" lengthAdjust="spacingAndGlyphs" textLength="69" x="241" y="252.0156">Init HMI</text><polygon fill="#0000FF" points="1191.5,285.7891,1201.5,289.7891,1191.5,293.7891,1195.5,289.7891" style="stroke: #0000FF; stroke-width: 1.0;"/><line style="stroke: #0000FF; stroke-width: 1.0;" x1="565" x2="1197.5" y1="289.7891" y2="289.7891"/><text fill="#2027E8" font-family="sans-serif" font-size="16" font-weight="bold" lengthAdjust="spacingAndGlyphs" textLength="205" x="572" y="284.6406">Connect to SDL as HMI</text><rect fill="none" height="89.5" style="stroke: #000000; stroke-width: 2.0;" width="811" x="478.5" y="305.4141"/><polygon fill="#EEEEEE" points="478.5,305.4141,560.5,305.4141,560.5,315.4141,550.5,325.4141,478.5,325.4141,478.5,305.4141" style="stroke: #000000; stroke-width: 2.0;"/><text fill="#000000" font-family="sans-serif" font-size="16" font-weight="bold" lengthAdjust="spacingAndGlyphs" textLength="37" x="493.5" y="321.2656">loop</text><text fill="#000000" font-family="sans-serif" font-size="16" font-weight="bold" lengthAdjust="spacingAndGlyphs" textLength="219" x="575.5" y="322.2656">[For each HMI Interface]</text><polygon fill="#0000FF" points="1191.5,349.6641,1201.5,353.6641,1191.5,357.6641,1195.5,353.6641" style="stroke: #0000FF; stroke-width: 1.0;"/><line style="stroke: #0000FF; stroke-width: 1.0;" x1="565" x2="1197.5" y1="353.6641" y2="353.6641"/><text fill="#2027E8" font-family="sans-serif" font-size="16" font-weight="bold" lengthAdjust="spacingAndGlyphs" textLength="163" x="572" y="348.5156">Register Interface</text><polygon fill="#0000FF" points="1191.5,382.2891,1201.5,386.2891,1191.5,390.2891,1195.5,386.2891" style="stroke: #0000FF; stroke-width: 1.0;"/><line style="stroke: #0000FF; stroke-width: 1.0;" x1="565" x2="1197.5" y1="386.2891" y2="386.2891"/><text fill="#2027E8" font-family="sans-serif" font-size="16" font-weight="bold" lengthAdjust="spacingAndGlyphs" textLength="268" x="572" y="381.1406">Subscribe on mandatory RPCs</text><rect fill="none" height="89.5" style="stroke: #000000; stroke-width: 2.0;" width="807" x="169.5" y="415.9141"/><polygon fill="#EEEEEE" points="169.5,415.9141,244.5,415.9141,244.5,425.9141,234.5,435.9141,169.5,435.9141,169.5,415.9141" style="stroke: #000000; stroke-width: 2.0;"/><text fill="#000000" font-family="sans-serif" font-size="16" font-weight="bold" lengthAdjust="spacingAndGlyphs" textLength="30" x="184.5" y="431.7656">opt</text><text fill="#000000" font-family="sans-serif" font-size="16" font-weight="bold" lengthAdjust="spacingAndGlyphs" textLength="260" x="259.5" y="432.7656">[Required Mobile connection]</text><polygon fill="#0000FF" points="553,460.1641,563,464.1641,553,468.1641,557,464.1641" style="stroke: #0000FF; stroke-width: 1.0;"/><line style="stroke: #0000FF; stroke-width: 1.0;" x1="234" x2="559" y1="464.1641" y2="464.1641"/><text fill="#2027E8" font-family="sans-serif" font-size="16" font-weight="bold" lengthAdjust="spacingAndGlyphs" textLength="226" x="241" y="459.0156">Connect as Mobile device</text><polygon fill="#0000FF" points="868,492.7891,878,496.7891,868,500.7891,872,496.7891" style="stroke: #0000FF; stroke-width: 1.0;"/><line style="stroke: #0000FF; stroke-width: 1.0;" x1="565" x2="874" y1="496.7891" y2="496.7891"/><text fill="#2027E8" font-family="sans-serif" font-size="16" font-weight="bold" lengthAdjust="spacingAndGlyphs" textLength="291" x="572" y="491.6406">Connect to SDL as Mobile device</text><rect fill="none" height="108.125" style="stroke: #000000; stroke-width: 2.0;" width="958" x="169.5" y="519.4141"/><polygon fill="#EEEEEE" points="169.5,519.4141,244.5,519.4141,244.5,529.4141,234.5,539.4141,169.5,539.4141,169.5,519.4141" style="stroke: #000000; stroke-width: 2.0;"/><text fill="#000000" font-family="sans-serif" font-size="16" font-weight="bold" lengthAdjust="spacingAndGlyphs" textLength="30" x="184.5" y="535.2656">opt</text><text fill="#000000" font-family="sans-serif" font-size="16" font-weight="bold" lengthAdjust="spacingAndGlyphs" textLength="278" x="259.5" y="536.2656">[Required Session establishing]</text><polygon fill="#0000FF" points="553,582.6641,563,586.6641,553,590.6641,557,586.6641" style="stroke: #0000FF; stroke-width: 1.0;"/><line style="stroke: #0000FF; stroke-width: 1.0;" x1="234" x2="559" y1="586.6641" y2="586.6641"/><text fill="#2027E8" font-family="sans-serif" font-size="16" font-weight="bold" lengthAdjust="spacingAndGlyphs" textLength="195" x="241" y="562.5156">Establish new Session</text><text fill="#2027E8" font-family="sans-serif" font-size="16" font-weight="bold" lengthAdjust="spacingAndGlyphs" textLength="212" x="241" y="581.1406">for selected connection</text><polygon fill="#0000FF" points="1035,614.9141,1045,618.9141,1035,622.9141,1039,618.9141" style="stroke: #0000FF; stroke-width: 1.0;"/><line style="stroke: #0000FF; stroke-width: 1.0;" x1="565" x2="1041" y1="618.9141" y2="618.9141"/><text fill="#2027E8" font-family="sans-serif" font-size="16" font-weight="bold" lengthAdjust="spacingAndGlyphs" textLength="291" x="572" y="613.7656">Connect to SDL as Mobile device</text><rect fill="none" height="89.5" style="stroke: #000000; stroke-width: 2.0;" width="1120" x="169.5" y="641.5391"/><polygon fill="#EEEEEE" points="169.5,641.5391,244.5,641.5391,244.5,651.5391,234.5,661.5391,169.5,661.5391,169.5,641.5391" style="stroke: #000000; stroke-width: 2.0;"/><text fill="#000000" font-family="sans-serif" font-size="16" font-weight="bold" lengthAdjust="spacingAndGlyphs" textLength="30" x="184.5" y="657.3906">opt</text><text fill="#000000" font-family="sans-serif" font-size="16" font-weight="bold" lengthAdjust="spacingAndGlyphs" textLength="267" x="259.5" y="658.3906">[Required HMI RPC emulation]</text><polygon fill="#0000FF" points="553,685.7891,563,689.7891,553,693.7891,557,689.7891" style="stroke: #0000FF; stroke-width: 1.0;"/><line style="stroke: #0000FF; stroke-width: 1.0;" x1="234" x2="559" y1="689.7891" y2="689.7891"/><text fill="#2027E8" font-family="sans-serif" font-size="16" font-weight="bold" lengthAdjust="spacingAndGlyphs" textLength="191" x="241" y="684.6406">Send HMI RPC to SDL</text><polygon fill="#0000FF" points="1191.5,718.4141,1201.5,722.4141,1191.5,726.4141,1195.5,722.4141" style="stroke: #0000FF; stroke-width: 1.0;"/><line style="stroke: #0000FF; stroke-width: 1.0;" x1="565" x2="1197.5" y1="722.4141" y2="722.4141"/><text fill="#2027E8" font-family="sans-serif" font-size="16" font-weight="bold" lengthAdjust="spacingAndGlyphs" textLength="291" x="572" y="717.2656">Send RPC to the HMI connection</text><rect fill="none" height="122.125" style="stroke: #000000; stroke-width: 2.0;" width="1286" x="169.5" y="745.0391"/><polygon fill="#EEEEEE" points="169.5,745.0391,244.5,745.0391,244.5,755.0391,234.5,765.0391,169.5,765.0391,169.5,745.0391" style="stroke: #000000; stroke-width: 2.0;"/><text fill="#000000" font-family="sans-serif" font-size="16" font-weight="bold" lengthAdjust="spacingAndGlyphs" textLength="30" x="184.5" y="760.8906">opt</text><text fill="#000000" font-family="sans-serif" font-size="16" font-weight="bold" lengthAdjust="spacingAndGlyphs" textLength="290" x="259.5" y="761.8906">[Required Mobile RPC emulation]</text><polygon fill="#0000FF" points="553,789.2891,563,793.2891,553,797.2891,557,793.2891" style="stroke: #0000FF; stroke-width: 1.0;"/><line style="stroke: #0000FF; stroke-width: 1.0;" x1="234" x2="559" y1="793.2891" y2="793.2891"/><text fill="#2027E8" font-family="sans-serif" font-size="16" font-weight="bold" lengthAdjust="spacingAndGlyphs" textLength="214" x="241" y="788.1406">Send Mobile RPC to SDL</text><polygon fill="#0000FF" points="1035,821.9141,1045,825.9141,1035,829.9141,1039,825.9141" style="stroke: #0000FF; stroke-width: 1.0;"/><line style="stroke: #0000FF; stroke-width: 1.0;" x1="565" x2="1041" y1="825.9141" y2="825.9141"/><text fill="#2027E8" font-family="sans-serif" font-size="16" font-weight="bold" lengthAdjust="spacingAndGlyphs" textLength="221" x="572" y="820.7656">Send RPC to the Session</text><polygon fill="#0000FF" points="1355.5,854.5391,1365.5,858.5391,1355.5,862.5391,1359.5,858.5391" style="stroke: #0000FF; stroke-width: 1.0;"/><line style="stroke: #0000FF; stroke-width: 1.0;" x1="1047" x2="1361.5" y1="858.5391" y2="858.5391"/><text fill="#2027E8" font-family="sans-serif" font-size="16" font-weight="bold" lengthAdjust="spacingAndGlyphs" textLength="258" x="1054" y="853.3906">(De)serialize Protocol frames</text><rect fill="none" height="109.125" style="stroke: #000000; stroke-width: 2.0;" width="482" x="169.5" y="881.1641"/><polygon fill="#EEEEEE" points="169.5,881.1641,244.5,881.1641,244.5,891.1641,234.5,901.1641,169.5,901.1641,169.5,881.1641" style="stroke: #000000; stroke-width: 2.0;"/><text fill="#000000" font-family="sans-serif" font-size="16" font-weight="bold" lengthAdjust="spacingAndGlyphs" textLength="30" x="184.5" y="897.0156">opt</text><text fill="#000000" font-family="sans-serif" font-size="16" font-weight="bold" lengthAdjust="spacingAndGlyphs" textLength="312" x="259.5" y="898.0156">[Required SDL results expectation]</text><polygon fill="#0000FF" points="553,925.4141,563,929.4141,553,933.4141,557,929.4141" style="stroke: #0000FF; stroke-width: 1.0;"/><line style="stroke: #0000FF; stroke-width: 1.0;" x1="234" x2="559" y1="929.4141" y2="929.4141"/><text fill="#2027E8" font-family="sans-serif" font-size="16" font-weight="bold" lengthAdjust="spacingAndGlyphs" textLength="307" x="241" y="924.2656">Set HMI and/or Mobile expectation</text><rect fill="#FFFFFF" filter="url(#flcwaq7)" height="47.25" style="stroke: #000000; stroke-width: 2.0;" width="155" x="485.5" y="938.0391"/><polygon fill="#EEEEEE" points="485.5,938.0391,556.5,938.0391,556.5,948.0391,546.5,958.0391,485.5,958.0391,485.5,938.0391" style="stroke: #000000; stroke-width: 2.0;"/><text fill="#000000" font-family="sans-serif" font-size="16" font-weight="bold" lengthAdjust="spacingAndGlyphs" textLength="26" x="498.5" y="954.8906">ref</text><text fill="#000000" font-family="sans-serif" font-size="16" lengthAdjust="spacingAndGlyphs" textLength="146" x="492" y="976.8906">Set up expectation</text><polygon fill="#0000FF" points="68,1017.2891,58,1021.2891,68,1025.2891,64,1021.2891" style="stroke: #0000FF; stroke-width: 1.0;"/><line style="stroke: #0000FF; stroke-width: 1.0;" x1="62" x2="233" y1="1021.2891" y2="1021.2891"/><text fill="#2027E8" font-family="sans-serif" font-size="16" font-weight="bold" lengthAdjust="spacingAndGlyphs" textLength="130" x="74" y="1016.1406">Return control</text><rect fill="#FFFFFF" filter="url(#flcwaq7)" height="47.25" style="stroke: #000000; stroke-width: 2.0;" width="282.5" x="5" y="1029.9141"/><polygon fill="#EEEEEE" points="5,1029.9141,76,1029.9141,76,1039.9141,66,1049.9141,5,1049.9141,5,1029.9141" style="stroke: #000000; stroke-width: 2.0;"/><text fill="#000000" font-family="sans-serif" font-size="16" font-weight="bold" lengthAdjust="spacingAndGlyphs" textLength="26" x="18" y="1046.7656">ref</text><text fill="#000000" font-family="sans-serif" font-size="16" lengthAdjust="spacingAndGlyphs" textLength="144" x="76.25" y="1068.7656">Events Processing</text></g></svg>