<?xml version="1.0" encoding="UTF-8" standalone="no"?><svg xmlns="http://www.w3.org/2000/svg" xmlns:xlink="http://www.w3.org/1999/xlink" contentScriptType="application/ecmascript" contentStyleType="text/css" height="661px" preserveAspectRatio="none" style="width:1162px;height:661px;" version="1.1" viewBox="0 0 1162 661" width="1162px" zoomAndPan="magnify"><defs><filter height="300%" id="fenaeqo" width="300%" x="-1" y="-1"><feGaussianBlur result="blurOut" stdDeviation="2.0"/><feColorMatrix in="blurOut" result="blurOut2" type="matrix" values="0 0 0 0 0 0 0 0 0 0 0 0 0 0 0 0 0 0 .4 0"/><feOffset dx="4.0" dy="4.0" in="blurOut2" result="blurOut3"/><feBlend in="SourceGraphic" in2="blurOut3" mode="normal"/></filter></defs><g><ellipse cx="117.5" cy="18" fill="#000000" filter="url(#fenaeqo)" rx="10" ry="10" style="stroke: none; stroke-width: 1.0;"/><ellipse cx="1046.5" cy="644" fill="none" filter="url(#fenaeqo)" rx="10" ry="10" style="stroke: #000000; stroke-width: 1.0;"/><ellipse cx="1047" cy="644.5" fill="#000000" rx="6" ry="6" style="stroke: none; stroke-width: 1.0;"/><rect fill="#B2EDEA" filter="url(#fenaeqo)" height="362.2969" rx="12.5" ry="12.5" style="stroke: #000000; stroke-width: 1.5;" width="223" x="6" y="195"/><rect fill="#FFFFFF" height="330" rx="12.5" ry="12.5" style="stroke: #FFFFFF; stroke-width: 1.0;" width="217" x="9" y="224.2969"/><line style="stroke: #000000; stroke-width: 1.5;" x1="6" x2="229" y1="221.2969" y2="221.2969"/><text fill="#000000" font-family="sans-serif" font-size="14" lengthAdjust="spacingAndGlyphs" textLength="79" x="78" y="212.9951">Initialization</text><rect fill="#B2EDEA" filter="url(#fenaeqo)" height="50" rx="12.5" ry="12.5" style="stroke: #000000; stroke-width: 1.5;" width="149" x="32" y="234.2969"/><line style="stroke: #000000; stroke-width: 1.5;" x1="32" x2="181" y1="260.5938" y2="260.5938"/><text fill="#000000" font-family="sans-serif" font-size="14" lengthAdjust="spacingAndGlyphs" textLength="129" x="42" y="252.292">Loading C++ Core</text><rect fill="#B2EDEA" filter="url(#fenaeqo)" height="50" rx="12.5" ry="12.5" style="stroke: #000000; stroke-width: 1.5;" width="139" x="37" y="320.2969"/><line style="stroke: #000000; stroke-width: 1.5;" x1="37" x2="176" y1="346.5938" y2="346.5938"/><text fill="#000000" font-family="sans-serif" font-size="14" lengthAdjust="spacingAndGlyphs" textLength="119" x="47" y="338.292">Loading Lua Core</text><rect fill="#B2EDEA" filter="url(#fenaeqo)" height="50" rx="12.5" ry="12.5" style="stroke: #000000; stroke-width: 1.5;" width="161" x="26" y="406.2969"/><line style="stroke: #000000; stroke-width: 1.5;" x1="26" x2="187" y1="432.5938" y2="432.5938"/><text fill="#000000" font-family="sans-serif" font-size="14" lengthAdjust="spacingAndGlyphs" textLength="141" x="36" y="424.292">Loading User Scripts</text><rect fill="#B2EDEA" filter="url(#fenaeqo)" height="50" rx="12.5" ry="12.5" style="stroke: #000000; stroke-width: 1.5;" width="179" x="17" y="492.2969"/><line style="stroke: #000000; stroke-width: 1.5;" x1="17" x2="196" y1="518.5938" y2="518.5938"/><text fill="#000000" font-family="sans-serif" font-size="14" lengthAdjust="spacingAndGlyphs" textLength="159" x="27" y="510.292">Test Cases Generation</text><path d="M106.5,284.5929 C106.5,294.0829 106.5,305.0499 106.5,314.9739 " fill="none" style="stroke: #0000FF; stroke-width: 1.0;"/><polygon fill="#0000FF" points="106.5,320.0549,110.5,311.0549,106.5,315.0549,102.5,311.0549,106.5,320.0549" style="stroke: #0000FF; stroke-width: 1.0;"/><path d="M106.5,370.5929 C106.5,380.0829 106.5,391.0499 106.5,400.9739 " fill="none" style="stroke: #0000FF; stroke-width: 1.0;"/><polygon fill="#0000FF" points="106.5,406.0549,110.5,397.0549,106.5,401.0549,102.5,397.0549,106.5,406.0549" style="stroke: #0000FF; stroke-width: 1.0;"/><path d="M106.5,456.5932 C106.5,466.0833 106.5,477.0496 106.5,486.9738 " fill="none" style="stroke: #0000FF; stroke-width: 1.0;"/><polygon fill="#0000FF" points="106.5,492.0552,110.5,483.0552,106.5,487.0552,102.5,483.0552,106.5,492.0552" style="stroke: #0000FF; stroke-width: 1.0;"/><rect fill="#B2EDEA" filter="url(#fenaeqo)" height="330.2969" rx="12.5" ry="12.5" style="stroke: #000000; stroke-width: 1.5;" width="532" x="328.5" y="211"/><rect fill="#FFFFFF" height="298" rx="12.5" ry="12.5" style="stroke: #FFFFFF; stroke-width: 1.0;" width="526" x="331.5" y="240.2969"/><line style="stroke: #000000; stroke-width: 1.5;" x1="328.5" x2="860.5" y1="237.2969" y2="237.2969"/><text fill="#000000" font-family="sans-serif" font-size="14" lengthAdjust="spacingAndGlyphs" textLength="52" x="568.5" y="228.9951">Testing</text><rect fill="#B2EDEA" filter="url(#fenaeqo)" height="276.2969" rx="12.5" ry="12.5" style="stroke: #000000; stroke-width: 1.5;" width="272" x="555.5" y="250.2969"/><rect fill="#FFFFFF" height="244" rx="12.5" ry="12.5" style="stroke: #FFFFFF; stroke-width: 1.0;" width="266" x="558.5" y="279.5938"/><line style="stroke: #000000; stroke-width: 1.5;" x1="555.5" x2="827.5" y1="276.5938" y2="276.5938"/><text fill="#000000" font-family="sans-serif" font-size="14" lengthAdjust="spacingAndGlyphs" textLength="142" x="620.5" y="268.292">Test Case Execution</text><rect fill="#B2EDEA" filter="url(#fenaeqo)" height="50" rx="12.5" ry="12.5" style="stroke: #000000; stroke-width: 1.5;" width="228" x="566.5" y="289.5938"/><line style="stroke: #000000; stroke-width: 1.5;" x1="566.5" x2="794.5" y1="315.8906" y2="315.8906"/><text fill="#000000" font-family="sans-serif" font-size="14" lengthAdjust="spacingAndGlyphs" textLength="208" x="576.5" y="307.5889">Check expectation HMI/Mobile</text><rect fill="#B2EDEA" filter="url(#fenaeqo)" height="50" rx="12.5" ry="12.5" style="stroke: #000000; stroke-width: 1.5;" width="167" x="597" y="375.5938"/><line style="stroke: #000000; stroke-width: 1.5;" x1="597" x2="764" y1="401.8906" y2="401.8906"/><text fill="#000000" font-family="sans-serif" font-size="14" lengthAdjust="spacingAndGlyphs" textLength="147" x="607" y="393.5889">Emulation HMI/Mobile</text><rect fill="#B2EDEA" filter="url(#fenaeqo)" height="50" rx="12.5" ry="12.5" style="stroke: #000000; stroke-width: 1.5;" width="153" x="604" y="461.5938"/><line style="stroke: #000000; stroke-width: 1.5;" x1="604" x2="757" y1="487.8906" y2="487.8906"/><text fill="#000000" font-family="sans-serif" font-size="14" lengthAdjust="spacingAndGlyphs" textLength="133" x="614" y="479.5889">Adding expectation</text><path d="M680.5,339.8898 C680.5,349.3798 680.5,360.3468 680.5,370.2708 " fill="none" style="stroke: #0000FF; stroke-width: 1.0;"/><polygon fill="#0000FF" points="680.5,375.3518,684.5,366.3518,680.5,370.3518,676.5,366.3518,680.5,375.3518" style="stroke: #0000FF; stroke-width: 1.0;"/><path d="M680.5,425.8901 C680.5,435.3802 680.5,446.3465 680.5,456.2707 " fill="none" style="stroke: #0000FF; stroke-width: 1.0;"/><polygon fill="#0000FF" points="680.5,461.352,684.5,452.352,680.5,456.352,676.5,452.352,680.5,461.352" style="stroke: #0000FF; stroke-width: 1.0;"/><rect fill="#B2EDEA" filter="url(#fenaeqo)" height="190.2969" rx="12.5" ry="12.5" style="stroke: #000000; stroke-width: 1.5;" width="198" x="339.5" y="293.2969"/><rect fill="#FFFFFF" height="158" rx="12.5" ry="12.5" style="stroke: #FFFFFF; stroke-width: 1.0;" width="192" x="342.5" y="322.5938"/><line style="stroke: #000000; stroke-width: 1.5;" x1="339.5" x2="537.5" y1="319.5938" y2="319.5938"/><text fill="#000000" font-family="sans-serif" font-size="14" lengthAdjust="spacingAndGlyphs" textLength="105" x="386" y="311.292">Core Execution</text><rect fill="#B2EDEA" filter="url(#fenaeqo)" height="50" rx="12.5" ry="12.5" style="stroke: #000000; stroke-width: 1.5;" width="121" x="367" y="332.5938"/><line style="stroke: #000000; stroke-width: 1.5;" x1="367" x2="488" y1="358.8906" y2="358.8906"/><text fill="#000000" font-family="sans-serif" font-size="14" lengthAdjust="spacingAndGlyphs" textLength="101" x="377" y="350.5889">Waiting Events</text><rect fill="#B2EDEA" filter="url(#fenaeqo)" height="50" rx="12.5" ry="12.5" style="stroke: #000000; stroke-width: 1.5;" width="154" x="350.5" y="418.5938"/><line style="stroke: #000000; stroke-width: 1.5;" x1="350.5" x2="504.5" y1="444.8906" y2="444.8906"/><text fill="#000000" font-family="sans-serif" font-size="14" lengthAdjust="spacingAndGlyphs" textLength="134" x="360.5" y="436.5889">Processing by Core</text><path d="M427.5,382.8901 C427.5,392.3802 427.5,403.3465 427.5,413.2707 " fill="none" style="stroke: #0000FF; stroke-width: 1.0;"/><polygon fill="#0000FF" points="427.5,418.352,431.5,409.352,427.5,413.352,423.5,409.352,427.5,418.352" style="stroke: #0000FF; stroke-width: 1.0;"/><path d="M537.822,388.2969 C541.902,388.2969 545.983,388.2969 550.063,388.2969 " fill="none" style="stroke: #0000FF; stroke-width: 1.0;"/><polygon fill="#0000FF" points="555.231,388.2969,546.231,384.2969,550.231,388.2969,546.231,392.2969,555.231,388.2969" style="stroke: #0000FF; stroke-width: 1.0;"/><rect fill="#B2EDEA" filter="url(#fenaeqo)" height="190.2969" rx="12.5" ry="12.5" style="stroke: #000000; stroke-width: 1.5;" width="218" x="937.5" y="281"/><rect fill="#FFFFFF" height="158" rx="12.5" ry="12.5" style="stroke: #FFFFFF; stroke-width: 1.0;" width="212" x="940.5" y="310.2969"/><line style="stroke: #000000; stroke-width: 1.5;" x1="937.5" x2="1155.5" y1="307.2969" y2="307.2969"/><text fill="#000000" font-family="sans-serif" font-size="14" lengthAdjust="spacingAndGlyphs" textLength="100" x="996.5" y="298.9951">Shutting down</text><rect fill="#B2EDEA" filter="url(#fenaeqo)" height="50" rx="12.5" ry="12.5" style="stroke: #000000; stroke-width: 1.5;" width="164" x="953.5" y="320.2969"/><line style="stroke: #000000; stroke-width: 1.5;" x1="953.5" x2="1117.5" y1="346.5938" y2="346.5938"/><text fill="#000000" font-family="sans-serif" font-size="14" lengthAdjust="spacingAndGlyphs" textLength="144" x="963.5" y="338.292">De-initialize Lua Core</text><rect fill="#B2EDEA" filter="url(#fenaeqo)" height="50" rx="12.5" ry="12.5" style="stroke: #000000; stroke-width: 1.5;" width="174" x="948.5" y="406.2969"/><line style="stroke: #000000; stroke-width: 1.5;" x1="948.5" x2="1122.5" y1="432.5938" y2="432.5938"/><text fill="#000000" font-family="sans-serif" font-size="14" lengthAdjust="spacingAndGlyphs" textLength="154" x="958.5" y="424.292">De-initialize C++ Core</text><path d="M1035.5,370.5932 C1035.5,380.0833 1035.5,391.0496 1035.5,400.9738 " fill="none" style="stroke: #0000FF; stroke-width: 1.0;"/><polygon fill="#0000FF" points="1035.5,406.0552,1039.5,397.0552,1035.5,401.0552,1031.5,397.0552,1035.5,406.0552" style="stroke: #0000FF; stroke-width: 1.0;"/><path d="M117.5,28.158 C117.5,52.231 117.5,120.237 117.5,189.725 " fill="none" style="stroke: #0000FF; stroke-width: 1.0;"/><polygon fill="#0000FF" points="117.5,194.73,121.5,185.73,117.5,189.73,113.5,185.73,117.5,194.73" style="stroke: #0000FF; stroke-width: 1.0;"/><text fill="#000000" font-family="sans-serif" font-size="13" lengthAdjust="spacingAndGlyphs" textLength="143" x="118.5" y="116.0669">[Platform initialization]</text><path d="M229.034,376 C257.782,376 290.005,376 323.088,376 " fill="none" style="stroke: #0000FF; stroke-width: 1.0;"/><polygon fill="#0000FF" points="328.405,376,319.405,372,323.405,376,319.405,380,328.405,376" style="stroke: #0000FF; stroke-width: 1.0;"/><text fill="#000000" font-family="sans-serif" font-size="13" lengthAdjust="spacingAndGlyphs" textLength="63" x="247.25" y="369.0669">[Success]</text><path d="M229.128,258.206 C254.702,235.248 282.843,212.811 311.5,195 C410.774,133.299 442.518,123.009 557.5,102 C703.615,75.303 754.168,113.737 878.5,195 C912.159,216.999 943.704,247.174 970.167,276.58 " fill="none" style="stroke: #0000FF; stroke-width: 1.0;"/><polygon fill="#0000FF" points="973.701,280.535,970.6891,271.158,970.3703,276.8058,964.7225,276.4871,973.701,280.535" style="stroke: #0000FF; stroke-width: 1.0;"/><text fill="#000000" font-family="sans-serif" font-size="13" lengthAdjust="spacingAndGlyphs" textLength="52" x="558.5" y="71.0669">[Failure]</text><text fill="#000000" font-family="sans-serif" font-size="13" lengthAdjust="spacingAndGlyphs" textLength="0" x="586.5" y="86.1997"/><text fill="#000000" font-family="sans-serif" font-size="13" lengthAdjust="spacingAndGlyphs" textLength="0" x="586.5" y="101.3325"/><text fill="#000000" font-family="sans-serif" font-size="13" lengthAdjust="spacingAndGlyphs" textLength="0" x="586.5" y="116.4653"/><text fill="#000000" font-family="sans-serif" font-size="13" lengthAdjust="spacingAndGlyphs" textLength="0" x="586.5" y="131.5981"/><text fill="#000000" font-family="sans-serif" font-size="13" lengthAdjust="spacingAndGlyphs" textLength="0" x="586.5" y="146.731"/><text fill="#000000" font-family="sans-serif" font-size="13" lengthAdjust="spacingAndGlyphs" textLength="0" x="586.5" y="161.8638"/><path d="M860.698,376 C885.642,376 909.911,376 932.237,376 " fill="none" style="stroke: #0000FF; stroke-width: 1.0;"/><polygon fill="#0000FF" points="937.268,376,928.268,372,932.268,376,928.268,380,937.268,376" style="stroke: #0000FF; stroke-width: 1.0;"/><text fill="#000000" font-family="sans-serif" font-size="13" lengthAdjust="spacingAndGlyphs" textLength="40" x="879" y="369.0669">[Stop]</text><path d="M1046.5,471.156 C1046.5,529.686 1046.5,599.2166 1046.5,628.6759 " fill="none" style="stroke: #0000FF; stroke-width: 1.0;"/><polygon fill="#0000FF" points="1046.5,633.6986,1050.5,624.6986,1046.5,628.6986,1042.5,624.6986,1046.5,633.6986" style="stroke: #0000FF; stroke-width: 1.0;"/><text fill="#000000" font-family="sans-serif" font-size="13" lengthAdjust="spacingAndGlyphs" textLength="33" x="1047.5" y="600.0669">[Exit]</text></g></svg>