<?xml version="1.0" encoding="UTF-8" standalone="no"?><svg xmlns="http://www.w3.org/2000/svg" xmlns:xlink="http://www.w3.org/1999/xlink" contentScriptType="application/ecmascript" contentStyleType="text/css" height="226px" preserveAspectRatio="none" style="width:1204px;height:226px;" version="1.1" viewBox="0 0 1204 226" width="1204px" zoomAndPan="magnify"><defs/><g><text fill="#000000" font-family="sans-serif" font-size="18" lengthAdjust="spacingAndGlyphs" textLength="202" x="509.5" y="16.708">Test Domain overview</text><!--entity user--><ellipse cx="608.5" cy="55.25" fill="#FFFFFF" rx="8" ry="8" style="stroke: #0000FF; stroke-width: 2.0;"/><path d="M608.5,63.25 L608.5,90.25 M595.5,71.25 L621.5,71.25 M608.5,90.25 L595.5,105.25 M608.5,90.25 L621.5,105.25 " fill="#FFFFFF" style="stroke: #0000FF; stroke-width: 2.0;"/><text fill="#000000" font-family="sans-serif" font-size="14" lengthAdjust="spacingAndGlyphs" textLength="97" x="560" y="121.2451">Test Engineer</text><text fill="#000000" font-family="sans-serif" font-size="14" font-style="italic" lengthAdjust="spacingAndGlyphs" textLength="49" x="584" y="41.9482">«User»</text><ellipse cx="92.5998" cy="205.6731" fill="#FFFFFF" rx="86.5998" ry="19.72" style="stroke: #000000; stroke-width: 1.5;"/><text fill="#000000" font-family="sans-serif" font-size="14" lengthAdjust="spacingAndGlyphs" textLength="146" x="19.5998" y="210.3215">Review requirements</text><ellipse cx="359.4934" cy="205.6518" fill="#FFFFFF" rx="83.9934" ry="19.1987" style="stroke: #000000; stroke-width: 1.5;"/><text fill="#000000" font-family="sans-serif" font-size="14" lengthAdjust="spacingAndGlyphs" textLength="140" x="289.4934" y="210.3002">Test Case preparing</text><ellipse cx="608.6672" cy="205.5866" fill="#FFFFFF" rx="68.6672" ry="16.1334" style="stroke: #000000; stroke-width: 1.5;"/><text fill="#000000" font-family="sans-serif" font-size="14" lengthAdjust="spacingAndGlyphs" textLength="103" x="557.1672" y="210.235">Test execution</text><ellipse cx="859.728" cy="205.4987" fill="#FFFFFF" rx="85.728" ry="19.5456" style="stroke: #000000; stroke-width: 1.5;"/><text fill="#000000" font-family="sans-serif" font-size="14" lengthAdjust="spacingAndGlyphs" textLength="144" x="787.728" y="210.1472">Test result collection</text><ellipse cx="1122.5624" cy="205.4656" fill="#FFFFFF" rx="80.5624" ry="18.5125" style="stroke: #000000; stroke-width: 1.5;"/><text fill="#000000" font-family="sans-serif" font-size="14" lengthAdjust="spacingAndGlyphs" textLength="132" x="1056.5624" y="210.114">Test result analisys</text><path d="M559.956,89.8541 C464.119,113.3491 251.077,165.5772 149.07,190.5848 " fill="none" style="stroke: #0000FF; stroke-width: 1.0;"/><path d="M559.899,102.6441 C510.364,127.8096 434.906,166.1445 392.114,187.884 " fill="none" style="stroke: #0000FF; stroke-width: 1.0;"/><path d="M608.5,125.057 C608.5,147.8166 608.5,173.5654 608.5,189.406 " fill="none" style="stroke: #0000FF; stroke-width: 1.0;"/><path d="M657.193,102.4931 C706.805,127.4972 782.436,165.6143 825.798,187.4677 " fill="none" style="stroke: #0000FF; stroke-width: 1.0;"/><path d="M657.319,89.9681 C754.048,113.7741 969.325,166.7553 1069.42,191.3905 " fill="none" style="stroke: #0000FF; stroke-width: 1.0;"/><path d="M184.266,205.4531 C213.713,205.4531 246.172,205.4531 275.068,205.4531 " fill="none" style="stroke: #0000FF; stroke-width: 1.0; stroke-dasharray: 7.0,7.0;"/><polygon fill="#0000FF" points="179.187,205.4531,188.187,209.4531,184.187,205.4531,188.187,201.4531,179.187,205.4531" style="stroke: #0000FF; stroke-width: 1.0;"/><text fill="#000000" font-family="sans-serif" font-size="13" lengthAdjust="spacingAndGlyphs" textLength="60" x="197.25" y="198.52">«extend»</text><path d="M448.971,205.4531 C478.947,205.4531 511.872,205.4531 539.986,205.4531 " fill="none" style="stroke: #0000FF; stroke-width: 1.0; stroke-dasharray: 7.0,7.0;"/><polygon fill="#0000FF" points="443.8,205.4531,452.8,209.4531,448.8,205.4531,452.8,201.4531,443.8,205.4531" style="stroke: #0000FF; stroke-width: 1.0;"/><text fill="#000000" font-family="sans-serif" font-size="13" lengthAdjust="spacingAndGlyphs" textLength="60" x="461.75" y="198.52">«extend»</text><path d="M682.397,205.4531 C711.119,205.4531 744.208,205.4531 773.954,205.4531 " fill="none" style="stroke: #0000FF; stroke-width: 1.0; stroke-dasharray: 7.0,7.0;"/><polygon fill="#0000FF" points="677.087,205.4531,686.087,209.4531,682.087,205.4531,686.087,201.4531,677.087,205.4531" style="stroke: #0000FF; stroke-width: 1.0;"/><text fill="#000000" font-family="sans-serif" font-size="13" lengthAdjust="spacingAndGlyphs" textLength="60" x="695.5" y="198.52">«extend»</text><path d="M950.376,205.4531 C980.087,205.4531 1012.87,205.4531 1041.78,205.4531 " fill="none" style="stroke: #0000FF; stroke-width: 1.0; stroke-dasharray: 7.0,7.0;"/><polygon fill="#0000FF" points="945.252,205.4531,954.252,209.4531,950.252,205.4531,954.252,201.4531,945.252,205.4531" style="stroke: #0000FF; stroke-width: 1.0;"/><text fill="#000000" font-family="sans-serif" font-size="13" lengthAdjust="spacingAndGlyphs" textLength="60" x="963.5" y="198.52">«extend»</text></g></svg>