<?xml version="1.0" encoding="UTF-8" standalone="yes"?><svg xmlns="http://www.w3.org/2000/svg" xmlns:xlink="http://www.w3.org/1999/xlink" height="225px" style="width:958px;height:225px;" version="1.1" viewBox="0 0 958 225" width="958px"><defs/><g><text fill="#000000" font-family="sans-serif" font-size="18" lengthAdjust="spacingAndGlyphs" textLength="202" x="386.5" y="16.708">Test Domain overview</text><!--entity user--><ellipse cx="486.5" cy="55.25" fill="#FFFFFF" rx="8" ry="8" style="stroke: #0000FF; stroke-width: 2.0;"/><path d="M486.5,63.25 L486.5,90.25 M473.5,71.25 L499.5,71.25 M486.5,90.25 L473.5,105.25 M486.5,90.25 L499.5,105.25 " fill="#FFFFFF" style="stroke: #0000FF; stroke-width: 2.0;"/><text fill="#000000" font-family="sans-serif" font-size="14" lengthAdjust="spacingAndGlyphs" textLength="97" x="438" y="121.2451">Test Engineer</text><text fill="#000000" font-family="sans-serif" font-size="14" font-style="italic" lengthAdjust="spacingAndGlyphs" textLength="49" x="462" y="41.9482">«User»</text><ellipse cx="92.5998" cy="204.6731" fill="#FFFFFF" rx="86.5998" ry="19.72" style="stroke: #000000; stroke-width: 1.5;"/><text fill="#000000" font-family="sans-serif" font-size="14" lengthAdjust="spacingAndGlyphs" textLength="146" x="19.5998" y="209.3215">Review requirements</text><ellipse cx="298.4934" cy="204.6518" fill="#FFFFFF" rx="83.9934" ry="19.1987" style="stroke: #000000; stroke-width: 1.5;"/><text fill="#000000" font-family="sans-serif" font-size="14" lengthAdjust="spacingAndGlyphs" textLength="140" x="228.4934" y="209.3002">Test Case preparing</text><ellipse cx="486.6672" cy="204.5866" fill="#FFFFFF" rx="68.6672" ry="16.1334" style="stroke: #000000; stroke-width: 1.5;"/><text fill="#000000" font-family="sans-serif" font-size="14" lengthAdjust="spacingAndGlyphs" textLength="103" x="435.1672" y="209.235">Test execution</text><ellipse cx="675.728" cy="204.4987" fill="#FFFFFF" rx="85.728" ry="19.5456" style="stroke: #000000; stroke-width: 1.5;"/><text fill="#000000" font-family="sans-serif" font-size="14" lengthAdjust="spacingAndGlyphs" textLength="144" x="603.728" y="209.1472">Test result collection</text><ellipse cx="876.5624" cy="204.4656" fill="#FFFFFF" rx="80.5624" ry="18.5125" style="stroke: #000000; stroke-width: 1.5;"/><text fill="#000000" font-family="sans-serif" font-size="14" lengthAdjust="spacingAndGlyphs" textLength="132" x="810.5624" y="209.114">Test result analisys</text><path d="M437.793,93.4681 C361.82,117.6671 216.005,164.1133 140.48,188.17 " fill="none" style="stroke: #0000FF; stroke-width: 1.0;"/><path d="M437.596,110.5991 C401.367,134.784 353.425,166.7876 324.332,186.2091 " fill="none" style="stroke: #0000FF; stroke-width: 1.0;"/><path d="M486.5,125.0417 C486.5,147.4378 486.5,172.6773 486.5,188.3256 " fill="none" style="stroke: #0000FF; stroke-width: 1.0;"/><path d="M535.172,110.2721 C571.375,134.3118 619.418,166.2132 648.861,185.7641 " fill="none" style="stroke: #0000FF; stroke-width: 1.0;"/><path d="M535.105,93.5941 C611.269,118.1031 757.65,165.2077 831.517,188.9777 " fill="none" style="stroke: #0000FF; stroke-width: 1.0;"/><path d="M184.27,204.4531 C194.34,204.4531 204.409,204.4531 214.479,204.4531 " fill="none" style="stroke: #0000FF; stroke-width: 1.0; stroke-dasharray: 7.0,7.0;"/><polygon fill="#0000FF" points="179.004,204.4531,188.004,208.4531,184.004,204.4531,188.004,200.4531,179.004,204.4531" style="stroke: #0000FF; stroke-width: 1.0;"/><path d="M387.828,204.4531 C397.852,204.4531 407.876,204.4531 417.9,204.4531 " fill="none" style="stroke: #0000FF; stroke-width: 1.0; stroke-dasharray: 7.0,7.0;"/><polygon fill="#0000FF" points="382.586,204.4531,391.586,208.4531,387.586,204.4531,391.586,200.4531,382.586,204.4531" style="stroke: #0000FF; stroke-width: 1.0;"/><path d="M560.324,204.4531 C570.198,204.4531 580.072,204.4531 589.946,204.4531 " fill="none" style="stroke: #0000FF; stroke-width: 1.0; stroke-dasharray: 7.0,7.0;"/><polygon fill="#0000FF" points="555.16,204.4531,564.16,208.4531,560.16,204.4531,564.16,200.4531,555.16,204.4531" style="stroke: #0000FF; stroke-width: 1.0;"/><path d="M766.235,204.4531 C776.089,204.4531 785.943,204.4531 795.798,204.4531 " fill="none" style="stroke: #0000FF; stroke-width: 1.0; stroke-dasharray: 7.0,7.0;"/><polygon fill="#0000FF" points="761.082,204.4531,770.082,208.4531,766.082,204.4531,770.082,200.4531,761.082,204.4531" style="stroke: #0000FF; stroke-width: 1.0;"/></g></svg>