<?xml version="1.0" encoding="UTF-8" standalone="yes"?><svg xmlns="http://www.w3.org/2000/svg" xmlns:xlink="http://www.w3.org/1999/xlink" height="353px" style="width:647px;height:353px;" version="1.1" viewBox="0 0 647 353" width="647px"><defs/><g><text fill="#000000" font-family="sans-serif" font-size="18" lengthAdjust="spacingAndGlyphs" textLength="155" x="262.5" y="16.708">SDL manipulation</text><!--cluster ATF--><rect fill="#FFFFFF" height="198" style="stroke: #000000; stroke-width: 2.0;" width="624" x="22" y="154.9531"/><text fill="#000000" font-family="sans-serif" font-size="14" font-weight="bold" lengthAdjust="spacingAndGlyphs" textLength="30" x="319" y="169.9482">ATF</text><ellipse cx="296.1122" cy="207.3756" fill="#FFFFFF" rx="75.1122" ry="17.4224" style="stroke: #000000; stroke-width: 1.5;"/><text fill="#000000" font-family="sans-serif" font-size="14" lengthAdjust="spacingAndGlyphs" textLength="119" x="236.6122" y="212.024">SDL manipulation</text><ellipse cx="86.0477" cy="319.4768" fill="#FFFFFF" rx="47.5477" ry="14.5236" style="stroke: #000000; stroke-width: 1.5;"/><text fill="#000000" font-family="sans-serif" font-size="14" lengthAdjust="spacingAndGlyphs" textLength="63" x="54.5477" y="324.1252">Start SDL</text><ellipse cx="216.0477" cy="319.4768" fill="#FFFFFF" rx="47.5477" ry="14.5236" style="stroke: #000000; stroke-width: 1.5;"/><text fill="#000000" font-family="sans-serif" font-size="14" lengthAdjust="spacingAndGlyphs" textLength="63" x="184.5477" y="324.1252">Stop SDL</text><ellipse cx="370.7526" cy="319.3036" fill="#FFFFFF" rx="72.2526" ry="16.8505" style="stroke: #000000; stroke-width: 1.5;"/><text fill="#000000" font-family="sans-serif" font-size="14" lengthAdjust="spacingAndGlyphs" textLength="112" x="314.7526" y="323.9521">Handle SDL logs</text><ellipse cx="554.0253" cy="319.4582" fill="#FFFFFF" rx="75.5253" ry="17.5051" style="stroke: #000000; stroke-width: 1.5;"/><text fill="#000000" font-family="sans-serif" font-size="14" lengthAdjust="spacingAndGlyphs" textLength="120" x="494.0253" y="324.1066">Detect SDL crash</text><!--entity script--><ellipse cx="253" cy="38.9531" fill="#FFFFFF" rx="8" ry="8" style="stroke: #0000FF; stroke-width: 2.0;"/><path d="M253,46.9531 L253,73.9531 M240,54.9531 L266,54.9531 M253,73.9531 L240,88.9531 M253,73.9531 L266,88.9531 " fill="#FFFFFF" style="stroke: #0000FF; stroke-width: 2.0;"/><text fill="#000000" font-family="sans-serif" font-size="14" lengthAdjust="spacingAndGlyphs" textLength="74" x="216" y="104.9482">Test Script</text><!--entity SDL--><ellipse cx="340" cy="38.9531" fill="#FFFFFF" rx="8" ry="8" style="stroke: #0000FF; stroke-width: 2.0;"/><path d="M340,46.9531 L340,73.9531 M327,54.9531 L353,54.9531 M340,73.9531 L327,88.9531 M340,73.9531 L353,88.9531 " fill="#FFFFFF" style="stroke: #0000FF; stroke-width: 2.0;"/><text fill="#000000" font-family="sans-serif" font-size="14" lengthAdjust="spacingAndGlyphs" textLength="27" x="326.5" y="104.9482">SDL</text><path d="M265.092,107.9801 C273.538,134.8881 284.396,169.4841 290.739,189.6911 " fill="none" style="stroke: #0000FF; stroke-width: 1.0;"/><path d="M327.626,107.9801 C318.984,134.8881 307.873,169.4841 301.384,189.6911 " fill="none" style="stroke: #0000FF; stroke-width: 1.0;"/><path d="M227.853,214.7661 C193.904,220.7441 153.847,232.3671 124,254.9531 C108.813,266.4451 98.4722,285.9211 92.4578,300.2806 " fill="none" style="stroke: #0000FF; stroke-width: 1.0; stroke-dasharray: 7.0,7.0;"/><polygon fill="#0000FF" points="90.5833,304.9352,97.656,298.0813,92.4513,300.2973,90.2353,295.0925,90.5833,304.9352" style="stroke: #0000FF; stroke-width: 1.0;"/><text fill="#000000" font-family="sans-serif" font-size="13" lengthAdjust="spacingAndGlyphs" textLength="89" x="125" y="268.02">&lt;&lt;include&gt;&gt;</text><path d="M265.098,223.6331 C252.415,231.3481 238.695,241.8821 230,254.9531 C221.168,268.2291 217.82,286.187 216.593,299.618 " fill="none" style="stroke: #0000FF; stroke-width: 1.0; stroke-dasharray: 7.0,7.0;"/><polygon fill="#0000FF" points="216.209,304.7058,220.8755,296.0326,216.5856,299.72,212.8982,295.4301,216.209,304.7058" style="stroke: #0000FF; stroke-width: 1.0;"/><text fill="#000000" font-family="sans-serif" font-size="13" lengthAdjust="spacingAndGlyphs" textLength="89" x="231" y="268.02">&lt;&lt;include&gt;&gt;</text><path d="M308.048,225.1481 C314.358,233.9631 322.173,244.9911 329,254.9531 C338.782,269.2277 349.544,285.5099 357.724,298.0128 " fill="none" style="stroke: #0000FF; stroke-width: 1.0; stroke-dasharray: 7.0,7.0;"/><polygon fill="#0000FF" points="360.615,302.4374,359.0411,292.7151,357.8802,298.2516,352.3438,297.0908,360.615,302.4374" style="stroke: #0000FF; stroke-width: 1.0;"/><text fill="#000000" font-family="sans-serif" font-size="13" lengthAdjust="spacingAndGlyphs" textLength="89" x="341" y="268.02">&lt;&lt;include&gt;&gt;</text><path d="M342.873,221.2431 C371.198,229.5721 407.748,241.3901 439,254.9531 C469.205,268.0621 501.918,286.5812 524.702,300.2393 " fill="none" style="stroke: #0000FF; stroke-width: 1.0; stroke-dasharray: 7.0,7.0;"/><polygon fill="#0000FF" points="529.123,302.9031,523.4799,294.8313,524.8407,300.322,519.35,301.6829,529.123,302.9031" style="stroke: #0000FF; stroke-width: 1.0;"/><text fill="#000000" font-family="sans-serif" font-size="13" lengthAdjust="spacingAndGlyphs" textLength="89" x="472" y="268.02">&lt;&lt;include&gt;&gt;</text></g></svg>