<?xml version="1.0" encoding="UTF-8" standalone="yes"?><svg xmlns="http://www.w3.org/2000/svg" xmlns:xlink="http://www.w3.org/1999/xlink" height="508px" style="width:1183px;height:508px;" version="1.1" viewBox="0 0 1183 508" width="1183px"><defs/><g><text fill="#000000" font-family="sans-serif" font-size="18" lengthAdjust="spacingAndGlyphs" textLength="153" x="531.5" y="16.708">Mobile emulation</text><!--cluster ATF--><rect fill="#FFFFFF" height="230" style="stroke: #000000; stroke-width: 2.0;" width="1160" x="22" y="154.9531"/><text fill="#000000" font-family="sans-serif" font-size="14" font-weight="bold" lengthAdjust="spacingAndGlyphs" textLength="30" x="587" y="169.9482">ATF</text><ellipse cx="561.9543" cy="206.244" fill="#FFFFFF" rx="69.4543" ry="16.2909" style="stroke: #000000; stroke-width: 1.5;"/><text fill="#000000" font-family="sans-serif" font-size="14" lengthAdjust="spacingAndGlyphs" textLength="105" x="509.4543" y="210.8924">Emulate Mobile</text><ellipse cx="109.9465" cy="334.6424" fill="#FFFFFF" rx="71.4465" ry="16.6893" style="stroke: #000000; stroke-width: 1.5;"/><text fill="#000000" font-family="sans-serif" font-size="14" lengthAdjust="spacingAndGlyphs" textLength="110" x="54.9465" y="339.2909">TCP negotiation</text><ellipse cx="333.9541" cy="334.3998" fill="#FFFFFF" rx="82.4541" ry="24.9467" style="stroke: #000000; stroke-width: 1.5;"/><text fill="#000000" font-family="sans-serif" font-size="14" lengthAdjust="spacingAndGlyphs" textLength="92" x="287.9541" y="329.3022">Ford Protocol</text><text fill="#000000" font-family="sans-serif" font-size="14" lengthAdjust="spacingAndGlyphs" textLength="118" x="274.9541" y="345.5991">Packets handling</text><ellipse cx="562.1077" cy="334.6154" fill="#FFFFFF" rx="76.1077" ry="24.6623" style="stroke: #000000; stroke-width: 1.5;"/><text fill="#000000" font-family="sans-serif" font-size="14" lengthAdjust="spacingAndGlyphs" textLength="110" x="507.1077" y="333.1411">Service/Session</text><text fill="#000000" font-family="sans-serif" font-size="14" lengthAdjust="spacingAndGlyphs" textLength="78" x="523.1077" y="349.438">negotiation</text><ellipse cx="815.8578" cy="334.4645" fill="#FFFFFF" rx="107.8578" ry="34.5113" style="stroke: #000000; stroke-width: 1.5;"/><text fill="#000000" font-family="sans-serif" font-size="14" lengthAdjust="spacingAndGlyphs" textLength="78" x="776.8578" y="318.0106">Mobile RPC</text><text fill="#000000" font-family="sans-serif" font-size="14" lengthAdjust="spacingAndGlyphs" textLength="164" x="733.8578" y="350.6044">Video/Audio processing</text><line style="stroke: #000000; stroke-width: 1.0; stroke-dasharray: 1.0,2.0;" x1="710.1397" x2="802.8578" y1="329.4608" y2="329.4608"/><text fill="#000000" font-family="sans-serif" font-size="14" lengthAdjust="spacingAndGlyphs" textLength="26" x="802.8578" y="333.8075">and</text><line style="stroke: #000000; stroke-width: 1.0; stroke-dasharray: 1.0,2.0;" x1="828.8578" x2="921.576" y1="329.4608" y2="329.4608"/><ellipse cx="1080.0671" cy="334.4413" fill="#FFFFFF" rx="86.0671" ry="23.9881" style="stroke: #000000; stroke-width: 1.5;"/><text fill="#000000" font-family="sans-serif" font-size="14" lengthAdjust="spacingAndGlyphs" textLength="129" x="1015.5671" y="334.0126">SDL-to-Mobile RPC</text><text fill="#000000" font-family="sans-serif" font-size="14" lengthAdjust="spacingAndGlyphs" textLength="64" x="1048.0671" y="350.3095">validation</text><!--entity script--><ellipse cx="562" cy="38.9531" fill="#FFFFFF" rx="8" ry="8" style="stroke: #0000FF; stroke-width: 2.0;"/><path d="M562,46.9531 L562,73.9531 M549,54.9531 L575,54.9531 M562,73.9531 L549,88.9531 M562,73.9531 L575,88.9531 " fill="#FFFFFF" style="stroke: #0000FF; stroke-width: 2.0;"/><text fill="#000000" font-family="sans-serif" font-size="14" lengthAdjust="spacingAndGlyphs" textLength="74" x="525" y="104.9482">Test Script</text><!--entity SDL--><ellipse cx="448" cy="441.9531" fill="#FFFFFF" rx="8" ry="8" style="stroke: #0000FF; stroke-width: 2.0;"/><path d="M448,449.9531 L448,476.9531 M435,457.9531 L461,457.9531 M448,476.9531 L435,491.9531 M448,476.9531 L461,491.9531 " fill="#FFFFFF" style="stroke: #0000FF; stroke-width: 2.0;"/><text fill="#000000" font-family="sans-serif" font-size="14" lengthAdjust="spacingAndGlyphs" textLength="27" x="434.5" y="507.9482">SDL</text><path d="M562,108.0611 C562,135.2331 562,170.1571 562,189.9471 " fill="none" style="stroke: #0000FF; stroke-width: 1.0;"/><path d="M506.213,216.3851 C460.149,224.3081 393.275,237.0751 336,252.9531 C268.81,271.5791 192.856,300.2671 148.329,317.8941 " fill="none" style="stroke: #0000FF; stroke-width: 1.0; stroke-dasharray: 7.0,7.0;"/><polygon fill="#0000FF" points="143.589,319.7751,153.4298,320.1731,148.2364,317.9307,150.4788,312.7373,143.589,319.7751" style="stroke: #0000FF; stroke-width: 1.0;"/><text fill="#000000" font-family="sans-serif" font-size="13" lengthAdjust="spacingAndGlyphs" textLength="89" x="337" y="266.02">&lt;&lt;include&gt;&gt;</text><path d="M529.392,221.1911 C509.838,229.7351 484.647,241.2861 463,252.9531 C431.147,270.1211 396.422,291.9831 371.032,308.5901 " fill="none" style="stroke: #0000FF; stroke-width: 1.0; stroke-dasharray: 7.0,7.0;"/><polygon fill="#0000FF" points="366.721,311.4181,376.4401,309.8248,370.9014,308.675,372.0512,303.1363,366.721,311.4181" style="stroke: #0000FF; stroke-width: 1.0;"/><text fill="#000000" font-family="sans-serif" font-size="13" lengthAdjust="spacingAndGlyphs" textLength="89" x="464" y="266.02">&lt;&lt;include&gt;&gt;</text><path d="M562,223.1561 C562,243.4811 562,279.2821 562,304.5751 " fill="none" style="stroke: #0000FF; stroke-width: 1.0; stroke-dasharray: 7.0,7.0;"/><polygon fill="#0000FF" points="562,309.8031,566,300.8031,562,304.8031,558,300.8031,562,309.8031" style="stroke: #0000FF; stroke-width: 1.0;"/><text fill="#000000" font-family="sans-serif" font-size="13" lengthAdjust="spacingAndGlyphs" textLength="89" x="563" y="266.02">&lt;&lt;include&gt;&gt;</text><path d="M593.393,221.4151 C612.95,230.2281 638.57,241.9821 661,252.9531 C693.061,268.6351 728.406,286.9141 757.238,302.0861 " fill="none" style="stroke: #0000FF; stroke-width: 1.0; stroke-dasharray: 7.0,7.0;"/><polygon fill="#0000FF" points="761.808,304.4941,755.7087,296.7612,757.384,302.1643,751.9809,303.8396,761.808,304.4941" style="stroke: #0000FF; stroke-width: 1.0;"/><text fill="#000000" font-family="sans-serif" font-size="13" lengthAdjust="spacingAndGlyphs" textLength="89" x="691" y="266.02">&lt;&lt;include&gt;&gt;</text><path d="M615.441,217.0391 C661.592,225.5861 729.96,238.8891 789,252.9531 C868.728,271.9451 959.617,297.7661 1018.29,314.9911 " fill="none" style="stroke: #0000FF; stroke-width: 1.0; stroke-dasharray: 7.0,7.0;"/><polygon fill="#0000FF" points="1023.17,316.4231,1015.669,310.0407,1018.3742,315.0088,1013.4061,317.714,1023.17,316.4231" style="stroke: #0000FF; stroke-width: 1.0;"/><text fill="#000000" font-family="sans-serif" font-size="13" lengthAdjust="spacingAndGlyphs" textLength="89" x="854" y="266.02">&lt;&lt;include&gt;&gt;</text><path d="M186.914,334.4531 C208.387,334.4531 229.86,334.4531 251.333,334.4531 " fill="none" style="stroke: #0000FF; stroke-width: 1.0; stroke-dasharray: 7.0,7.0;"/><polygon fill="#0000FF" points="181.75,334.4531,190.75,338.4531,186.75,334.4531,190.75,330.4531,181.75,334.4531" style="stroke: #0000FF; stroke-width: 1.0;"/><path d="M421.942,334.4531 C443.204,334.4531 464.466,334.4531 485.728,334.4531 " fill="none" style="stroke: #0000FF; stroke-width: 1.0; stroke-dasharray: 7.0,7.0;"/><polygon fill="#0000FF" points="416.828,334.4531,425.828,338.4531,421.828,334.4531,425.828,330.4531,416.828,334.4531" style="stroke: #0000FF; stroke-width: 1.0;"/><path d="M643.547,334.4531 C664.956,334.4531 686.365,334.4531 707.774,334.4531 " fill="none" style="stroke: #0000FF; stroke-width: 1.0; stroke-dasharray: 7.0,7.0;"/><polygon fill="#0000FF" points="638.398,334.4531,647.398,338.4531,643.398,334.4531,647.398,330.4531,638.398,334.4531" style="stroke: #0000FF; stroke-width: 1.0;"/><path d="M929.201,334.4531 C950.73,334.4531 972.258,334.4531 993.786,334.4531 " fill="none" style="stroke: #0000FF; stroke-width: 1.0; stroke-dasharray: 7.0,7.0;"/><polygon fill="#0000FF" points="924.023,334.4531,933.023,338.4531,929.023,334.4531,933.023,330.4531,924.023,334.4531" style="stroke: #0000FF; stroke-width: 1.0;"/><path d="M138.749,349.6481 C163.682,361.7501 200.87,379.3031 234,392.9531 C307.434,423.2096 397.478,453.7304 432.78,465.4482 " fill="none" style="stroke: #0000FF; stroke-width: 1.0;"/><path d="M353.857,358.9681 C376.312,385.5601 412.389,428.2819 432.744,452.3865 " fill="none" style="stroke: #0000FF; stroke-width: 1.0;"/><path d="M542.661,358.3541 C520.174,384.9841 483.53,428.378 463.056,452.6241 " fill="none" style="stroke: #0000FF; stroke-width: 1.0;"/><path d="M746.349,361.0041 C657.791,393.4921 510.682,447.4584 463.245,464.8606 " fill="none" style="stroke: #0000FF; stroke-width: 1.0;"/></g></svg>