<?xml version="1.0" encoding="UTF-8" standalone="no"?><svg xmlns="http://www.w3.org/2000/svg" xmlns:xlink="http://www.w3.org/1999/xlink" contentScriptType="application/ecmascript" contentStyleType="text/css" height="508px" preserveAspectRatio="none" style="width:1292px;height:508px;" version="1.1" viewBox="0 0 1292 508" width="1292px" zoomAndPan="magnify"><defs/><g><text fill="#000000" font-family="sans-serif" font-size="18" lengthAdjust="spacingAndGlyphs" textLength="153" x="586" y="16.708">Mobile emulation</text><!--cluster ATF--><rect fill="#FFFFFF" height="230" style="stroke: #000000; stroke-width: 2.0;" width="1269" x="22" y="154.9531"/><text fill="#000000" font-family="sans-serif" font-size="14" font-weight="bold" lengthAdjust="spacingAndGlyphs" textLength="30" x="641.5" y="169.9482">ATF</text><ellipse cx="615.9543" cy="206.244" fill="#FFFFFF" rx="69.4543" ry="16.2909" style="stroke: #000000; stroke-width: 1.5;"/><text fill="#000000" font-family="sans-serif" font-size="14" lengthAdjust="spacingAndGlyphs" textLength="105" x="563.4543" y="210.8924">Emulate Mobile</text><ellipse cx="109.9465" cy="334.6424" fill="#FFFFFF" rx="71.4465" ry="16.6893" style="stroke: #000000; stroke-width: 1.5;"/><text fill="#000000" font-family="sans-serif" font-size="14" lengthAdjust="spacingAndGlyphs" textLength="110" x="54.9465" y="339.2909">TCP negotiation</text><ellipse cx="360.9541" cy="334.3998" fill="#FFFFFF" rx="82.4541" ry="24.9467" style="stroke: #000000; stroke-width: 1.5;"/><text fill="#000000" font-family="sans-serif" font-size="14" lengthAdjust="spacingAndGlyphs" textLength="92" x="314.9541" y="329.3022">Ford Protocol</text><text fill="#000000" font-family="sans-serif" font-size="14" lengthAdjust="spacingAndGlyphs" textLength="118" x="301.9541" y="345.5991">Packets handling</text><ellipse cx="616.1077" cy="334.6154" fill="#FFFFFF" rx="76.1077" ry="24.6623" style="stroke: #000000; stroke-width: 1.5;"/><text fill="#000000" font-family="sans-serif" font-size="14" lengthAdjust="spacingAndGlyphs" textLength="110" x="561.1077" y="333.1411">Service/Session</text><text fill="#000000" font-family="sans-serif" font-size="14" lengthAdjust="spacingAndGlyphs" textLength="78" x="577.1077" y="349.438">negotiation</text><ellipse cx="896.8578" cy="334.4645" fill="#FFFFFF" rx="107.8578" ry="34.5113" style="stroke: #000000; stroke-width: 1.5;"/><text fill="#000000" font-family="sans-serif" font-size="14" lengthAdjust="spacingAndGlyphs" textLength="78" x="857.8578" y="318.0106">Mobile RPC</text><text fill="#000000" font-family="sans-serif" font-size="14" lengthAdjust="spacingAndGlyphs" textLength="164" x="814.8578" y="350.6044">Video/Audio processing</text><line style="stroke: #000000; stroke-width: 1.0; stroke-dasharray: 1.0,2.0;" x1="791.1397" x2="883.8578" y1="329.4608" y2="329.4608"/><text fill="#000000" font-family="sans-serif" font-size="14" lengthAdjust="spacingAndGlyphs" textLength="26" x="883.8578" y="333.8075">and</text><line style="stroke: #000000; stroke-width: 1.0; stroke-dasharray: 1.0,2.0;" x1="909.8578" x2="1002.576" y1="329.4608" y2="329.4608"/><ellipse cx="1189.0671" cy="334.4413" fill="#FFFFFF" rx="86.0671" ry="23.9881" style="stroke: #000000; stroke-width: 1.5;"/><text fill="#000000" font-family="sans-serif" font-size="14" lengthAdjust="spacingAndGlyphs" textLength="129" x="1124.5671" y="334.0126">SDL-to-Mobile RPC</text><text fill="#000000" font-family="sans-serif" font-size="14" lengthAdjust="spacingAndGlyphs" textLength="64" x="1157.0671" y="350.3095">validation</text><!--entity script--><ellipse cx="616" cy="38.9531" fill="#FFFFFF" rx="8" ry="8" style="stroke: #0000FF; stroke-width: 2.0;"/><path d="M616,46.9531 L616,73.9531 M603,54.9531 L629,54.9531 M616,73.9531 L603,88.9531 M616,73.9531 L629,88.9531 " fill="#FFFFFF" style="stroke: #0000FF; stroke-width: 2.0;"/><text fill="#000000" font-family="sans-serif" font-size="14" lengthAdjust="spacingAndGlyphs" textLength="74" x="579" y="104.9482">Test Script</text><!--entity SDL--><ellipse cx="488" cy="441.9531" fill="#FFFFFF" rx="8" ry="8" style="stroke: #0000FF; stroke-width: 2.0;"/><path d="M488,449.9531 L488,476.9531 M475,457.9531 L501,457.9531 M488,476.9531 L475,491.9531 M488,476.9531 L501,491.9531 " fill="#FFFFFF" style="stroke: #0000FF; stroke-width: 2.0;"/><text fill="#000000" font-family="sans-serif" font-size="14" lengthAdjust="spacingAndGlyphs" textLength="27" x="474.5" y="507.9482">SDL</text><path d="M616,108.0611 C616,135.2331 616,170.1571 616,189.9471 " fill="none" style="stroke: #0000FF; stroke-width: 1.0;"/><path d="M568.46,218.5501 C529.784,227.6331 473.814,240.9021 425,252.9531 C331.456,276.0461 222.606,304.1351 160.454,320.2891 " fill="none" style="stroke: #0000FF; stroke-width: 1.0; stroke-dasharray: 7.0,7.0;"/><polygon fill="#0000FF" points="155.324,321.6221,165.041,323.2284,160.1631,320.3638,163.0277,315.4859,155.324,321.6221" style="stroke: #0000FF; stroke-width: 1.0;"/><text fill="#000000" font-family="sans-serif" font-size="13" lengthAdjust="spacingAndGlyphs" textLength="61" x="426" y="266.02">«include»</text><path d="M587.244,221.6621 C543.497,243.2781 459.789,284.6401 407.372,310.5401 " fill="none" style="stroke: #0000FF; stroke-width: 1.0; stroke-dasharray: 7.0,7.0;"/><polygon fill="#0000FF" points="402.713,312.8421,412.5538,312.4427,407.1959,310.6278,409.0108,305.27,402.713,312.8421" style="stroke: #0000FF; stroke-width: 1.0;"/><text fill="#000000" font-family="sans-serif" font-size="13" lengthAdjust="spacingAndGlyphs" textLength="61" x="519" y="266.02">«include»</text><path d="M616,223.1561 C616,243.4811 616,279.2821 616,304.5751 " fill="none" style="stroke: #0000FF; stroke-width: 1.0; stroke-dasharray: 7.0,7.0;"/><polygon fill="#0000FF" points="616,309.8031,620,300.8031,616,304.8031,612,300.8031,616,309.8031" style="stroke: #0000FF; stroke-width: 1.0;"/><text fill="#000000" font-family="sans-serif" font-size="13" lengthAdjust="spacingAndGlyphs" textLength="61" x="617" y="266.02">«include»</text><path d="M646.876,221.2981 C690.904,241.0401 772.816,277.7691 830.894,303.8111 " fill="none" style="stroke: #0000FF; stroke-width: 1.0; stroke-dasharray: 7.0,7.0;"/><polygon fill="#0000FF" points="835.734,305.9821,829.158,298.6502,831.1716,303.9366,825.8852,305.9501,835.734,305.9821" style="stroke: #0000FF; stroke-width: 1.0;"/><text fill="#000000" font-family="sans-serif" font-size="13" lengthAdjust="spacingAndGlyphs" textLength="61" x="749" y="266.02">«include»</text><path d="M664.854,218.1961 C766.19,240.4791 999.634,291.8121 1117.76,317.7881 " fill="none" style="stroke: #0000FF; stroke-width: 1.0; stroke-dasharray: 7.0,7.0;"/><polygon fill="#0000FF" points="1122.95,318.9301,1115.0165,313.0941,1118.0662,317.8585,1113.3018,320.9082,1122.95,318.9301" style="stroke: #0000FF; stroke-width: 1.0;"/><text fill="#000000" font-family="sans-serif" font-size="13" lengthAdjust="spacingAndGlyphs" textLength="61" x="886" y="266.02">«include»</text><path d="M186.939,334.4531 C215.848,334.4531 248.821,334.4531 278.237,334.4531 " fill="none" style="stroke: #0000FF; stroke-width: 1.0; stroke-dasharray: 7.0,7.0;"/><polygon fill="#0000FF" points="181.591,334.4531,190.591,338.4531,186.591,334.4531,190.591,330.4531,181.591,334.4531" style="stroke: #0000FF; stroke-width: 1.0;"/><text fill="#000000" font-family="sans-serif" font-size="13" lengthAdjust="spacingAndGlyphs" textLength="60" x="200" y="327.52">«extend»</text><path d="M448.884,334.4531 C478.417,334.4531 511.098,334.4531 539.67,334.4531 " fill="none" style="stroke: #0000FF; stroke-width: 1.0; stroke-dasharray: 7.0,7.0;"/><polygon fill="#0000FF" points="443.791,334.4531,452.791,338.4531,448.791,334.4531,452.791,330.4531,443.791,334.4531" style="stroke: #0000FF; stroke-width: 1.0;"/><text fill="#000000" font-family="sans-serif" font-size="13" lengthAdjust="spacingAndGlyphs" textLength="60" x="461.75" y="327.52">«extend»</text><path d="M697.335,334.4531 C725.935,334.4531 758.537,334.4531 788.985,334.4531 " fill="none" style="stroke: #0000FF; stroke-width: 1.0; stroke-dasharray: 7.0,7.0;"/><polygon fill="#0000FF" points="692.043,334.4531,701.043,338.4531,697.043,334.4531,701.043,330.4531,692.043,334.4531" style="stroke: #0000FF; stroke-width: 1.0;"/><text fill="#000000" font-family="sans-serif" font-size="13" lengthAdjust="spacingAndGlyphs" textLength="60" x="710.5" y="327.52">«extend»</text><path d="M1005.315,334.4531 C1035.69,334.4531 1068.41,334.4531 1097.69,334.4531 " fill="none" style="stroke: #0000FF; stroke-width: 1.0; stroke-dasharray: 7.0,7.0;"/><polygon fill="#0000FF" points="1102.74,334.4531,1093.74,330.4531,1097.74,334.4531,1093.74,338.4531,1102.74,334.4531" style="stroke: #0000FF; stroke-width: 1.0;"/><text fill="#000000" font-family="sans-serif" font-size="13" lengthAdjust="spacingAndGlyphs" textLength="61" x="1023.5" y="327.52">«include»</text><path d="M144.357,348.9271 C174.88,360.8041 220.763,378.4281 261,392.9531 C340.318,421.5852 436.188,453.4126 472.794,465.465 " fill="none" style="stroke: #0000FF; stroke-width: 1.0;"/><path d="M382.832,358.6601 C408.505,385.9511 450.448,430.5353 472.82,454.3166 " fill="none" style="stroke: #0000FF; stroke-width: 1.0;"/><path d="M594.576,358.0491 C568.67,385.3711 525.732,430.6573 503.073,454.5554 " fill="none" style="stroke: #0000FF; stroke-width: 1.0;"/><path d="M823.407,359.7441 C724.282,392.4631 554.366,448.5473 503.085,465.4739 " fill="none" style="stroke: #0000FF; stroke-width: 1.0;"/></g></svg>