<?xml version="1.0" encoding="UTF-8" standalone="no"?><svg xmlns="http://www.w3.org/2000/svg" xmlns:xlink="http://www.w3.org/1999/xlink" contentScriptType="application/ecmascript" contentStyleType="text/css" height="482px" preserveAspectRatio="none" style="width:1105px;height:482px;" version="1.1" viewBox="0 0 1105 482" width="1105px" zoomAndPan="magnify"><defs/><g><text fill="#000000" font-family="sans-serif" font-size="18" lengthAdjust="spacingAndGlyphs" textLength="130" x="504" y="16.708">HMI emulation</text><!--cluster ATF--><rect fill="#FFFFFF" height="204" style="stroke: #000000; stroke-width: 2.0;" width="1082" x="22" y="154.9531"/><text fill="#000000" font-family="sans-serif" font-size="14" font-weight="bold" lengthAdjust="spacingAndGlyphs" textLength="30" x="548" y="169.9482">ATF</text><ellipse cx="518.8742" cy="204.728" fill="#FFFFFF" rx="61.8742" ry="14.7748" style="stroke: #000000; stroke-width: 1.5;"/><text fill="#000000" font-family="sans-serif" font-size="14" lengthAdjust="spacingAndGlyphs" textLength="85" x="476.3742" y="209.3764">Emulate HMI</text><ellipse cx="131.2229" cy="319.9977" fill="#FFFFFF" rx="93.2229" ry="21.0446" style="stroke: #000000; stroke-width: 1.5;"/><text fill="#000000" font-family="sans-serif" font-size="14" lengthAdjust="spacingAndGlyphs" textLength="161" x="50.7229" y="324.6461">WebSocket negotiation</text><ellipse cx="422.7923" cy="319.7116" fill="#FFFFFF" rx="101.7923" ry="22.7585" style="stroke: #000000; stroke-width: 1.5;"/><text fill="#000000" font-family="sans-serif" font-size="14" lengthAdjust="spacingAndGlyphs" textLength="180" x="332.7923" y="324.36">HMI Interfaces Registering</text><ellipse cx="705.0616" cy="320.0655" fill="#FFFFFF" rx="83.5616" ry="19.1123" style="stroke: #000000; stroke-width: 1.5;"/><text fill="#000000" font-family="sans-serif" font-size="14" lengthAdjust="spacingAndGlyphs" textLength="139" x="635.5616" y="324.7139">HMI RPC processing</text><ellipse cx="986.9278" cy="319.9387" fill="#FFFFFF" rx="100.4278" ry="22.4856" style="stroke: #000000; stroke-width: 1.5;"/><text fill="#000000" font-family="sans-serif" font-size="14" lengthAdjust="spacingAndGlyphs" textLength="177" x="898.4278" y="324.5871">SDL-to-HMI RPC validation</text><!--entity script--><ellipse cx="519" cy="38.9531" fill="#FFFFFF" rx="8" ry="8" style="stroke: #0000FF; stroke-width: 2.0;"/><path d="M519,46.9531 L519,73.9531 M506,54.9531 L532,54.9531 M519,73.9531 L506,88.9531 M519,73.9531 L532,88.9531 " fill="#FFFFFF" style="stroke: #0000FF; stroke-width: 2.0;"/><text fill="#000000" font-family="sans-serif" font-size="14" lengthAdjust="spacingAndGlyphs" textLength="74" x="482" y="104.9482">Test Script</text><!--entity SDL--><ellipse cx="423" cy="415.9531" fill="#FFFFFF" rx="8" ry="8" style="stroke: #0000FF; stroke-width: 2.0;"/><path d="M423,423.9531 L423,450.9531 M410,431.9531 L436,431.9531 M423,450.9531 L410,465.9531 M423,450.9531 L436,465.9531 " fill="#FFFFFF" style="stroke: #0000FF; stroke-width: 2.0;"/><text fill="#000000" font-family="sans-serif" font-size="14" lengthAdjust="spacingAndGlyphs" textLength="27" x="409.5" y="481.9482">SDL</text><path d="M519,107.9951 C519,135.3201 519,170.4281 519,189.7021 " fill="none" style="stroke: #0000FF; stroke-width: 1.0;"/><path d="M481.444,216.8911 C414.078,236.5101 272.187,277.8341 191.134,301.4401 " fill="none" style="stroke: #0000FF; stroke-width: 1.0; stroke-dasharray: 7.0,7.0;"/><polygon fill="#0000FF" points="185.885,302.9681,195.6446,304.2908,190.6854,301.5694,193.4067,296.6102,185.885,302.9681" style="stroke: #0000FF; stroke-width: 1.0;"/><text fill="#000000" font-family="sans-serif" font-size="13" lengthAdjust="spacingAndGlyphs" textLength="61" x="361" y="263.02">«include»</text><path d="M507.229,219.8091 C491.704,238.0821 464.093,270.5831 444.727,293.3781 " fill="none" style="stroke: #0000FF; stroke-width: 1.0; stroke-dasharray: 7.0,7.0;"/><polygon fill="#0000FF" points="441.453,297.2321,450.3287,292.9634,444.6905,293.4218,444.2321,287.7835,441.453,297.2321" style="stroke: #0000FF; stroke-width: 1.0;"/><text fill="#000000" font-family="sans-serif" font-size="13" lengthAdjust="spacingAndGlyphs" textLength="61" x="480" y="263.02">«include»</text><path d="M540.701,219.1371 C573.207,238.8851 634.758,276.2791 672.6,299.2691 " fill="none" style="stroke: #0000FF; stroke-width: 1.0; stroke-dasharray: 7.0,7.0;"/><polygon fill="#0000FF" points="677.093,301.9991,671.4779,293.9078,672.8197,299.4032,667.3243,300.745,677.093,301.9991" style="stroke: #0000FF; stroke-width: 1.0;"/><text fill="#000000" font-family="sans-serif" font-size="13" lengthAdjust="spacingAndGlyphs" textLength="61" x="618" y="263.02">«include»</text><path d="M560.944,216.0801 C641.144,235.4451 817.037,277.9151 915.909,301.7881 " fill="none" style="stroke: #0000FF; stroke-width: 1.0; stroke-dasharray: 7.0,7.0;"/><polygon fill="#0000FF" points="920.849,302.9811,913.0402,296.9792,915.9889,301.8068,911.1613,304.7555,920.849,302.9811" style="stroke: #0000FF; stroke-width: 1.0;"/><text fill="#000000" font-family="sans-serif" font-size="13" lengthAdjust="spacingAndGlyphs" textLength="61" x="768" y="263.02">«include»</text><path d="M229.277,319.9531 C258.743,319.9531 291.123,319.9531 320.833,319.9531 " fill="none" style="stroke: #0000FF; stroke-width: 1.0; stroke-dasharray: 7.0,7.0;"/><polygon fill="#0000FF" points="224.193,319.9531,233.193,323.9531,229.193,319.9531,233.193,315.9531,224.193,319.9531" style="stroke: #0000FF; stroke-width: 1.0;"/><text fill="#000000" font-family="sans-serif" font-size="13" lengthAdjust="spacingAndGlyphs" textLength="60" x="242.5" y="313.02">«extend»</text><path d="M530.403,319.9531 C560.474,319.9531 592.71,319.9531 621.196,319.9531 " fill="none" style="stroke: #0000FF; stroke-width: 1.0; stroke-dasharray: 7.0,7.0;"/><polygon fill="#0000FF" points="525.207,319.9531,534.207,323.9531,530.207,319.9531,534.207,315.9531,525.207,319.9531" style="stroke: #0000FF; stroke-width: 1.0;"/><text fill="#000000" font-family="sans-serif" font-size="13" lengthAdjust="spacingAndGlyphs" textLength="60" x="543.25" y="313.02">«extend»</text><path d="M788.846,319.9531 C817.776,319.9531 850.571,319.9531 881.035,319.9531 " fill="none" style="stroke: #0000FF; stroke-width: 1.0; stroke-dasharray: 7.0,7.0;"/><polygon fill="#0000FF" points="886.298,319.9531,877.298,315.9531,881.298,319.9531,877.298,323.9531,886.298,319.9531" style="stroke: #0000FF; stroke-width: 1.0;"/><text fill="#000000" font-family="sans-serif" font-size="13" lengthAdjust="spacingAndGlyphs" textLength="61" x="807" y="313.02">«include»</text><path d="M173.147,338.7791 C239.323,366.7681 364.517,419.718 407.814,438.0304 " fill="none" style="stroke: #0000FF; stroke-width: 1.0;"/><path d="M423,343.0321 C423,360.3781 423,384.9647 423,405.5861 " fill="none" style="stroke: #0000FF; stroke-width: 1.0;"/><path d="M668.133,337.0981 C605.578,364.4941 481.24,418.9475 438.133,437.8255 " fill="none" style="stroke: #0000FF; stroke-width: 1.0;"/></g></svg>