<?xml version="1.0" encoding="UTF-8" standalone="yes"?><svg xmlns="http://www.w3.org/2000/svg" xmlns:xlink="http://www.w3.org/1999/xlink" height="482px" style="width:1023px;height:482px;" version="1.1" viewBox="0 0 1023 482" width="1023px"><defs/><g><text fill="#000000" font-family="sans-serif" font-size="18" lengthAdjust="spacingAndGlyphs" textLength="130" x="463" y="16.708">HMI emulation</text><!--cluster ATF--><rect fill="#FFFFFF" height="204" style="stroke: #000000; stroke-width: 2.0;" width="1000" x="22" y="154.9531"/><text fill="#000000" font-family="sans-serif" font-size="14" font-weight="bold" lengthAdjust="spacingAndGlyphs" textLength="30" x="507" y="169.9482">ATF</text><ellipse cx="491.8742" cy="204.728" fill="#FFFFFF" rx="61.8742" ry="14.7748" style="stroke: #000000; stroke-width: 1.5;"/><text fill="#000000" font-family="sans-serif" font-size="14" lengthAdjust="spacingAndGlyphs" textLength="85" x="449.3742" y="209.3764">Emulate HMI</text><ellipse cx="131.2229" cy="319.9977" fill="#FFFFFF" rx="93.2229" ry="21.0446" style="stroke: #000000; stroke-width: 1.5;"/><text fill="#000000" font-family="sans-serif" font-size="14" lengthAdjust="spacingAndGlyphs" textLength="161" x="50.7229" y="324.6461">WebSocket negotiation</text><ellipse cx="395.7923" cy="319.7116" fill="#FFFFFF" rx="101.7923" ry="22.7585" style="stroke: #000000; stroke-width: 1.5;"/><text fill="#000000" font-family="sans-serif" font-size="14" lengthAdjust="spacingAndGlyphs" textLength="180" x="305.7923" y="324.36">HMI Interfaces Registering</text><ellipse cx="651.0616" cy="320.0655" fill="#FFFFFF" rx="83.5616" ry="19.1123" style="stroke: #000000; stroke-width: 1.5;"/><text fill="#000000" font-family="sans-serif" font-size="14" lengthAdjust="spacingAndGlyphs" textLength="139" x="581.5616" y="324.7139">HMI RPC processing</text><ellipse cx="904.9278" cy="319.9387" fill="#FFFFFF" rx="100.4278" ry="22.4856" style="stroke: #000000; stroke-width: 1.5;"/><text fill="#000000" font-family="sans-serif" font-size="14" lengthAdjust="spacingAndGlyphs" textLength="177" x="816.4278" y="324.5871">SDL-to-HMI RPC validation</text><!--entity script--><ellipse cx="492" cy="38.9531" fill="#FFFFFF" rx="8" ry="8" style="stroke: #0000FF; stroke-width: 2.0;"/><path d="M492,46.9531 L492,73.9531 M479,54.9531 L505,54.9531 M492,73.9531 L479,88.9531 M492,73.9531 L505,88.9531 " fill="#FFFFFF" style="stroke: #0000FF; stroke-width: 2.0;"/><text fill="#000000" font-family="sans-serif" font-size="14" lengthAdjust="spacingAndGlyphs" textLength="74" x="455" y="104.9482">Test Script</text><!--entity SDL--><ellipse cx="396" cy="415.9531" fill="#FFFFFF" rx="8" ry="8" style="stroke: #0000FF; stroke-width: 2.0;"/><path d="M396,423.9531 L396,450.9531 M383,431.9531 L409,431.9531 M396,450.9531 L383,465.9531 M396,450.9531 L409,465.9531 " fill="#FFFFFF" style="stroke: #0000FF; stroke-width: 2.0;"/><text fill="#000000" font-family="sans-serif" font-size="14" lengthAdjust="spacingAndGlyphs" textLength="27" x="382.5" y="481.9482">SDL</text><path d="M492,107.9951 C492,135.3201 492,170.4281 492,189.7021 " fill="none" style="stroke: #0000FF; stroke-width: 1.0;"/><path d="M453.943,216.8781 C423.785,225.6121 380.61,238.2821 343,249.9531 C289.607,266.5221 228.98,286.3581 186.276,300.5011 " fill="none" style="stroke: #0000FF; stroke-width: 1.0; stroke-dasharray: 7.0,7.0;"/><polygon fill="#0000FF" points="181.42,302.1101,191.2213,303.0765,186.1663,300.5376,188.7052,295.4825,181.42,302.1101" style="stroke: #0000FF; stroke-width: 1.0;"/><text fill="#000000" font-family="sans-serif" font-size="13" lengthAdjust="spacingAndGlyphs" textLength="89" x="344" y="263.02">&lt;&lt;include&gt;&gt;</text><path d="M480.229,219.8091 C464.704,238.0821 437.093,270.5831 417.727,293.3781 " fill="none" style="stroke: #0000FF; stroke-width: 1.0; stroke-dasharray: 7.0,7.0;"/><polygon fill="#0000FF" points="414.453,297.2321,423.3287,292.9634,417.6905,293.4218,417.2321,287.7835,414.453,297.2321" style="stroke: #0000FF; stroke-width: 1.0;"/><text fill="#000000" font-family="sans-serif" font-size="13" lengthAdjust="spacingAndGlyphs" textLength="89" x="454" y="263.02">&lt;&lt;include&gt;&gt;</text><path d="M510.864,219.3591 C538.497,238.9981 590.192,275.7381 622.482,298.6851 " fill="none" style="stroke: #0000FF; stroke-width: 1.0; stroke-dasharray: 7.0,7.0;"/><polygon fill="#0000FF" points="626.709,301.6901,621.6909,293.2155,622.6337,298.7933,617.0559,299.736,626.709,301.6901" style="stroke: #0000FF; stroke-width: 1.0;"/><text fill="#000000" font-family="sans-serif" font-size="13" lengthAdjust="spacingAndGlyphs" textLength="89" x="577" y="263.02">&lt;&lt;include&gt;&gt;</text><path d="M535.433,215.6811 C572.62,224.1801 627.522,237.1341 675,249.9531 C732.666,265.5231 797.83,285.2781 844.034,299.6571 " fill="none" style="stroke: #0000FF; stroke-width: 1.0; stroke-dasharray: 7.0,7.0;"/><polygon fill="#0000FF" points="849.008,301.2071,841.6048,294.7115,844.2342,299.7201,839.2256,302.3496,849.008,301.2071" style="stroke: #0000FF; stroke-width: 1.0;"/><text fill="#000000" font-family="sans-serif" font-size="13" lengthAdjust="spacingAndGlyphs" textLength="89" x="733" y="263.02">&lt;&lt;include&gt;&gt;</text><path d="M229.345,319.9531 C250.888,319.9531 272.43,319.9531 293.972,319.9531 " fill="none" style="stroke: #0000FF; stroke-width: 1.0; stroke-dasharray: 7.0,7.0;"/><polygon fill="#0000FF" points="224.164,319.9531,233.164,323.9531,229.164,319.9531,233.164,315.9531,224.164,319.9531" style="stroke: #0000FF; stroke-width: 1.0;"/><path d="M503.242,319.9531 C524.622,319.9531 546.002,319.9531 567.383,319.9531 " fill="none" style="stroke: #0000FF; stroke-width: 1.0; stroke-dasharray: 7.0,7.0;"/><polygon fill="#0000FF" points="498.1,319.9531,507.1,323.9531,503.1,319.9531,507.1,315.9531,498.1,319.9531" style="stroke: #0000FF; stroke-width: 1.0;"/><path d="M739.995,319.9531 C761.43,319.9531 782.865,319.9531 804.3,319.9531 " fill="none" style="stroke: #0000FF; stroke-width: 1.0; stroke-dasharray: 7.0,7.0;"/><polygon fill="#0000FF" points="734.84,319.9531,743.84,323.9531,739.84,319.9531,743.84,315.9531,734.84,319.9531" style="stroke: #0000FF; stroke-width: 1.0;"/><path d="M169.817,339.0431 C229.335,366.7811 340.485,418.581 380.854,437.3946 " fill="none" style="stroke: #0000FF; stroke-width: 1.0;"/><path d="M396,343.0321 C396,360.3781 396,384.9647 396,405.5861 " fill="none" style="stroke: #0000FF; stroke-width: 1.0;"/><path d="M617.138,337.3531 C561.05,364.5171 451.081,417.7764 411.039,437.1695 " fill="none" style="stroke: #0000FF; stroke-width: 1.0;"/></g></svg>